SplineFontDB: 3.0
FontName: PhilosopherTwo-Bold
FullName: Philosopher Two Bold
FamilyName: Philosopher Two
Weight: Bold
Copyright: Copyright (c) 2011 by Jovanny Lemonad. All rights reserved.
Version: 2
ItalicAngle: 0
UnderlinePosition: -150
UnderlineWidth: 50
Ascent: 800
Descent: 200
sfntRevision: 0x00010000
LayerCount: 2
Layer: 0 1 "Back"  1
Layer: 1 1 "Fore"  0
XUID: [1021 288 713564382 7772738]
FSType: 0
OS2Version: 3
OS2_WeightWidthSlopeOnly: 0
OS2_UseTypoMetrics: 1
CreationTime: 1303645763
ModificationTime: 1304081975
PfmFamily: 17
TTFWeight: 700
TTFWidth: 5
LineGap: 0
VLineGap: 0
Panose: 2 0 8 3 0 0 0 2 0 4
OS2TypoAscent: 864
OS2TypoAOffset: 0
OS2TypoDescent: -220
OS2TypoDOffset: 0
OS2TypoLinegap: 0
OS2WinAscent: 864
OS2WinAOffset: 0
OS2WinDescent: 220
OS2WinDOffset: 0
HheadAscent: 864
HheadAOffset: 0
HheadDescent: -220
HheadDOffset: 0
OS2SubXSize: 700
OS2SubYSize: 650
OS2SubXOff: 0
OS2SubYOff: 143
OS2SupXSize: 700
OS2SupYSize: 650
OS2SupXOff: 0
OS2SupYOff: 453
OS2StrikeYSize: 50
OS2StrikeYPos: 250
OS2Vendor: 'MONO'
OS2CodePages: 20000011.00000000
OS2UnicodeRanges: 8000002f.0000000a.00000000.00000000
Lookup: 4 0 0 "'frac' Diagonal Fractions in Latin lookup 0"  {"'frac' Diagonal Fractions in Latin lookup 0 subtable"  } ['frac' ('latn' <'dflt' > ) ]
Lookup: 258 0 0 "'kern' Horizontal Kerning in Latin lookup 0"  {"'kern' Horizontal Kerning in Latin lookup 0 per glyph data 0"  "'kern' Horizontal Kerning in Latin lookup 0 kerning class 1"  } ['kern' ('latn' <'dflt' > ) ]
MarkAttachClasses: 1
DEI: 91125
KernClass2: 67+ 56 "'kern' Horizontal Kerning in Latin lookup 0 kerning class 1" 
 27 guilsinglleft guillemotleft
 29 guilsinglright guillemotright
 22 quotedblleft quoteleft
 24 quotedblright quoteright
 9 trademark
 20 quotedbl quotesingle
 8 asterisk
 28 emdash endash hyphen uni00AD
 40 quotedblbase quotesinglbase comma period
 5 slash
 9 backslash
 10 exclamdown
 10 registered
 12 questiondown
 9 ampersand
 50 A Agrave Aacute Acircumflex Atilde Adieresis Aring

StartChar: plusminus
Encoding: 177 177 4
Width: 582
Flags: W
LayerCount: 2
Fore
SplineSet
49 55 m 1,0,-1
 49 125 l 1,1,-1
 246 125 l 1,2,-1
 246 295 l 1,3,-1
 49 295 l 1,4,-1
 49 365 l 1,5,-1
 246 365 l 1,6,-1
 246 560 l 1,7,-1
 336 560 l 1,8,-1
 336 365 l 1,9,-1
 533 365 l 1,10,-1
 533 295 l 1,11,-1
 336 295 l 1,12,-1
 336 125 l 1,13,-1
 533 125 l 1,14,-1
 533 55 l 1,15,-1
 49 55 l 1,0,-1
EndSplineSet
EndChar

StartChar: emdash
Encoding: 8212 8212 5
Width: 892
Flags: W
LayerCount: 2
Fore
SplineSet
828 227 m 1,0,-1
 64 227 l 1,1,-1
 64 292 l 1,2,-1
 828 292 l 1,3,-1
 828 227 l 1,0,-1
EndSplineSet
EndChar

StartChar: quotedblleft
Encoding: 8220 8220 6
Width: 398
Flags: W
LayerCount: 2
Fore
SplineSet
109 542 m 1,0,1
 138 542 138 542 154 525 c 128,-1,2
 170 508 170 508 170 481 c 256,3,4
 170 454 170 454 154 437 c 128,-1,5
 138 420 138 420 109 420 c 0,6,7
 76 420 76 420 59.5 444 c 128,-1,8
 43 468 43 468 43 498 c 0,9,10
 43 555 43 555 68.5 600.5 c 128,-1,11
 94 646 94 646 158 688 c 1,12,-1
 176 664 l 1,13,14
 164 656 164 656 149.5 644 c 128,-1,15
 135 632 135 632 122.5 616 c 128,-1,16
 110 600 110 600 102 580.5 c 128,-1,17
 94 561 94 561 94 539 c 1,18,-1
 109 542 l 1,0,1
291 542 m 1,19,20
 320 542 320 542 336 525 c 128,-1,21
 352 508 352 508 352 481 c 256,22,23
 352 454 352 454 336 437 c 128,-1,24
 320 420 320 420 291 420 c 0,25,26
 258 420 258 420 241.5 444 c 128,-1,27
 225 468 225 468 225 498 c 0,28,29
 225 555 225 555 250.5 600.5 c 128,-1,30
 276 646 276 646 340 688 c 1,31,-1
 358 664 l 1,32,33
 346 656 346 656 331.5 644 c 128,-1,34
 317 632 317 632 304.5 616 c 128,-1,35
 292 600 292 600 284 580.5 c 128,-1,36
 276 561 276 561 276 539 c 1,37,-1
 291 542 l 1,19,20
EndSplineSet
EndChar

StartChar: quotedblright
Encoding: 8221 8221 7
Width: 400
Flags: W
LayerCount: 2
Fore
SplineSet
297 558 m 1,0,1
 268 558 268 558 252 575 c 128,-1,2
 236 592 236 592 236 619 c 256,3,4
 236 646 236 646 252 663 c 128,-1,5
 268 680 268 680 297 680 c 0,6,7
 330 680 330 680 346.5 656 c 128,-1,8
 363 632 363 632 363 602 c 0,9,10
 363 545 363 545 337.5 499.5 c 128,-1,11
 312 454 312 454 248 412 c 1,12,-1
 230 436 l 1,13,14
 242 444 242 444 256.5 456 c 128,-1,15
 271 468 271 468 283.5 484 c 128,-1,16
 296 500 296 500 304 519.5 c 128,-1,17
 312 539 312 539 312 561 c 1,18,-1
 297 558 l 1,0,1
115 558 m 1,19,20
 86 558 86 558 70 575 c 128,-1,21
 54 592 54 592 54 619 c 256,22,23
 54 646 54 646 70 663 c 128,-1,24
 86 680 86 680 115 680 c 0,25,26
 148 680 148 680 164.5 656 c 128,-1,27
 181 632 181 632 181 602 c 0,28,29
 181 545 181 545 155.5 499.5 c 128,-1,30
 130 454 130 454 66 412 c 1,31,-1
 48 436 l 1,32,33
 60 444 60 444 74.5 456 c 128,-1,34
 89 468 89 468 101.5 484 c 128,-1,35
 114 500 114 500 122 519.5 c 128,-1,36
 130 539 130 539 130 561 c 1,37,-1
 115 558 l 1,19,20
EndSplineSet
EndChar

StartChar: guilsinglleft
Encoding: 8249 8249 8
Width: 294
Flags: W
LayerCount: 2
Fore
SplineSet
253 30 m 1,0,-1
 189 30 l 1,1,-1
 31 225 l 1,2,-1
 189 420 l 1,3,-1
 253 420 l 1,4,-1
 156 226 l 1,5,-1
 253 30 l 1,0,-1
EndSplineSet
EndChar

StartChar: quotedblbase
Encoding: 8222 8222 9
Width: 410
Flags: W
LayerCount: 2
Fore
SplineSet
112 -14 m 1,0,1
 83 -14 83 -14 67 3 c 128,-1,2
 51 20 51 20 51 47 c 256,3,4
 51 74 51 74 67 91 c 128,-1,5
 83 108 83 108 112 108 c 0,6,7
 145 108 145 108 161.5 84 c 128,-1,8
 178 60 178 60 178 30 c 0,9,10
 178 -27 178 -27 152.5 -72.5 c 128,-1,11
 127 -118 127 -118 63 -160 c 1,12,-1
 45 -136 l 1,13,14
 57 -128 57 -128 71.5 -116 c 128,-1,15
 86 -104 86 -104 98.5 -88 c 128,-1,16
 111 -72 111 -72 119 -52.5 c 128,-1,17
 127 -33 127 -33 127 -11 c 1,18,-1
 112 -14 l 1,0,1
294 -14 m 1,19,20
 265 -14 265 -14 249 3 c 128,-1,21
 233 20 233 20 233 47 c 256,22,23
 233 74 233 74 249 91 c 128,-1,24
 265 108 265 108 294 108 c 0,25,26
 327 108 327 108 343.5 84 c 128,-1,27
 360 60 360 60 360 30 c 0,28,29
 360 -27 360 -27 334.5 -72.5 c 128,-1,30
 309 -118 309 -118 245 -160 c 1,31,-1
 227 -136 l 1,32,33
 239 -128 239 -128 253.5 -116 c 128,-1,34
 268 -104 268 -104 280.5 -88 c 128,-1,35
 293 -72 293 -72 301 -52.5 c 128,-1,36
 309 -33 309 -33 309 -11 c 1,37,-1
 294 -14 l 1,19,20
EndSplineSet
EndChar

StartChar: endash
Encoding: 8211 8211 10
Width: 622
Flags: W
LayerCount: 2
Fore
SplineSet
558 227 m 1,0,-1
 64 227 l 1,1,-1
 64 292 l 1,2,-1
 558 292 l 1,3,-1
 558 227 l 1,0,-1
EndSplineSet
EndChar

StartChar: Euro
Encoding: 8364 8364 11
Width: 741
Flags: W
LayerCount: 2
Fore
SplineSet
649 447 m 1,0,1
 630 538 630 538 579.5 586.5 c 128,-1,2
 529 635 529 635 446 635 c 0,3,4
 405 635 405 635 369 623.5 c 128,-1,5
 333 612 333 612 304.5 584.5 c 128,-1,6
 276 557 276 557 256.5 512 c 128,-1,7
 237 467 237 467 230 400 c 1,8,-1
 425 400 l 1,9,-1
 413 355 l 1,10,-1
 226 355 l 1,11,-1
 226 320 l 1,12,-1
 226 295 l 1,13,-1
 410 295 l 1,14,-1
 398 250 l 1,15,-1
 230 250 l 1,16,17
 236 203 236 203 252 162.5 c 128,-1,18
 268 122 268 122 294 91 c 128,-1,19
 320 60 320 60 358 42.5 c 128,-1,20
 396 25 396 25 446 25 c 0,21,22
 515 25 515 25 574 61.5 c 128,-1,23
 633 98 633 98 669 168 c 1,24,-1
 704 141 l 1,25,26
 657 58 657 58 589 19 c 128,-1,27
 521 -20 521 -20 416 -20 c 0,28,29
 347 -20 347 -20 291 0 c 128,-1,30
 235 20 235 20 194 56 c 128,-1,31
 153 92 153 92 127 141.5 c 128,-1,32
 101 191 101 191 91 250 c 1,33,-1
 26 250 l 1,34,-1
 38 295 l 1,35,-1
 86 295 l 1,36,-1
 86 320 l 2,37,38
 86 329 86 329 86 337.5 c 128,-1,39
 86 346 86 346 87 355 c 1,40,-1
 41 355 l 1,41,-1
 53 400 l 1,42,-1
 93 400 l 1,43,44
 105 461 105 461 134 512 c 128,-1,45
 163 563 163 563 205.5 600.5 c 128,-1,46
 248 638 248 638 301.5 659 c 128,-1,47
 355 680 355 680 416 680 c 0,48,49
 510 680 510 680 567.5 655.5 c 128,-1,50
 625 631 625 631 653 599 c 1,51,52
 673 573 673 573 676 532 c 128,-1,53
 679 491 679 491 679 447 c 1,54,-1
 649 447 l 1,0,1
EndSplineSet
EndChar

StartChar: percent
Encoding: 37 37 12
Width: 755
Flags: W
LayerCount: 2
Fore
SplineSet
83 0 m 1,0,-1
 567 660 l 1,1,-1
 673 660 l 1,2,-1
 189 0 l 1,3,-1
 83 0 l 1,0,-1
568 271 m 0,4,5
 641 271 641 271 683.5 235 c 128,-1,6
 726 199 726 199 726 133 c 256,7,8
 726 67 726 67 683.5 31 c 128,-1,9
 641 -5 641 -5 568 -5 c 0,10,11
 493 -5 493 -5 450.5 31 c 128,-1,12
 408 67 408 67 408 133 c 256,13,14
 408 199 408 199 450.5 235 c 128,-1,15
 493 271 493 271 568 271 c 0,4,5
566 231 m 0,16,17
 528 231 528 231 508 206 c 128,-1,18
 488 181 488 181 488 133 c 256,19,20
 488 85 488 85 508 60 c 128,-1,21
 528 35 528 35 567 35 c 256,22,23
 606 35 606 35 626 60 c 128,-1,24
 646 85 646 85 646 133 c 256,25,26
 646 181 646 181 625.5 206 c 128,-1,27
 605 231 605 231 566 231 c 0,16,17
190 665 m 0,28,29
 263 665 263 665 305.5 629 c 128,-1,30
 348 593 348 593 348 527 c 256,31,32
 348 461 348 461 305.5 425 c 128,-1,33
 263 389 263 389 190 389 c 0,34,35
 115 389 115 389 72.5 425 c 128,-1,36
 30 461 30 461 30 527 c 256,37,38
 30 593 30 593 72.5 629 c 128,-1,39
 115 665 115 665 190 665 c 0,28,29
188 625 m 0,40,41
 150 625 150 625 130 600 c 128,-1,42
 110 575 110 575 110 527 c 256,43,44
 110 479 110 479 130 454 c 128,-1,45
 150 429 150 429 189 429 c 256,46,47
 228 429 228 429 248 454 c 128,-1,48
 268 479 268 479 268 527 c 256,49,50
 268 575 268 575 247.5 600 c 128,-1,51
 227 625 227 625 188 625 c 0,40,41
EndSplineSet
EndChar

StartChar: perthousand
Encoding: 8240 8240 13
Width: 1070
Flags: W
LayerCount: 2
Fore
SplineSet
86 0 m 1,0,-1
 570 660 l 1,1,-1
 676 660 l 1,2,-1
 192 0 l 1,3,-1
 86 0 l 1,0,-1
551 271 m 0,4,5
 624 271 624 271 666.5 235 c 128,-1,6
 709 199 709 199 709 133 c 256,7,8
 709 67 709 67 666.5 31 c 128,-1,9
 624 -5 624 -5 551 -5 c 0,10,11
 476 -5 476 -5 433.5 31 c 128,-1,12
 391 67 391 67 391 133 c 256,13,14
 391 199 391 199 433.5 235 c 128,-1,15
 476 271 476 271 551 271 c 0,4,5
549 231 m 0,16,17
 511 231 511 231 491 206 c 128,-1,18
 471 181 471 181 471 133 c 256,19,20
 471 85 471 85 491 60 c 128,-1,21
 511 35 511 35 550 35 c 256,22,23
 589 35 589 35 609 60 c 128,-1,24
 629 85 629 85 629 133 c 256,25,26
 629 181 629 181 608.5 206 c 128,-1,27
 588 231 588 231 549 231 c 0,16,17
193 665 m 0,28,29
 266 665 266 665 308.5 629 c 128,-1,30
 351 593 351 593 351 527 c 256,31,32
 351 461 351 461 308.5 425 c 128,-1,33
 266 389 266 389 193 389 c 0,34,35
 118 389 118 389 75.5 425 c 128,-1,36
 33 461 33 461 33 527 c 256,37,38
 33 593 33 593 75.5 629 c 128,-1,39
 118 665 118 665 193 665 c 0,28,29
191 625 m 0,40,41
 153 625 153 625 133 600 c 128,-1,42
 113 575 113 575 113 527 c 256,43,44
 113 479 113 479 133 454 c 128,-1,45
 153 429 153 429 192 429 c 256,46,47
 231 429 231 429 251 454 c 128,-1,48
 271 479 271 479 271 527 c 256,49,50
 271 575 271 575 250.5 600 c 128,-1,51
 230 625 230 625 191 625 c 0,40,41
885 271 m 0,52,53
 958 271 958 271 1000.5 235 c 128,-1,54
 1043 199 1043 199 1043 133 c 256,55,56
 1043 67 1043 67 1000.5 31 c 128,-1,57
 958 -5 958 -5 885 -5 c 0,58,59
 810 -5 810 -5 767.5 31 c 128,-1,60
 725 67 725 67 725 133 c 256,61,62
 725 199 725 199 767.5 235 c 128,-1,63
 810 271 810 271 885 271 c 0,52,53
883 231 m 0,64,65
 845 231 845 231 825 206 c 128,-1,66
 805 181 805 181 805 133 c 256,67,68
 805 85 805 85 825 60 c 128,-1,69
 845 35 845 35 884 35 c 256,70,71
 923 35 923 35 943 60 c 128,-1,72
 963 85 963 85 963 133 c 256,73,74
 963 181 963 181 942.5 206 c 128,-1,75
 922 231 922 231 883 231 c 0,64,65
EndSplineSet
Ligature2: "'frac' Diagonal Fractions in Latin lookup 0 subtable" zero slash zero zero
EndChar

StartChar: ellipsis
Encoding: 8230 8230 14
Width: 644
Flags: W
LayerCount: 2
Fore
SplineSet
173 47 m 256,0,1
 173 20 173 20 157 3 c 128,-1,2
 141 -14 141 -14 112 -14 c 256,3,4
 83 -14 83 -14 67 3 c 128,-1,5
 51 20 51 20 51 47 c 256,6,7
 51 74 51 74 67 91 c 128,-1,8
 83 108 83 108 112 108 c 256,9,10
 141 108 141 108 157 91 c 128,-1,11
 173 74 173 74 173 47 c 256,0,1
383 47 m 256,12,13
 383 20 383 20 367 3 c 128,-1,14
 351 -14 351 -14 322 -14 c 256,15,16
 293 -14 293 -14 277 3 c 128,-1,17
 261 20 261 20 261 47 c 256,18,19
 261 74 261 74 277 91 c 128,-1,20
 293 108 293 108 322 108 c 256,21,22
 351 108 351 108 367 91 c 128,-1,23
 383 74 383 74 383 47 c 256,12,13
593 47 m 256,24,25
 593 20 593 20 577 3 c 128,-1,26
 561 -14 561 -14 532 -14 c 256,27,28
 503 -14 503 -14 487 3 c 128,-1,29
 471 20 471 20 471 47 c 256,30,31
 471 74 471 74 487 91 c 128,-1,32
 503 108 503 108 532 108 c 256,33,34
 561 108 561 108 577 91 c 128,-1,35
 593 74 593 74 593 47 c 256,24,25
EndSplineSet
EndChar

StartChar: guilsinglright
Encoding: 8250 8250 15
Width: 294
Flags: W
LayerCount: 2
Fore
SplineSet
138 226 m 1,0,-1
 41 420 l 1,1,-1
 105 420 l 1,2,-1
 263 225 l 1,3,-1
 105 30 l 1,4,-1
 41 30 l 1,5,-1
 138 226 l 1,0,-1
EndSplineSet
EndChar

StartChar: guillemotright
Encoding: 187 187 16
Width: 425
Flags: W
LayerCount: 2
Fore
SplineSet
219 225 m 1,0,-1
 117 80 l 1,1,-1
 53 80 l 1,2,-1
 115 225 l 1,3,-1
 53 370 l 1,4,-1
 117 370 l 1,5,-1
 219 225 l 1,0,-1
269 226 m 1,6,-1
 172 420 l 1,7,-1
 236 420 l 1,8,-1
 394 225 l 1,9,-1
 236 30 l 1,10,-1
 172 30 l 1,11,-1
 269 226 l 1,6,-1
EndSplineSet
EndChar

StartChar: quotesinglbase
Encoding: 8218 8218 17
Width: 228
Flags: W
LayerCount: 2
Fore
SplineSet
112 -14 m 1,0,1
 83 -14 83 -14 67 3 c 128,-1,2
 51 20 51 20 51 47 c 256,3,4
 51 74 51 74 67 91 c 128,-1,5
 83 108 83 108 112 108 c 0,6,7
 145 108 145 108 161.5 84 c 128,-1,8
 178 60 178 60 178 30 c 0,9,10
 178 -27 178 -27 152.5 -72.5 c 128,-1,11
 127 -118 127 -118 63 -160 c 1,12,-1
 45 -136 l 1,13,14
 57 -128 57 -128 71.5 -116 c 128,-1,15
 86 -104 86 -104 98.5 -88 c 128,-1,16
 111 -72 111 -72 119 -52.5 c 128,-1,17
 127 -33 127 -33 127 -11 c 1,18,-1
 112 -14 l 1,0,1
EndSplineSet
EndChar

StartChar: quoteleft
Encoding: 8216 8216 18
Width: 216
Flags: W
LayerCount: 2
Fore
SplineSet
109 542 m 1,0,1
 138 542 138 542 154 525 c 128,-1,2
 170 508 170 508 170 481 c 256,3,4
 170 454 170 454 154 437 c 128,-1,5
 138 420 138 420 109 420 c 0,6,7
 76 420 76 420 59.5 444 c 128,-1,8
 43 468 43 468 43 498 c 0,9,10
 43 555 43 555 68.5 600.5 c 128,-1,11
 94 646 94 646 158 688 c 1,12,-1
 176 664 l 1,13,14
 164 656 164 656 149.5 644 c 128,-1,15
 135 632 135 632 122.5 616 c 128,-1,16
 110 600 110 600 102 580.5 c 128,-1,17
 94 561 94 561 94 539 c 1,18,-1
 109 542 l 1,0,1
EndSplineSet
EndChar

StartChar: quoteright
Encoding: 8217 8217 19
Width: 218
Flags: W
LayerCount: 2
Fore
SplineSet
115 558 m 1,0,1
 86 558 86 558 70 575 c 128,-1,2
 54 592 54 592 54 619 c 256,3,4
 54 646 54 646 70 663 c 128,-1,5
 86 680 86 680 115 680 c 0,6,7
 148 680 148 680 164.5 656 c 128,-1,8
 181 632 181 632 181 602 c 0,9,10
 181 545 181 545 155.5 499.5 c 128,-1,11
 130 454 130 454 66 412 c 1,12,-1
 48 436 l 1,13,14
 60 444 60 444 74.5 456 c 128,-1,15
 89 468 89 468 101.5 484 c 128,-1,16
 114 500 114 500 122 519.5 c 128,-1,17
 130 539 130 539 130 561 c 1,18,-1
 115 558 l 1,0,1
EndSplineSet
EndChar

StartChar: trademark
Encoding: 8482 8482 20
Width: 940
Flags: W
LayerCount: 2
Fore
SplineSet
406 660 m 1,0,-1
 406 628 l 1,1,-1
 285 628 l 1,2,-1
 285 297 l 1,3,-1
 189 297 l 1,4,-1
 189 628 l 1,5,-1
 143 628 l 2,6,7
 109 628 109 628 88 607 c 128,-1,8
 67 586 67 586 67 543 c 1,9,-1
 51 543 l 1,10,-1
 51 594 l 2,11,12
 51 606 51 606 54 618 c 128,-1,13
 57 630 57 630 65 639.5 c 128,-1,14
 73 649 73 649 87 654.5 c 128,-1,15
 101 660 101 660 123 660 c 2,16,-1
 406 660 l 1,0,-1
849 438 m 2,17,18
 849 402 849 402 852 377.5 c 128,-1,19
 855 353 855 353 861 337.5 c 128,-1,20
 867 322 867 322 876 313.5 c 128,-1,21
 885 305 885 305 897 302 c 1,22,-1
 897 290 l 1,23,24
 825 290 825 290 789 322.5 c 128,-1,25
 753 355 753 355 753 438 c 2,26,-1
 753 556 l 1,27,-1
 637 297 l 1,28,-1
 612 297 l 1,29,-1
 467 572 l 1,30,-1
 467 297 l 1,31,-1
 429 297 l 1,32,-1
 429 660 l 1,33,-1
 517 660 l 1,34,-1
 645 417 l 1,35,-1
 754 660 l 1,36,-1
 849 660 l 1,37,-1
 849 438 l 2,17,18
EndSplineSet
EndChar

StartChar: exclam
Encoding: 33 33 21
Width: 245
Flags: W
LayerCount: 2
Fore
SplineSet
169 155 m 1,0,-1
 75 155 l 1,1,-1
 56 660 l 1,2,-1
 189 660 l 1,3,-1
 169 155 l 1,0,-1
183 47 m 256,4,5
 183 20 183 20 167 3 c 128,-1,6
 151 -14 151 -14 122 -14 c 256,7,8
 93 -14 93 -14 77 3 c 128,-1,9
 61 20 61 20 61 47 c 256,10,11
 61 74 61 74 77 91 c 128,-1,12
 93 108 93 108 122 108 c 256,13,14
 151 108 151 108 167 91 c 128,-1,15
 183 74 183 74 183 47 c 256,4,5
EndSplineSet
EndChar

StartChar: quotedbl
Encoding: 34 34 22
Width: 390
Flags: W
LayerCount: 2
Fore
SplineSet
245 390 m 1,0,-1
 215 660 l 1,1,-1
 345 660 l 1,2,-1
 315 390 l 1,3,-1
 245 390 l 1,0,-1
75 390 m 1,4,-1
 45 660 l 1,5,-1
 175 660 l 1,6,-1
 145 390 l 1,7,-1
 75 390 l 1,4,-1
EndSplineSet
EndChar

StartChar: numbersign
Encoding: 35 35 23
Width: 699
Flags: W
LayerCount: 2
Fore
SplineSet
116 0 m 1,0,-1
 152 172 l 1,1,-1
 29 172 l 1,2,-1
 29 237 l 1,3,-1
 165 237 l 1,4,-1
 202 413 l 1,5,-1
 89 413 l 1,6,-1
 89 478 l 1,7,-1
 216 478 l 1,8,-1
 257 675 l 1,9,-1
 356 675 l 1,10,-1
 315 478 l 1,11,-1
 442 478 l 1,12,-1
 483 675 l 1,13,-1
 583 675 l 1,14,-1
 542 478 l 1,15,-1
 670 478 l 1,16,-1
 670 413 l 1,17,-1
 528 413 l 1,18,-1
 492 237 l 1,19,-1
 610 237 l 1,20,-1
 610 172 l 1,21,-1
 478 172 l 1,22,-1
 442 0 l 1,23,-1
 342 0 l 1,24,-1
 378 172 l 1,25,-1
 251 172 l 1,26,-1
 215 0 l 1,27,-1
 116 0 l 1,0,-1
265 237 m 1,28,-1
 391 237 l 1,29,-1
 428 413 l 1,30,-1
 301 413 l 1,31,-1
 265 237 l 1,28,-1
EndSplineSet
EndChar

StartChar: dollar
Encoding: 36 36 24
Width: 550
Flags: W
LayerCount: 2
Fore
SplineSet
305 676 m 1,0,1
 341 673 341 673 375 663 c 128,-1,2
 409 653 409 653 435 638 c 128,-1,3
 461 623 461 623 477 603 c 128,-1,4
 493 583 493 583 493 558 c 2,5,-1
 493 441 l 1,6,-1
 465 441 l 1,7,8
 450 536 450 536 410 580 c 128,-1,9
 370 624 370 624 305 631 c 1,10,-1
 305 390 l 1,11,-1
 388 341 l 2,12,13
 456 301 456 301 487.5 262.5 c 128,-1,14
 519 224 519 224 519 169 c 0,15,16
 519 90 519 90 463.5 41 c 128,-1,17
 408 -8 408 -8 305 -16 c 1,18,-1
 305 -80 l 1,19,-1
 235 -80 l 1,20,-1
 235 -15 l 1,21,22
 198 -12 198 -12 163 -3 c 128,-1,23
 128 6 128 6 101 21 c 128,-1,24
 74 36 74 36 58 56.5 c 128,-1,25
 42 77 42 77 42 103 c 2,26,-1
 42 220 l 1,27,-1
 70 220 l 1,28,29
 85 126 85 126 125.5 81.5 c 128,-1,30
 166 37 166 37 235 29 c 1,31,-1
 235 287 l 1,32,-1
 167 328 l 2,33,34
 99 368 99 368 71 410 c 128,-1,35
 43 452 43 452 43 507 c 0,36,37
 43 579 43 579 94 624 c 128,-1,38
 145 669 145 669 235 677 c 1,39,-1
 235 735 l 1,40,-1
 305 735 l 1,41,-1
 305 676 l 1,0,1
393 125 m 256,42,43
 393 164 393 164 369.5 191.5 c 128,-1,44
 346 219 346 219 305 245 c 1,45,-1
 305 31 l 1,46,47
 345 39 345 39 369 62.5 c 128,-1,48
 393 86 393 86 393 125 c 256,42,43
161 536 m 0,49,50
 161 500 161 500 180.5 477.5 c 128,-1,51
 200 455 200 455 235 432 c 1,52,-1
 235 628 l 1,53,54
 200 618 200 618 180.5 594.5 c 128,-1,55
 161 571 161 571 161 536 c 0,49,50
EndSplineSet
EndChar

StartChar: ampersand
Encoding: 38 38 25
Width: 637
Flags: W
LayerCount: 2
Fore
SplineSet
33 135 m 0,0,1
 33 169 33 169 45.5 196.5 c 128,-1,2
 58 224 58 224 79.5 247 c 128,-1,3
 101 270 101 270 129.5 289.5 c 128,-1,4
 158 309 158 309 191 326 c 1,5,6
 184 332 184 332 165.5 350.5 c 128,-1,7
 147 369 147 369 128 396 c 128,-1,8
 109 423 109 423 94.5 456 c 128,-1,9
 80 489 80 489 80 524 c 0,10,11
 80 598 80 598 133 639 c 128,-1,12
 186 680 186 680 280 680 c 0,13,14
 371 680 371 680 418 641 c 128,-1,15
 465 602 465 602 465 540 c 0,16,17
 465 509 465 509 452.5 481.5 c 128,-1,18
 440 454 440 454 418.5 429 c 128,-1,19
 397 404 397 404 369 382 c 128,-1,20
 341 360 341 360 310 340 c 1,21,-1
 495 140 l 1,22,23
 513 160 513 160 528.5 182 c 128,-1,24
 544 204 544 204 555 221 c 0,25,26
 568 241 568 241 579 261 c 1,27,-1
 617 236 l 1,28,29
 608 215 608 215 595 193 c 0,30,31
 584 174 584 174 567.5 150.5 c 128,-1,32
 551 127 551 127 529 103 c 1,33,-1
 626 0 l 1,34,-1
 490 0 l 1,35,-1
 452 38 l 1,36,37
 452 38 452 38 439.5 29 c 128,-1,38
 427 20 427 20 404 9 c 128,-1,39
 381 -2 381 -2 349 -11 c 128,-1,40
 317 -20 317 -20 280 -20 c 0,41,42
 211 -20 211 -20 163.5 -7.5 c 128,-1,43
 116 5 116 5 87 26 c 128,-1,44
 58 47 58 47 45.5 75 c 128,-1,45
 33 103 33 103 33 135 c 0,0,1
289 20 m 0,46,47
 319 20 319 20 344 28 c 128,-1,48
 369 36 369 36 386 46 c 0,49,50
 406 57 406 57 422 72 c 1,51,52
 371 128 371 128 326.5 175 c 128,-1,53
 282 222 282 222 231 278 c 1,54,55
 204 254 204 254 183.5 220.5 c 128,-1,56
 163 187 163 187 163 145 c 0,57,58
 163 88 163 88 194.5 54 c 128,-1,59
 226 20 226 20 289 20 c 0,46,47
210 524 m 0,60,61
 210 497 210 497 216.5 474.5 c 128,-1,62
 223 452 223 452 232.5 434 c 128,-1,63
 242 416 242 416 253 403 c 128,-1,64
 264 390 264 390 273 381 c 1,65,66
 305 410 305 410 325 445.5 c 128,-1,67
 345 481 345 481 345 530 c 0,68,69
 345 561 345 561 339 582 c 128,-1,70
 333 603 333 603 323.5 616 c 128,-1,71
 314 629 314 629 302.5 634.5 c 128,-1,72
 291 640 291 640 280 640 c 0,73,74
 246 640 246 640 228 615.5 c 128,-1,75
 210 591 210 591 210 524 c 0,60,61
EndSplineSet
EndChar

StartChar: quotesingle
Encoding: 39 39 26
Width: 220
Flags: W
LayerCount: 2
Fore
SplineSet
75 390 m 1,0,-1
 45 660 l 1,1,-1
 175 660 l 1,2,-1
 145 390 l 1,3,-1
 75 390 l 1,0,-1
EndSplineSet
EndChar

StartChar: parenleft
Encoding: 40 40 27
Width: 320
Flags: W
LayerCount: 2
Fore
SplineSet
24 240 m 256,0,1
 24 383 24 383 93.5 496 c 128,-1,2
 163 609 163 609 297 700 c 1,3,-1
 311 680 l 1,4,5
 267 641 267 641 237 592.5 c 128,-1,6
 207 544 207 544 188.5 488 c 128,-1,7
 170 432 170 432 162 369.5 c 128,-1,8
 154 307 154 307 154 240 c 0,9,10
 154 172 154 172 162 110 c 128,-1,11
 170 48 170 48 188.5 -8 c 128,-1,12
 207 -64 207 -64 237 -112.5 c 128,-1,13
 267 -161 267 -161 311 -200 c 1,14,-1
 297 -220 l 1,15,16
 163 -129 163 -129 93.5 -16 c 128,-1,17
 24 97 24 97 24 240 c 256,0,1
EndSplineSet
EndChar

StartChar: parenright
Encoding: 41 41 28
Width: 321
Flags: W
LayerCount: 2
Fore
SplineSet
297 240 m 256,0,1
 297 97 297 97 227.5 -16 c 128,-1,2
 158 -129 158 -129 24 -220 c 1,3,-1
 10 -200 l 1,4,5
 54 -161 54 -161 84 -112.5 c 128,-1,6
 114 -64 114 -64 132.5 -8 c 128,-1,7
 151 48 151 48 159 110 c 128,-1,8
 167 172 167 172 167 240 c 0,9,10
 167 307 167 307 159 369.5 c 128,-1,11
 151 432 151 432 132.5 488 c 128,-1,12
 114 544 114 544 84 592.5 c 128,-1,13
 54 641 54 641 10 680 c 1,14,-1
 24 700 l 1,15,16
 158 609 158 609 227.5 496 c 128,-1,17
 297 383 297 383 297 240 c 256,0,1
EndSplineSet
EndChar

StartChar: asterisk
Encoding: 42 42 29
Width: 434
Flags: W
LayerCount: 2
Fore
SplineSet
161 660 m 1,0,-1
 273 660 l 1,1,-1
 249 539 l 1,2,-1
 347 628 l 1,3,-1
 396 542 l 1,4,-1
 252 492 l 1,5,-1
 396 442 l 1,6,-1
 347 356 l 1,7,-1
 248 446 l 1,8,-1
 273 324 l 1,9,-1
 161 324 l 1,10,-1
 185 445 l 1,11,-1
 87 356 l 1,12,-1
 38 442 l 1,13,-1
 182 492 l 1,14,-1
 38 542 l 1,15,-1
 87 628 l 1,16,-1
 185 539 l 1,17,-1
 161 660 l 1,0,-1
EndSplineSet
EndChar

StartChar: plus
Encoding: 43 43 30
Width: 546
Flags: W
LayerCount: 2
Fore
SplineSet
228 295 m 1,0,-1
 31 295 l 1,1,-1
 31 365 l 1,2,-1
 228 365 l 1,3,-1
 228 560 l 1,4,-1
 318 560 l 1,5,-1
 318 365 l 1,6,-1
 515 365 l 1,7,-1
 515 295 l 1,8,-1
 318 295 l 1,9,-1
 318 100 l 1,10,-1
 228 100 l 1,11,-1
 228 295 l 1,0,-1
EndSplineSet
EndChar

StartChar: comma
Encoding: 44 44 31
Width: 228
Flags: W
LayerCount: 2
Fore
SplineSet
112 -14 m 1,0,1
 83 -14 83 -14 67 3 c 128,-1,2
 51 20 51 20 51 47 c 256,3,4
 51 74 51 74 67 91 c 128,-1,5
 83 108 83 108 112 108 c 0,6,7
 145 108 145 108 161.5 84 c 128,-1,8
 178 60 178 60 178 30 c 0,9,10
 178 -27 178 -27 152.5 -72.5 c 128,-1,11
 127 -118 127 -118 63 -160 c 1,12,-1
 45 -136 l 1,13,14
 57 -128 57 -128 71.5 -116 c 128,-1,15
 86 -104 86 -104 98.5 -88 c 128,-1,16
 111 -72 111 -72 119 -52.5 c 128,-1,17
 127 -33 127 -33 127 -11 c 1,18,-1
 112 -14 l 1,0,1
EndSplineSet
EndChar

StartChar: hyphen
Encoding: 45 45 32
Width: 395
Flags: W
LayerCount: 2
Fore
SplineSet
58 312 m 1,0,-1
 337 312 l 1,1,-1
 337 217 l 1,2,-1
 58 217 l 1,3,-1
 58 312 l 1,0,-1
EndSplineSet
EndChar

StartChar: period
Encoding: 46 46 33
Width: 224
Flags: W
LayerCount: 2
Fore
SplineSet
173 47 m 256,0,1
 173 20 173 20 157 3 c 128,-1,2
 141 -14 141 -14 112 -14 c 256,3,4
 83 -14 83 -14 67 3 c 128,-1,5
 51 20 51 20 51 47 c 256,6,7
 51 74 51 74 67 91 c 128,-1,8
 83 108 83 108 112 108 c 256,9,10
 141 108 141 108 157 91 c 128,-1,11
 173 74 173 74 173 47 c 256,0,1
EndSplineSet
EndChar

StartChar: slash
Encoding: 47 47 34
Width: 475
Flags: W
LayerCount: 2
Fore
SplineSet
21 0 m 1,0,-1
 342 660 l 1,1,-1
 454 660 l 1,2,-1
 133 0 l 1,3,-1
 21 0 l 1,0,-1
EndSplineSet
EndChar

StartChar: zero
Encoding: 48 48 35
Width: 606
Flags: W
LayerCount: 2
Fore
SplineSet
303 635 m 256,0,1
 240 635 240 635 211.5 561.5 c 128,-1,2
 183 488 183 488 183 330 c 256,3,4
 183 172 183 172 211.5 98.5 c 128,-1,5
 240 25 240 25 303 25 c 256,6,7
 366 25 366 25 394.5 98.5 c 128,-1,8
 423 172 423 172 423 330 c 256,9,10
 423 488 423 488 394.5 561.5 c 128,-1,11
 366 635 366 635 303 635 c 256,0,1
303 680 m 256,12,13
 375 680 375 680 424.5 654.5 c 128,-1,14
 474 629 474 629 504.5 583 c 128,-1,15
 535 537 535 537 549 472.5 c 128,-1,16
 563 408 563 408 563 330 c 256,17,18
 563 252 563 252 549 187.5 c 128,-1,19
 535 123 535 123 504.5 77 c 128,-1,20
 474 31 474 31 424.5 5.5 c 128,-1,21
 375 -20 375 -20 303 -20 c 256,22,23
 231 -20 231 -20 181.5 5.5 c 128,-1,24
 132 31 132 31 101.5 77 c 128,-1,25
 71 123 71 123 57 187.5 c 128,-1,26
 43 252 43 252 43 330 c 256,27,28
 43 408 43 408 57 472.5 c 128,-1,29
 71 537 71 537 101.5 583 c 128,-1,30
 132 629 132 629 181.5 654.5 c 128,-1,31
 231 680 231 680 303 680 c 256,12,13
EndSplineSet
EndChar

StartChar: one
Encoding: 49 49 36
Width: 323
Flags: W
LayerCount: 2
Fore
SplineSet
249 0 m 1,0,-1
 119 0 l 1,1,-1
 119 542 l 1,2,-1
 32 486 l 1,3,-1
 8 517 l 1,4,-1
 162 660 l 1,5,-1
 249 660 l 1,6,-1
 249 0 l 1,0,-1
EndSplineSet
EndChar

StartChar: two
Encoding: 50 50 37
Width: 539
Flags: W
LayerCount: 2
Fore
SplineSet
41 0 m 1,0,-1
 41 65 l 1,1,2
 62 86 62 86 93.5 115 c 128,-1,3
 125 144 125 144 159 178.5 c 128,-1,4
 193 213 193 213 227.5 251 c 128,-1,5
 262 289 262 289 289 329 c 128,-1,6
 316 369 316 369 333 409 c 128,-1,7
 350 449 350 449 350 487 c 0,8,9
 350 526 350 526 340.5 554 c 128,-1,10
 331 582 331 582 316 600 c 128,-1,11
 301 618 301 618 281 626.5 c 128,-1,12
 261 635 261 635 240 635 c 0,13,14
 177 635 177 635 134 593 c 128,-1,15
 91 551 91 551 76 460 c 1,16,-1
 41 460 l 1,17,18
 41 498 41 498 44 537.5 c 128,-1,19
 47 577 47 577 65 600 c 0,20,21
 92 633 92 633 144.5 656.5 c 128,-1,22
 197 680 197 680 260 680 c 0,23,24
 294 680 294 680 334.5 673 c 128,-1,25
 375 666 375 666 409.5 645 c 128,-1,26
 444 624 444 624 467 586 c 128,-1,27
 490 548 490 548 490 487 c 0,28,29
 490 440 490 440 467.5 393.5 c 128,-1,30
 445 347 445 347 410 303.5 c 128,-1,31
 375 260 375 260 332.5 220 c 128,-1,32
 290 180 290 180 250 146.5 c 128,-1,33
 210 113 210 113 177 87 c 128,-1,34
 144 61 144 61 128 45 c 1,35,-1
 335 45 l 2,36,37
 395 45 395 45 427.5 73.5 c 128,-1,38
 460 102 460 102 460 155 c 1,39,-1
 490 155 l 1,40,-1
 490 80 l 2,41,42
 490 65 490 65 486.5 50.5 c 128,-1,43
 483 36 483 36 473.5 25 c 128,-1,44
 464 14 464 14 447.5 7 c 128,-1,45
 431 0 431 0 405 0 c 2,46,-1
 41 0 l 1,0,-1
EndSplineSet
EndChar

StartChar: three
Encoding: 51 51 38
Width: 543
Flags: W
LayerCount: 2
Fore
SplineSet
209 615 m 2,0,1
 149 615 149 615 116.5 586.5 c 128,-1,2
 84 558 84 558 84 505 c 1,3,-1
 54 505 l 1,4,-1
 54 580 l 2,5,6
 54 595 54 595 57.5 609.5 c 128,-1,7
 61 624 61 624 70.5 635 c 128,-1,8
 80 646 80 646 96.5 653 c 128,-1,9
 113 660 113 660 139 660 c 2,10,-1
 477 660 l 1,11,-1
 477 615 l 1,12,-1
 228 381 l 1,13,14
 228 381 228 381 235 382 c 128,-1,15
 242 383 242 383 251.5 383.5 c 128,-1,16
 261 384 261 384 272 384.5 c 128,-1,17
 283 385 283 385 292 385 c 0,18,19
 326 385 326 385 364.5 374.5 c 128,-1,20
 403 364 403 364 436 340.5 c 128,-1,21
 469 317 469 317 490.5 278.5 c 128,-1,22
 512 240 512 240 512 185 c 0,23,24
 512 122 512 122 486 82 c 128,-1,25
 460 42 460 42 423 19.5 c 128,-1,26
 386 -3 386 -3 345.5 -11.5 c 128,-1,27
 305 -20 305 -20 277 -20 c 0,28,29
 229 -20 229 -20 191.5 -12.5 c 128,-1,30
 154 -5 154 -5 124.5 9.5 c 128,-1,31
 95 24 95 24 71.5 44 c 128,-1,32
 48 64 48 64 27 88 c 1,33,-1
 55 117 l 1,34,35
 97 70 97 70 143.5 47.5 c 128,-1,36
 190 25 190 25 233 25 c 0,37,38
 262 25 262 25 287.5 34 c 128,-1,39
 313 43 313 43 331.5 62.5 c 128,-1,40
 350 82 350 82 361 112.5 c 128,-1,41
 372 143 372 143 372 185 c 0,42,43
 372 225 372 225 362 254.5 c 128,-1,44
 352 284 352 284 334.5 303 c 128,-1,45
 317 322 317 322 293.5 331 c 128,-1,46
 270 340 270 340 244 340 c 0,47,48
 221 340 221 340 202 337 c 128,-1,49
 183 334 183 334 169 330 c 0,50,51
 152 326 152 326 139 321 c 1,52,-1
 115 359 l 1,53,-1
 388 615 l 1,54,-1
 209 615 l 2,0,1
EndSplineSet
EndChar

StartChar: four
Encoding: 52 52 39
Width: 572
Flags: W
LayerCount: 2
Fore
SplineSet
459 0 m 1,0,-1
 329 0 l 1,1,-1
 329 170 l 1,2,-1
 9 170 l 1,3,-1
 9 210 l 1,4,-1
 355 660 l 1,5,-1
 459 660 l 1,6,-1
 459 215 l 1,7,-1
 549 215 l 1,8,-1
 549 170 l 1,9,-1
 459 170 l 1,10,-1
 459 0 l 1,0,-1
329 215 m 1,11,-1
 329 543 l 1,12,-1
 78 215 l 1,13,-1
 329 215 l 1,11,-1
EndSplineSet
EndChar

StartChar: five
Encoding: 53 53 40
Width: 546
Flags: W
LayerCount: 2
Fore
SplineSet
262 390 m 0,0,1
 301 390 301 390 346.5 381 c 128,-1,2
 392 372 392 372 430.5 349.5 c 128,-1,3
 469 327 469 327 494.5 288 c 128,-1,4
 520 249 520 249 520 190 c 0,5,6
 520 127 520 127 493.5 86.5 c 128,-1,7
 467 46 467 46 428 22 c 128,-1,8
 389 -2 389 -2 345 -11 c 128,-1,9
 301 -20 301 -20 265 -20 c 0,10,11
 224 -20 224 -20 191 -12.5 c 128,-1,12
 158 -5 158 -5 131 9 c 128,-1,13
 104 23 104 23 81 43 c 128,-1,14
 58 63 58 63 37 88 c 1,15,-1
 66 114 l 1,16,17
 104 67 104 67 151.5 46 c 128,-1,18
 199 25 199 25 242 25 c 0,19,20
 271 25 271 25 296 34 c 128,-1,21
 321 43 321 43 340 63 c 128,-1,22
 359 83 359 83 369.5 114.5 c 128,-1,23
 380 146 380 146 380 190 c 0,24,25
 380 268 380 268 338.5 306 c 128,-1,26
 297 344 297 344 222 344 c 0,27,28
 201 344 201 344 179 340.5 c 128,-1,29
 157 337 157 337 139 332 c 0,30,31
 118 327 118 327 97 321 c 1,32,-1
 57 360 l 1,33,-1
 68 660 l 1,34,-1
 457 660 l 1,35,-1
 457 616 l 1,36,-1
 184 616 l 1,37,-1
 175 385 l 1,38,39
 190 386 190 386 205 387 c 0,40,41
 218 388 218 388 233 389 c 128,-1,42
 248 390 248 390 262 390 c 0,0,1
EndSplineSet
EndChar

StartChar: six
Encoding: 54 54 41
Width: 560
Flags: W
LayerCount: 2
Fore
SplineSet
44 330 m 0,0,1
 44 511 44 511 114.5 595.5 c 128,-1,2
 185 680 185 680 324 680 c 0,3,4
 358 680 358 680 387 674.5 c 128,-1,5
 416 669 416 669 438 663 c 0,6,7
 464 655 464 655 484 646 c 1,8,-1
 478 618 l 1,9,10
 455 622 455 622 432 626 c 0,11,12
 412 629 412 629 388.5 632 c 128,-1,13
 365 635 365 635 344 635 c 0,14,15
 269 635 269 635 224 574 c 128,-1,16
 179 513 179 513 179 385 c 1,17,18
 196 398 196 398 217 409 c 0,19,20
 235 418 235 418 261 425.5 c 128,-1,21
 287 433 287 433 319 433 c 0,22,23
 377 433 377 433 417.5 416.5 c 128,-1,24
 458 400 458 400 482.5 370 c 128,-1,25
 507 340 507 340 518 298 c 128,-1,26
 529 256 529 256 529 205 c 0,27,28
 529 161 529 161 514 120.5 c 128,-1,29
 499 80 499 80 469.5 48.5 c 128,-1,30
 440 17 440 17 396 -1.5 c 128,-1,31
 352 -20 352 -20 294 -20 c 0,32,33
 169 -20 169 -20 106.5 68 c 128,-1,34
 44 156 44 156 44 330 c 0,0,1
289 388 m 0,35,36
 266 388 266 388 246 380.5 c 128,-1,37
 226 373 226 373 211 363.5 c 128,-1,38
 196 354 196 354 187.5 346 c 128,-1,39
 179 338 179 338 179 337 c 0,40,41
 179 254 179 254 187 194.5 c 128,-1,42
 195 135 195 135 210 97.5 c 128,-1,43
 225 60 225 60 246.5 42.5 c 128,-1,44
 268 25 268 25 294 25 c 0,45,46
 318 25 318 25 337 39.5 c 128,-1,47
 356 54 356 54 368.5 78.5 c 128,-1,48
 381 103 381 103 387.5 135.5 c 128,-1,49
 394 168 394 168 394 205 c 0,50,51
 394 294 394 294 370 341 c 128,-1,52
 346 388 346 388 289 388 c 0,35,36
EndSplineSet
EndChar

StartChar: seven
Encoding: 55 55 42
Width: 473
Flags: W
LayerCount: 2
Fore
SplineSet
217 0 m 1,0,-1
 96 0 l 1,1,-1
 346 615 l 1,2,-1
 176 615 l 2,3,4
 116 615 116 615 83.5 586.5 c 128,-1,5
 51 558 51 558 51 505 c 1,6,-1
 21 505 l 1,7,-1
 21 580 l 2,8,9
 21 595 21 595 24.5 609.5 c 128,-1,10
 28 624 28 624 37.5 635 c 128,-1,11
 47 646 47 646 63.5 653 c 128,-1,12
 80 660 80 660 106 660 c 2,13,-1
 467 660 l 1,14,-1
 467 615 l 1,15,-1
 217 0 l 1,0,-1
EndSplineSet
EndChar

StartChar: eight
Encoding: 56 56 43
Width: 578
Flags: W
LayerCount: 2
Fore
SplineSet
514 518 m 0,0,1
 514 489 514 489 503.5 465 c 128,-1,2
 493 441 493 441 474.5 421 c 128,-1,3
 456 401 456 401 431.5 385.5 c 128,-1,4
 407 370 407 370 379 358 c 1,5,6
 410 341 410 341 439 322 c 128,-1,7
 468 303 468 303 490 280 c 128,-1,8
 512 257 512 257 525.5 228 c 128,-1,9
 539 199 539 199 539 162 c 0,10,11
 539 112 539 112 519.5 77.5 c 128,-1,12
 500 43 500 43 466 21.5 c 128,-1,13
 432 0 432 0 386.5 -10 c 128,-1,14
 341 -20 341 -20 289 -20 c 0,15,16
 238 -20 238 -20 192.5 -10.5 c 128,-1,17
 147 -1 147 -1 113 20 c 128,-1,18
 79 41 79 41 59 73.5 c 128,-1,19
 39 106 39 106 39 152 c 0,20,21
 39 188 39 188 53 215.5 c 128,-1,22
 67 243 67 243 90 265 c 128,-1,23
 113 287 113 287 143 304 c 128,-1,24
 173 321 173 321 206 335 c 1,25,26
 177 351 177 351 151 368 c 128,-1,27
 125 385 125 385 105.5 405.5 c 128,-1,28
 86 426 86 426 75 451 c 128,-1,29
 64 476 64 476 64 508 c 0,30,31
 64 557 64 557 82 590.5 c 128,-1,32
 100 624 100 624 130.5 643.5 c 128,-1,33
 161 663 161 663 202 671.5 c 128,-1,34
 243 680 243 680 289 680 c 256,35,36
 335 680 335 680 376 672 c 128,-1,37
 417 664 417 664 448 645 c 128,-1,38
 479 626 479 626 496.5 595 c 128,-1,39
 514 564 514 564 514 518 c 0,0,1
404 142 m 0,40,41
 404 173 404 173 392.5 197.5 c 128,-1,42
 381 222 381 222 361 242 c 128,-1,43
 341 262 341 262 314.5 279 c 128,-1,44
 288 296 288 296 259 311 c 1,45,46
 221 291 221 291 197.5 255.5 c 128,-1,47
 174 220 174 220 174 152 c 0,48,49
 174 86 174 86 206 55.5 c 128,-1,50
 238 25 238 25 289 25 c 256,51,52
 340 25 340 25 372 54.5 c 128,-1,53
 404 84 404 84 404 142 c 0,40,41
199 528 m 0,54,55
 199 504 199 504 209.5 483.5 c 128,-1,56
 220 463 220 463 237.5 445 c 128,-1,57
 255 427 255 427 278 411.5 c 128,-1,58
 301 396 301 396 327 384 c 1,59,60
 353 404 353 404 366 433.5 c 128,-1,61
 379 463 379 463 379 518 c 0,62,63
 379 552 379 552 370.5 575 c 128,-1,64
 362 598 362 598 348.5 611 c 128,-1,65
 335 624 335 624 319 629.5 c 128,-1,66
 303 635 303 635 289 635 c 256,67,68
 275 635 275 635 259 630 c 128,-1,69
 243 625 243 625 229.5 612.5 c 128,-1,70
 216 600 216 600 207.5 579.5 c 128,-1,71
 199 559 199 559 199 528 c 0,54,55
EndSplineSet
EndChar

StartChar: nine
Encoding: 57 57 44
Width: 560
Flags: W
LayerCount: 2
Fore
SplineSet
516 330 m 0,0,1
 516 148 516 148 445.5 64 c 128,-1,2
 375 -20 375 -20 236 -20 c 0,3,4
 201 -20 201 -20 172.5 -15 c 128,-1,5
 144 -10 144 -10 122 -3 c 1,6,7
 96 4 96 4 76 14 c 1,8,-1
 82 42 l 1,9,10
 105 37 105 37 128 33 c 0,11,12
 148 30 148 30 171 27.5 c 128,-1,13
 194 25 194 25 216 25 c 0,14,15
 291 25 291 25 336 86 c 128,-1,16
 381 147 381 147 381 275 c 1,17,18
 364 262 364 262 343 251 c 0,19,20
 325 242 325 242 299 234.5 c 128,-1,21
 273 227 273 227 241 227 c 0,22,23
 182 227 182 227 142 243.5 c 128,-1,24
 102 260 102 260 77.5 290 c 128,-1,25
 53 320 53 320 42 362 c 128,-1,26
 31 404 31 404 31 455 c 0,27,28
 31 499 31 499 46 539.5 c 128,-1,29
 61 580 61 580 90.5 611.5 c 128,-1,30
 120 643 120 643 164 661.5 c 128,-1,31
 208 680 208 680 266 680 c 0,32,33
 391 680 391 680 453.5 592 c 128,-1,34
 516 504 516 504 516 330 c 0,0,1
271 272 m 0,35,36
 293 272 293 272 313 279.5 c 128,-1,37
 333 287 333 287 348 296.5 c 128,-1,38
 363 306 363 306 372 314 c 128,-1,39
 381 322 381 322 381 323 c 0,40,41
 381 406 381 406 373 465.5 c 128,-1,42
 365 525 365 525 350 562.5 c 128,-1,43
 335 600 335 600 313.5 617.5 c 128,-1,44
 292 635 292 635 266 635 c 0,45,46
 242 635 242 635 223 620.5 c 128,-1,47
 204 606 204 606 191.5 581.5 c 128,-1,48
 179 557 179 557 172.5 524.5 c 128,-1,49
 166 492 166 492 166 455 c 0,50,51
 166 366 166 366 190 319 c 128,-1,52
 214 272 214 272 271 272 c 0,35,36
EndSplineSet
EndChar

StartChar: colon
Encoding: 58 58 45
Width: 238
Flags: W
LayerCount: 2
Fore
SplineSet
180 47 m 256,0,1
 180 20 180 20 164 3 c 128,-1,2
 148 -14 148 -14 119 -14 c 256,3,4
 90 -14 90 -14 74 3 c 128,-1,5
 58 20 58 20 58 47 c 256,6,7
 58 74 58 74 74 91 c 128,-1,8
 90 108 90 108 119 108 c 256,9,10
 148 108 148 108 164 91 c 128,-1,11
 180 74 180 74 180 47 c 256,0,1
180 400 m 256,12,13
 180 373 180 373 164 356 c 128,-1,14
 148 339 148 339 119 339 c 256,15,16
 90 339 90 339 74 356 c 128,-1,17
 58 373 58 373 58 400 c 256,18,19
 58 427 58 427 74 444 c 128,-1,20
 90 461 90 461 119 461 c 256,21,22
 148 461 148 461 164 444 c 128,-1,23
 180 427 180 427 180 400 c 256,12,13
EndSplineSet
EndChar

StartChar: semicolon
Encoding: 59 59 46
Width: 249
Flags: W
LayerCount: 2
Fore
SplineSet
185 400 m 256,0,1
 185 373 185 373 169 356 c 128,-1,2
 153 339 153 339 124 339 c 256,3,4
 95 339 95 339 79 356 c 128,-1,5
 63 373 63 373 63 400 c 256,6,7
 63 427 63 427 79 444 c 128,-1,8
 95 461 95 461 124 461 c 256,9,10
 153 461 153 461 169 444 c 128,-1,11
 185 427 185 427 185 400 c 256,0,1
124 -14 m 1,12,13
 95 -14 95 -14 79 3 c 128,-1,14
 63 20 63 20 63 47 c 256,15,16
 63 74 63 74 79 91 c 128,-1,17
 95 108 95 108 124 108 c 0,18,19
 157 108 157 108 173.5 84 c 128,-1,20
 190 60 190 60 190 30 c 0,21,22
 190 -27 190 -27 164.5 -72.5 c 128,-1,23
 139 -118 139 -118 75 -160 c 1,24,-1
 57 -136 l 1,25,26
 69 -128 69 -128 83.5 -116 c 128,-1,27
 98 -104 98 -104 110.5 -88 c 128,-1,28
 123 -72 123 -72 131 -52.5 c 128,-1,29
 139 -33 139 -33 139 -11 c 1,30,-1
 124 -14 l 1,12,13
EndSplineSet
EndChar

StartChar: less
Encoding: 60 60 47
Width: 610
Flags: W
LayerCount: 2
Fore
SplineSet
29 370 m 1,0,-1
 549 596 l 1,1,-1
 549 505 l 1,2,-1
 157 335 l 1,3,-1
 549 165 l 1,4,-1
 549 74 l 1,5,-1
 29 300 l 1,6,-1
 29 370 l 1,0,-1
EndSplineSet
EndChar

StartChar: equal
Encoding: 61 61 48
Width: 665
Flags: W
LayerCount: 2
Fore
SplineSet
58 455 m 1,0,-1
 607 455 l 1,1,-1
 607 385 l 1,2,-1
 58 385 l 1,3,-1
 58 455 l 1,0,-1
58 275 m 1,4,-1
 607 275 l 1,5,-1
 607 205 l 1,6,-1
 58 205 l 1,7,-1
 58 275 l 1,4,-1
EndSplineSet
EndChar

StartChar: greater
Encoding: 62 62 49
Width: 610
Flags: W
LayerCount: 2
Fore
SplineSet
581 300 m 1,0,-1
 61 74 l 1,1,-1
 61 165 l 1,2,-1
 453 335 l 1,3,-1
 61 505 l 1,4,-1
 61 596 l 1,5,-1
 581 370 l 1,6,-1
 581 300 l 1,0,-1
EndSplineSet
EndChar

StartChar: question
Encoding: 63 63 50
Width: 498
Flags: W
LayerCount: 2
Fore
SplineSet
225 635 m 0,0,1
 166 635 166 635 122 591.5 c 128,-1,2
 78 548 78 548 59 447 c 1,3,-1
 29 447 l 1,4,5
 29 491 29 491 32 532 c 128,-1,6
 35 573 35 573 55 599 c 1,7,8
 69 615 69 615 90 629.5 c 128,-1,9
 111 644 111 644 137.5 655.5 c 128,-1,10
 164 667 164 667 194 673.5 c 128,-1,11
 224 680 224 680 255 680 c 0,12,13
 301 680 301 680 340 667 c 128,-1,14
 379 654 379 654 407.5 629.5 c 128,-1,15
 436 605 436 605 452.5 569 c 128,-1,16
 469 533 469 533 469 487 c 0,17,18
 469 445 469 445 455 414 c 128,-1,19
 441 383 441 383 420 358.5 c 128,-1,20
 399 334 399 334 374 312.5 c 128,-1,21
 349 291 349 291 327 268 c 128,-1,22
 305 245 305 245 289 218 c 128,-1,23
 273 191 273 191 270 156 c 1,24,-1
 202 156 l 1,25,26
 205 211 205 211 225 249 c 128,-1,27
 245 287 245 287 268 321 c 128,-1,28
 291 355 291 355 310 393 c 128,-1,29
 329 431 329 431 329 487 c 0,30,31
 329 529 329 529 321 557.5 c 128,-1,32
 313 586 313 586 299.5 603.5 c 128,-1,33
 286 621 286 621 266.5 628 c 128,-1,34
 247 635 247 635 225 635 c 0,0,1
297 47 m 256,35,36
 297 20 297 20 281 3 c 128,-1,37
 265 -14 265 -14 236 -14 c 256,38,39
 207 -14 207 -14 191 3 c 128,-1,40
 175 20 175 20 175 47 c 256,41,42
 175 74 175 74 191 91 c 128,-1,43
 207 108 207 108 236 108 c 256,44,45
 265 108 265 108 281 91 c 128,-1,46
 297 74 297 74 297 47 c 256,35,36
EndSplineSet
EndChar

StartChar: at
Encoding: 64 64 51
Width: 877
Flags: W
LayerCount: 2
Fore
SplineSet
414 450 m 0,0,1
 380 450 380 450 352.5 429.5 c 128,-1,2
 325 409 325 409 314 360 c 1,3,-1
 259 360 l 1,4,5
 259 429 259 429 295 465 c 0,6,7
 310 480 310 480 349.5 487.5 c 128,-1,8
 389 495 389 495 434 495 c 0,9,10
 530 495 530 495 582.5 443 c 128,-1,11
 635 391 635 391 635 285 c 2,12,-1
 635 102 l 2,13,14
 635 80 635 80 644.5 65.5 c 128,-1,15
 654 51 654 51 675 51 c 0,16,17
 698 51 698 51 717 61.5 c 128,-1,18
 736 72 736 72 749 97 c 128,-1,19
 762 122 762 122 769 164 c 128,-1,20
 776 206 776 206 776 270 c 0,21,22
 776 359 776 359 752 427.5 c 128,-1,23
 728 496 728 496 683.5 542 c 128,-1,24
 639 588 639 588 577 611.5 c 128,-1,25
 515 635 515 635 440 635 c 256,26,27
 365 635 365 635 303 611 c 128,-1,28
 241 587 241 587 196.5 539 c 128,-1,29
 152 491 152 491 128 419 c 128,-1,30
 104 347 104 347 104 250 c 256,31,32
 104 153 104 153 128 81 c 128,-1,33
 152 9 152 9 196.5 -39 c 128,-1,34
 241 -87 241 -87 303 -111 c 128,-1,35
 365 -135 365 -135 440 -135 c 0,36,37
 535 -135 535 -135 613 -110.5 c 128,-1,38
 691 -86 691 -86 757 -40 c 1,39,-1
 783 -80 l 1,40,41
 720 -124 720 -124 636.5 -152 c 128,-1,42
 553 -180 553 -180 440 -180 c 0,43,44
 350 -180 350 -180 275.5 -152.5 c 128,-1,45
 201 -125 201 -125 147.5 -71 c 128,-1,46
 94 -17 94 -17 64 63.5 c 128,-1,47
 34 144 34 144 34 250 c 256,48,49
 34 356 34 356 64 436.5 c 128,-1,50
 94 517 94 517 147.5 571 c 128,-1,51
 201 625 201 625 275.5 652.5 c 128,-1,52
 350 680 350 680 440 680 c 256,53,54
 530 680 530 680 604.5 653 c 128,-1,55
 679 626 679 626 732.5 573.5 c 128,-1,56
 786 521 786 521 816 444.5 c 128,-1,57
 846 368 846 368 846 270 c 0,58,59
 846 139 846 139 795 72 c 128,-1,60
 744 5 744 5 635 5 c 0,61,62
 622 5 622 5 604.5 6 c 128,-1,63
 587 7 587 7 569 12.5 c 128,-1,64
 551 18 551 18 535 29 c 128,-1,65
 519 40 519 40 510 60 c 1,66,-1
 505 60 l 1,67,68
 495 44 495 44 479 32 c 0,69,70
 465 21 465 21 443.5 13 c 128,-1,71
 422 5 422 5 390 5 c 0,72,73
 307 5 307 5 263.5 42.5 c 128,-1,74
 220 80 220 80 220 140 c 0,75,76
 220 174 220 174 232 201 c 128,-1,77
 244 228 244 228 274.5 247.5 c 128,-1,78
 305 267 305 267 357 277.5 c 128,-1,79
 409 288 409 288 490 288 c 2,80,-1
 505 288 l 1,81,82
 505 337 505 337 498.5 368.5 c 128,-1,83
 492 400 492 400 480 418 c 128,-1,84
 468 436 468 436 451.5 443 c 128,-1,85
 435 450 435 450 414 450 c 0,0,1
505 242 m 1,86,-1
 490 242 l 2,87,88
 449 242 449 242 422 236 c 128,-1,89
 395 230 395 230 379 217.5 c 128,-1,90
 363 205 363 205 356.5 185.5 c 128,-1,91
 350 166 350 166 350 140 c 0,92,93
 350 55 350 55 420 55 c 0,94,95
 443 55 443 55 458.5 65 c 128,-1,96
 474 75 474 75 485 87 c 0,97,98
 497 101 497 101 505 120 c 1,99,-1
 505 242 l 1,86,-1
EndSplineSet
EndChar

StartChar: A
Encoding: 65 65 52
Width: 647
Flags: W
LayerCount: 2
Fore
SplineSet
572 126 m 2,0,1
 590 82 590 82 616 56 c 128,-1,2
 642 30 642 30 676 26 c 1,3,-1
 676 1 l 1,4,5
 668 -1 668 -1 653.5 -2.5 c 128,-1,6
 639 -4 639 -4 628 -4 c 0,7,8
 604 -4 604 -4 576.5 0.5 c 128,-1,9
 549 5 549 5 522.5 18.5 c 128,-1,10
 496 32 496 32 472.5 57.5 c 128,-1,11
 449 83 449 83 431 126 c 2,12,-1
 408 182 l 1,13,-1
 142 182 l 1,14,-1
 60 0 l 1,15,-1
 8 0 l 1,16,-1
 303 660 l 1,17,-1
 348 660 l 1,18,-1
 572 126 l 2,0,1
163 227 m 1,19,-1
 389 227 l 1,20,-1
 279 488 l 1,21,-1
 163 227 l 1,19,-1
EndSplineSet
EndChar

StartChar: B
Encoding: 66 66 53
Width: 644
Flags: W
LayerCount: 2
Fore
SplineSet
285 620 m 0,0,1
 273 620 273 620 262 619 c 128,-1,2
 251 618 251 618 243 616 c 0,3,4
 233 614 233 614 225 613 c 1,5,-1
 225 361 l 1,6,-1
 300 361 l 2,7,8
 361 361 361 361 400.5 390 c 128,-1,9
 440 419 440 419 440 490 c 0,10,11
 440 527 440 527 426.5 552 c 128,-1,12
 413 577 413 577 391.5 592 c 128,-1,13
 370 607 370 607 342 613.5 c 128,-1,14
 314 620 314 620 285 620 c 0,0,1
95 530 m 2,15,16
 95 575 95 575 82.5 602.5 c 128,-1,17
 70 630 70 630 25 630 c 2,18,-1
 15 630 l 1,19,-1
 15 660 l 1,20,-1
 285 660 l 2,21,22
 332 660 332 660 384 655 c 128,-1,23
 436 650 436 650 479.5 632 c 128,-1,24
 523 614 523 614 551.5 579 c 128,-1,25
 580 544 580 544 580 485 c 0,26,27
 580 464 580 464 571.5 442 c 128,-1,28
 563 420 563 420 545.5 400.5 c 128,-1,29
 528 381 528 381 502 365.5 c 128,-1,30
 476 350 476 350 441 341 c 1,31,32
 490 336 490 336 522.5 321.5 c 128,-1,33
 555 307 555 307 574.5 286 c 128,-1,34
 594 265 594 265 602 238.5 c 128,-1,35
 610 212 610 212 610 183 c 0,36,37
 610 126 610 126 584 90 c 128,-1,38
 558 54 558 54 516 34 c 128,-1,39
 474 14 474 14 421 7 c 128,-1,40
 368 0 368 0 315 0 c 2,41,-1
 95 0 l 1,42,-1
 95 530 l 2,15,16
300 40 m 2,43,44
 383 40 383 40 426.5 76 c 128,-1,45
 470 112 470 112 470 178 c 0,46,47
 470 316 470 316 300 316 c 2,48,-1
 225 316 l 1,49,-1
 225 50 l 1,50,51
 234 47 234 47 245 45 c 0,52,53
 265 40 265 40 295 40 c 2,54,-1
 300 40 l 2,43,44
EndSplineSet
EndChar

StartChar: C
Encoding: 67 67 54
Width: 679
Flags: W
LayerCount: 2
Fore
SplineSet
600 447 m 1,0,1
 581 538 581 538 530.5 586.5 c 128,-1,2
 480 635 480 635 397 635 c 0,3,4
 351 635 351 635 311 620 c 128,-1,5
 271 605 271 605 241 568.5 c 128,-1,6
 211 532 211 532 194 471.5 c 128,-1,7
 177 411 177 411 177 320 c 0,8,9
 177 263 177 263 189 209.5 c 128,-1,10
 201 156 201 156 227.5 115 c 128,-1,11
 254 74 254 74 295.5 49.5 c 128,-1,12
 337 25 337 25 397 25 c 0,13,14
 466 25 466 25 525 61.5 c 128,-1,15
 584 98 584 98 620 168 c 1,16,-1
 655 141 l 1,17,18
 608 58 608 58 540 19 c 128,-1,19
 472 -20 472 -20 367 -20 c 0,20,21
 288 -20 288 -20 226.5 6 c 128,-1,22
 165 32 165 32 123 78 c 128,-1,23
 81 124 81 124 59 186 c 128,-1,24
 37 248 37 248 37 320 c 0,25,26
 37 396 37 396 62 461.5 c 128,-1,27
 87 527 87 527 131 575.5 c 128,-1,28
 175 624 175 624 235.5 652 c 128,-1,29
 296 680 296 680 367 680 c 0,30,31
 461 680 461 680 518.5 655.5 c 128,-1,32
 576 631 576 631 604 599 c 1,33,34
 624 573 624 573 627 532 c 128,-1,35
 630 491 630 491 630 447 c 1,36,-1
 600 447 l 1,0,1
EndSplineSet
EndChar

StartChar: D
Encoding: 68 68 55
Width: 736
Flags: W
LayerCount: 2
Fore
SplineSet
300 620 m 2,0,1
 285 620 285 620 271.5 619 c 128,-1,2
 258 618 258 618 247 616 c 0,3,4
 235 614 235 614 225 613 c 1,5,-1
 225 47 l 1,6,7
 235 45 235 45 247 43 c 0,8,9
 268 40 268 40 300 40 c 2,10,-1
 310 40 l 2,11,12
 362 40 362 40 406 60 c 128,-1,13
 450 80 450 80 482 117.5 c 128,-1,14
 514 155 514 155 532 209 c 128,-1,15
 550 263 550 263 550 330 c 0,16,17
 550 396 550 396 532.5 449.5 c 128,-1,18
 515 503 515 503 483 541 c 128,-1,19
 451 579 451 579 406.5 599.5 c 128,-1,20
 362 620 362 620 308 620 c 2,21,-1
 300 620 l 2,0,1
287 660 m 2,22,23
 390 660 390 660 467 637.5 c 128,-1,24
 544 615 544 615 596 573 c 128,-1,25
 648 531 648 531 674 470.5 c 128,-1,26
 700 410 700 410 700 334 c 0,27,28
 700 260 700 260 675 198.5 c 128,-1,29
 650 137 650 137 601 93 c 128,-1,30
 552 49 552 49 479.5 24.5 c 128,-1,31
 407 0 407 0 313 0 c 2,32,-1
 95 0 l 1,33,-1
 95 530 l 2,34,35
 95 575 95 575 82.5 602.5 c 128,-1,36
 70 630 70 630 25 630 c 2,37,-1
 15 630 l 1,38,-1
 15 660 l 1,39,-1
 287 660 l 2,22,23
EndSplineSet
EndChar

StartChar: E
Encoding: 69 69 56
Width: 600
Flags: W
LayerCount: 2
Fore
SplineSet
456 660 m 2,0,1
 482 660 482 660 498.5 653 c 128,-1,2
 515 646 515 646 524.5 635 c 128,-1,3
 534 624 534 624 537.5 609.5 c 128,-1,4
 541 595 541 595 541 580 c 2,5,-1
 541 495 l 1,6,-1
 511 495 l 1,7,8
 511 559 511 559 478.5 587 c 128,-1,9
 446 615 446 615 386 615 c 2,10,-1
 225 615 l 1,11,-1
 225 365 l 1,12,-1
 485 365 l 1,13,-1
 485 320 l 1,14,-1
 225 320 l 1,15,-1
 225 45 l 1,16,-1
 396 45 l 2,17,18
 451 45 451 45 489.5 69.5 c 128,-1,19
 528 94 528 94 554 159 c 1,20,-1
 581 149 l 1,21,-1
 552 70 l 2,22,23
 541 38 541 38 523.5 19 c 128,-1,24
 506 0 506 0 465 0 c 2,25,-1
 95 0 l 1,26,-1
 95 530 l 2,27,28
 95 575 95 575 82.5 602.5 c 128,-1,29
 70 630 70 630 25 630 c 2,30,-1
 15 630 l 1,31,-1
 15 660 l 1,32,-1
 456 660 l 2,0,1
EndSplineSet
EndChar

StartChar: F
Encoding: 70 70 57
Width: 539
Flags: W
LayerCount: 2
Fore
SplineSet
434 660 m 2,0,1
 460 660 460 660 476.5 653 c 128,-1,2
 493 646 493 646 502.5 635 c 128,-1,3
 512 624 512 624 515.5 609.5 c 128,-1,4
 519 595 519 595 519 580 c 2,5,-1
 519 495 l 1,6,-1
 489 495 l 1,7,8
 489 560 489 560 456.5 587.5 c 128,-1,9
 424 615 424 615 364 615 c 2,10,-1
 225 615 l 1,11,-1
 225 360 l 1,12,-1
 445 360 l 1,13,-1
 445 315 l 1,14,-1
 225 315 l 1,15,-1
 225 0 l 1,16,-1
 95 0 l 1,17,-1
 95 530 l 2,18,19
 95 575 95 575 82.5 602.5 c 128,-1,20
 70 630 70 630 25 630 c 2,21,-1
 15 630 l 1,22,-1
 15 660 l 1,23,-1
 434 660 l 2,0,1
EndSplineSet
EndChar

StartChar: G
Encoding: 71 71 58
Width: 734
Flags: W
LayerCount: 2
Fore
SplineSet
660 47 m 1,0,1
 602 12 602 12 537 -4 c 128,-1,2
 472 -20 472 -20 395 -20 c 0,3,4
 317 -20 317 -20 251 8 c 128,-1,5
 185 36 185 36 137 84.5 c 128,-1,6
 89 133 89 133 62 198.5 c 128,-1,7
 35 264 35 264 35 340 c 0,8,9
 35 412 35 412 58.5 474 c 128,-1,10
 82 536 82 536 125.5 582 c 128,-1,11
 169 628 169 628 229.5 654 c 128,-1,12
 290 680 290 680 365 680 c 0,13,14
 459 680 459 680 519 655.5 c 128,-1,15
 579 631 579 631 607 599 c 1,16,17
 617 586 617 586 622 569 c 128,-1,18
 627 552 627 552 629.5 533.5 c 128,-1,19
 632 515 632 515 632.5 496 c 128,-1,20
 633 477 633 477 633 460 c 1,21,-1
 603 460 l 1,22,23
 584 552 584 552 533 593.5 c 128,-1,24
 482 635 482 635 395 635 c 0,25,26
 335 635 335 635 293.5 610.5 c 128,-1,27
 252 586 252 586 225.5 545 c 128,-1,28
 199 504 199 504 187 450.5 c 128,-1,29
 175 397 175 397 175 340 c 0,30,31
 175 249 175 249 192 187.5 c 128,-1,32
 209 126 209 126 239 89 c 128,-1,33
 269 52 269 52 309 36 c 128,-1,34
 349 20 349 20 395 20 c 0,35,36
 440 20 440 20 472 27 c 128,-1,37
 504 34 504 34 530 46 c 1,38,-1
 530 224 l 2,39,40
 530 245 530 245 536.5 266.5 c 128,-1,41
 543 288 543 288 563.5 305.5 c 128,-1,42
 584 323 584 323 622 334.5 c 128,-1,43
 660 346 660 346 724 346 c 1,44,-1
 724 321 l 1,45,46
 690 321 690 321 675 296 c 128,-1,47
 660 271 660 271 660 226 c 2,48,-1
 660 47 l 1,0,1
EndSplineSet
EndChar

StartChar: H
Encoding: 72 72 59
Width: 720
Flags: W
LayerCount: 2
Fore
SplineSet
495 660 m 1,0,-1
 625 660 l 1,1,-1
 625 130 l 2,2,3
 625 85 625 85 637.5 57.5 c 128,-1,4
 650 30 650 30 695 30 c 2,5,-1
 705 30 l 1,6,-1
 705 0 l 1,7,-1
 585 0 l 2,8,9
 559 0 559 0 541.5 6 c 128,-1,10
 524 12 524 12 513.5 27 c 128,-1,11
 503 42 503 42 499 67 c 128,-1,12
 495 92 495 92 495 130 c 2,13,-1
 495 320 l 1,14,-1
 225 320 l 1,15,-1
 225 0 l 1,16,-1
 95 0 l 1,17,-1
 95 530 l 2,18,19
 95 575 95 575 82.5 602.5 c 128,-1,20
 70 630 70 630 25 630 c 2,21,-1
 15 630 l 1,22,-1
 15 660 l 1,23,-1
 135 660 l 2,24,25
 161 660 161 660 178.5 653.5 c 128,-1,26
 196 647 196 647 206.5 632 c 128,-1,27
 217 617 217 617 221 592 c 128,-1,28
 225 567 225 567 225 530 c 2,29,-1
 225 365 l 1,30,-1
 495 365 l 1,31,-1
 495 660 l 1,0,-1
EndSplineSet
EndChar

StartChar: I
Encoding: 73 73 60
Width: 304
Flags: W
LayerCount: 2
Fore
SplineSet
79 660 m 1,0,-1
 209 660 l 1,1,-1
 209 130 l 2,2,3
 209 85 209 85 221.5 57.5 c 128,-1,4
 234 30 234 30 279 30 c 2,5,-1
 289 30 l 1,6,-1
 289 0 l 1,7,-1
 169 0 l 2,8,9
 143 0 143 0 125.5 6 c 128,-1,10
 108 12 108 12 97.5 27 c 128,-1,11
 87 42 87 42 83 67 c 128,-1,12
 79 92 79 92 79 130 c 2,13,-1
 79 660 l 1,0,-1
EndSplineSet
EndChar

StartChar: J
Encoding: 74 74 61
Width: 278
Flags: W
LayerCount: 2
Fore
SplineSet
204 83 m 2,0,1
 204 18 204 18 194.5 -24 c 128,-1,2
 185 -66 185 -66 160 -91.5 c 128,-1,3
 135 -117 135 -117 91.5 -127 c 128,-1,4
 48 -137 48 -137 -19 -137 c 1,5,-1
 -19 -107 l 1,6,7
 3 -104 3 -104 20.5 -94 c 128,-1,8
 38 -84 38 -84 50 -62.5 c 128,-1,9
 62 -41 62 -41 68 -5.5 c 128,-1,10
 74 30 74 30 74 83 c 2,11,-1
 74 660 l 1,12,-1
 204 660 l 1,13,-1
 204 83 l 2,0,1
EndSplineSet
EndChar

StartChar: K
Encoding: 75 75 62
Width: 693
Flags: W
LayerCount: 2
Fore
SplineSet
95 530 m 2,0,1
 95 575 95 575 82.5 602.5 c 128,-1,2
 70 630 70 630 25 630 c 2,3,-1
 15 630 l 1,4,-1
 15 660 l 1,5,-1
 135 660 l 2,6,7
 161 660 161 660 178.5 653.5 c 128,-1,8
 196 647 196 647 206.5 632 c 128,-1,9
 217 617 217 617 221.5 592 c 128,-1,10
 226 567 226 567 226 530 c 2,11,-1
 226 340 l 1,12,-1
 399 555 l 2,13,14
 415 576 415 576 433.5 595 c 128,-1,15
 452 614 452 614 474 628.5 c 128,-1,16
 496 643 496 643 521 651.5 c 128,-1,17
 546 660 546 660 576 660 c 2,18,-1
 646 660 l 1,19,-1
 646 625 l 1,20,21
 589 625 589 625 543 610.5 c 128,-1,22
 497 596 497 596 463 554 c 2,23,-1
 314 370 l 1,24,-1
 545 130 l 2,25,26
 564 109 564 109 586 91 c 128,-1,27
 608 73 608 73 629 58.5 c 128,-1,28
 650 44 650 44 669.5 35 c 128,-1,29
 689 26 689 26 704 24 c 1,30,-1
 704 0 l 1,31,32
 693 -4 693 -4 673.5 -7 c 128,-1,33
 654 -10 654 -10 631 -10 c 0,34,35
 603 -10 603 -10 575 -5.5 c 128,-1,36
 547 -1 547 -1 517 12.5 c 128,-1,37
 487 26 487 26 455 49 c 128,-1,38
 423 72 423 72 387 110 c 2,39,-1
 226 278 l 1,40,-1
 226 0 l 1,41,-1
 96 0 l 1,42,-1
 95 530 l 2,0,1
EndSplineSet
EndChar

StartChar: L
Encoding: 76 76 63
Width: 570
Flags: W
LayerCount: 2
Fore
SplineSet
570 45 m 1,0,-1
 570 0 l 1,1,-1
 95 0 l 1,2,-1
 95 530 l 2,3,4
 95 575 95 575 82.5 602.5 c 128,-1,5
 70 630 70 630 25 630 c 2,6,-1
 15 630 l 1,7,-1
 15 660 l 1,8,-1
 135 660 l 2,9,10
 161 660 161 660 178.5 653.5 c 128,-1,11
 196 647 196 647 206.5 632 c 128,-1,12
 217 617 217 617 221 592 c 128,-1,13
 225 567 225 567 225 530 c 2,14,-1
 225 45 l 1,15,-1
 570 45 l 1,0,-1
EndSplineSet
EndChar

StartChar: M
Encoding: 77 77 64
Width: 867
Flags: W
LayerCount: 2
Fore
SplineSet
774 170 m 2,0,1
 774 79 774 79 789.5 33.5 c 128,-1,2
 805 -12 805 -12 847 -20 c 1,3,-1
 847 -45 l 1,4,5
 738 -45 738 -45 691 6 c 128,-1,6
 644 57 644 57 644 170 c 2,7,-1
 644 524 l 1,8,-1
 425 0 l 1,9,-1
 392 0 l 1,10,-1
 124 544 l 1,11,-1
 124 0 l 1,12,-1
 74 0 l 1,13,-1
 74 660 l 1,14,-1
 196 660 l 1,15,-1
 438 169 l 1,16,-1
 643 660 l 1,17,-1
 774 660 l 1,18,-1
 774 170 l 2,0,1
EndSplineSet
EndChar

StartChar: N
Encoding: 78 78 65
Width: 692
Flags: W
LayerCount: 2
Fore
SplineSet
568 200 m 1,0,-1
 568 660 l 1,1,-1
 618 660 l 1,2,-1
 618 -3 l 1,3,-1
 572 -3 l 1,4,-1
 148 495 l 1,5,-1
 148 0 l 1,6,-1
 98 0 l 1,7,-1
 98 540 l 2,8,9
 98 559 98 559 94 575.5 c 128,-1,10
 90 592 90 592 79.5 604 c 128,-1,11
 69 616 69 616 51.5 623 c 128,-1,12
 34 630 34 630 8 630 c 2,13,-1
 3 630 l 1,14,-1
 3 660 l 1,15,-1
 73 660 l 2,16,17
 130 660 130 660 165.5 645 c 128,-1,18
 201 630 201 630 224 600 c 1,19,-1
 568 200 l 1,0,-1
EndSplineSet
EndChar

StartChar: O
Encoding: 79 79 66
Width: 733
Flags: W
LayerCount: 2
Fore
SplineSet
558 330 m 256,0,1
 558 476 558 476 508 555.5 c 128,-1,2
 458 635 458 635 367 635 c 256,3,4
 276 635 276 635 226.5 555.5 c 128,-1,5
 177 476 177 476 177 330 c 256,6,7
 177 184 177 184 226.5 104.5 c 128,-1,8
 276 25 276 25 367 25 c 256,9,10
 458 25 458 25 508 104.5 c 128,-1,11
 558 184 558 184 558 330 c 256,0,1
37 330 m 256,12,13
 37 404 37 404 60.5 468 c 128,-1,14
 84 532 84 532 127.5 579 c 128,-1,15
 171 626 171 626 231.5 653 c 128,-1,16
 292 680 292 680 367 680 c 256,17,18
 442 680 442 680 502.5 653 c 128,-1,19
 563 626 563 626 606 579 c 128,-1,20
 649 532 649 532 672.5 468 c 128,-1,21
 696 404 696 404 696 330 c 256,22,23
 696 256 696 256 672.5 192 c 128,-1,24
 649 128 649 128 606 81 c 128,-1,25
 563 34 563 34 502.5 7 c 128,-1,26
 442 -20 442 -20 367 -20 c 256,27,28
 292 -20 292 -20 231.5 7 c 128,-1,29
 171 34 171 34 127.5 81 c 128,-1,30
 84 128 84 128 60.5 192 c 128,-1,31
 37 256 37 256 37 330 c 256,12,13
EndSplineSet
EndChar

StartChar: P
Encoding: 80 80 67
Width: 577
Flags: W
LayerCount: 2
Fore
SplineSet
290 620 m 0,0,1
 278 620 278 620 266 619 c 128,-1,2
 254 618 254 618 245 616 c 0,3,4
 234 614 234 614 225 613 c 1,5,-1
 225 307 l 1,6,-1
 285 307 l 2,7,8
 310 307 310 307 334.5 314 c 128,-1,9
 359 321 359 321 378 339 c 128,-1,10
 397 357 397 357 408.5 387.5 c 128,-1,11
 420 418 420 418 420 464 c 256,12,13
 420 510 420 510 408.5 540 c 128,-1,14
 397 570 397 570 378.5 588 c 128,-1,15
 360 606 360 606 337 613 c 128,-1,16
 314 620 314 620 290 620 c 0,0,1
290 660 m 2,17,18
 312 660 312 660 341 658 c 128,-1,19
 370 656 370 656 400 648.5 c 128,-1,20
 430 641 430 641 458.5 628 c 128,-1,21
 487 615 487 615 510 592.5 c 128,-1,22
 533 570 533 570 546.5 537.5 c 128,-1,23
 560 505 560 505 560 459 c 0,24,25
 560 416 560 416 546.5 385 c 128,-1,26
 533 354 533 354 511 332.5 c 128,-1,27
 489 311 489 311 462 298 c 128,-1,28
 435 285 435 285 408.5 278 c 128,-1,29
 382 271 382 271 358.5 269 c 128,-1,30
 335 267 335 267 320 267 c 2,31,-1
 225 267 l 1,32,-1
 225 0 l 1,33,-1
 95 0 l 1,34,-1
 95 530 l 2,35,36
 95 575 95 575 82.5 602.5 c 128,-1,37
 70 630 70 630 25 630 c 2,38,-1
 15 630 l 1,39,-1
 15 660 l 1,40,-1
 290 660 l 2,17,18
EndSplineSet
EndChar

StartChar: Q
Encoding: 81 81 68
Width: 735
Flags: W
LayerCount: 2
Fore
SplineSet
38 330 m 0,0,1
 38 404 38 404 61.5 468 c 128,-1,2
 85 532 85 532 128.5 579 c 128,-1,3
 172 626 172 626 232.5 653 c 128,-1,4
 293 680 293 680 368 680 c 256,5,6
 443 680 443 680 503.5 653 c 128,-1,7
 564 626 564 626 607 579 c 128,-1,8
 650 532 650 532 673.5 468 c 128,-1,9
 697 404 697 404 697 330 c 0,10,11
 697 268 697 268 680.5 213 c 128,-1,12
 664 158 664 158 634 114 c 128,-1,13
 604 70 604 70 560.5 39 c 128,-1,14
 517 8 517 8 463 -7 c 1,15,16
 476 -43 476 -43 501.5 -74.5 c 128,-1,17
 527 -106 527 -106 559.5 -129.5 c 128,-1,18
 592 -153 592 -153 627 -166 c 128,-1,19
 662 -179 662 -179 693 -179 c 1,20,-1
 693 -205 l 1,21,22
 636 -205 636 -205 579 -194.5 c 128,-1,23
 522 -184 522 -184 467 -160 c 128,-1,24
 412 -136 412 -136 361 -98 c 128,-1,25
 310 -60 310 -60 264 -4 c 1,26,27
 212 12 212 12 170 43.5 c 128,-1,28
 128 75 128 75 99 118.5 c 128,-1,29
 70 162 70 162 54 216 c 128,-1,30
 38 270 38 270 38 330 c 0,0,1
559 330 m 256,31,32
 559 476 559 476 509 555.5 c 128,-1,33
 459 635 459 635 368 635 c 256,34,35
 277 635 277 635 227.5 555.5 c 128,-1,36
 178 476 178 476 178 330 c 256,37,38
 178 184 178 184 227.5 104.5 c 128,-1,39
 277 25 277 25 368 25 c 256,40,41
 459 25 459 25 509 104.5 c 128,-1,42
 559 184 559 184 559 330 c 256,31,32
EndSplineSet
EndChar

StartChar: R
Encoding: 82 82 69
Width: 616
Flags: W
LayerCount: 2
Fore
SplineSet
291 620 m 0,0,1
 279 620 279 620 267 619 c 128,-1,2
 255 618 255 618 246 616 c 0,3,4
 235 614 235 614 226 613 c 1,5,-1
 226 342 l 1,6,-1
 286 342 l 2,7,8
 310 342 310 342 334 349 c 128,-1,9
 358 356 358 356 377.5 372 c 128,-1,10
 397 388 397 388 409 415 c 128,-1,11
 421 442 421 442 421 481 c 256,12,13
 421 520 421 520 409 546.5 c 128,-1,14
 397 573 397 573 378 589.5 c 128,-1,15
 359 606 359 606 336 613 c 128,-1,16
 313 620 313 620 291 620 c 0,0,1
266 302 m 1,17,-1
 226 302 l 1,18,-1
 226 0 l 1,19,-1
 95 0 l 1,20,-1
 95 530 l 2,21,22
 95 575 95 575 82.5 602.5 c 128,-1,23
 70 630 70 630 25 630 c 2,24,-1
 15 630 l 1,25,-1
 15 660 l 1,26,-1
 291 660 l 2,27,28
 315 660 315 660 344 658 c 128,-1,29
 373 656 373 656 403 649 c 128,-1,30
 433 642 433 642 461.5 629.5 c 128,-1,31
 490 617 490 617 512 596.5 c 128,-1,32
 534 576 534 576 547.5 546.5 c 128,-1,33
 561 517 561 517 561 476 c 0,34,35
 561 437 561 437 546.5 408.5 c 128,-1,36
 532 380 532 380 508.5 360.5 c 128,-1,37
 485 341 485 341 456 329 c 128,-1,38
 427 317 427 317 399 310 c 1,39,-1
 504 135 l 2,40,41
 523 103 523 103 540.5 82.5 c 128,-1,42
 558 62 558 62 574 50 c 128,-1,43
 590 38 590 38 603.5 32.5 c 128,-1,44
 617 27 617 27 628 25 c 1,45,-1
 628 0 l 1,46,47
 620 -4 620 -4 599.5 -7 c 128,-1,48
 579 -10 579 -10 560 -10 c 0,49,50
 534 -10 534 -10 509.5 -3 c 128,-1,51
 485 4 485 4 461.5 21 c 128,-1,52
 438 38 438 38 414.5 66 c 128,-1,53
 391 94 391 94 366 135 c 2,54,-1
 266 302 l 1,17,-1
EndSplineSet
EndChar

StartChar: S
Encoding: 83 83 70
Width: 561
Flags: W
LayerCount: 2
Fore
SplineSet
273 -17 m 0,0,1
 232 -17 232 -17 191.5 -9 c 128,-1,2
 151 -1 151 -1 119 14.5 c 128,-1,3
 87 30 87 30 67 52.5 c 128,-1,4
 47 75 47 75 47 103 c 2,5,-1
 47 220 l 1,6,-1
 75 220 l 1,7,8
 91 116 91 116 139.5 72 c 128,-1,9
 188 28 188 28 272 28 c 0,10,11
 329 28 329 28 363.5 52.5 c 128,-1,12
 398 77 398 77 398 125 c 0,13,14
 398 168 398 168 370.5 196.5 c 128,-1,15
 343 225 343 225 295 254 c 2,16,-1
 172 328 l 2,17,18
 104 368 104 368 76 410 c 128,-1,19
 48 452 48 452 48 507 c 0,20,21
 48 586 48 586 108.5 632 c 128,-1,22
 169 678 169 678 272 678 c 0,23,24
 313 678 313 678 353.5 670 c 128,-1,25
 394 662 394 662 426 646.5 c 128,-1,26
 458 631 458 631 478 608.5 c 128,-1,27
 498 586 498 586 498 558 c 2,28,-1
 498 441 l 1,29,-1
 470 441 l 1,30,31
 453 545 453 545 406 589 c 128,-1,32
 359 633 359 633 283 633 c 0,33,34
 229 633 229 633 197.5 607 c 128,-1,35
 166 581 166 581 166 536 c 0,36,37
 166 515 166 515 173.5 498.5 c 128,-1,38
 181 482 181 482 194.5 468 c 128,-1,39
 208 454 208 454 227 441 c 128,-1,40
 246 428 246 428 270 414 c 2,41,-1
 393 341 l 2,42,43
 461 301 461 301 492.5 262.5 c 128,-1,44
 524 224 524 224 524 169 c 0,45,46
 524 83 524 83 459 33 c 128,-1,47
 394 -17 394 -17 273 -17 c 0,0,1
EndSplineSet
EndChar

StartChar: T
Encoding: 84 84 71
Width: 575
Flags: W
LayerCount: 2
Fore
SplineSet
571 660 m 1,0,-1
 571 615 l 1,1,-1
 362 615 l 1,2,-1
 362 0 l 1,3,-1
 232 0 l 1,4,-1
 232 615 l 1,5,-1
 161 615 l 2,6,7
 108 615 108 615 77 588.5 c 128,-1,8
 46 562 46 562 46 495 c 1,9,-1
 16 495 l 1,10,-1
 16 580 l 2,11,12
 16 595 16 595 19.5 609.5 c 128,-1,13
 23 624 23 624 32.5 635 c 128,-1,14
 42 646 42 646 58.5 653 c 128,-1,15
 75 660 75 660 101 660 c 2,16,-1
 571 660 l 1,0,-1
EndSplineSet
EndChar

StartChar: U
Encoding: 85 85 72
Width: 695
Flags: W
LayerCount: 2
Fore
SplineSet
224 258 m 2,0,1
 225 150 225 150 260 90 c 128,-1,2
 295 30 295 30 375 30 c 0,3,4
 430 30 430 30 469 45.5 c 128,-1,5
 508 61 508 61 532 92.5 c 128,-1,6
 556 124 556 124 567 172.5 c 128,-1,7
 578 221 578 221 578 288 c 2,8,-1
 578 660 l 1,9,-1
 628 660 l 1,10,-1
 628 288 l 2,11,12
 628 217 628 217 614.5 162 c 128,-1,13
 601 107 601 107 570.5 68.5 c 128,-1,14
 540 30 540 30 489 10 c 128,-1,15
 438 -10 438 -10 363 -10 c 0,16,17
 220 -10 220 -10 156.5 64.5 c 128,-1,18
 93 139 93 139 93 288 c 2,19,-1
 93 530 l 2,20,21
 93 575 93 575 80.5 602.5 c 128,-1,22
 68 630 68 630 23 630 c 1,23,-1
 23 660 l 1,24,-1
 133 660 l 2,25,26
 159 660 159 660 176.5 653.5 c 128,-1,27
 194 647 194 647 204.5 632 c 128,-1,28
 215 617 215 617 219 592 c 128,-1,29
 223 567 223 567 223 530 c 2,30,-1
 224 258 l 2,0,1
EndSplineSet
EndChar

StartChar: V
Encoding: 86 86 73
Width: 635
Flags: W
LayerCount: 2
Fore
SplineSet
66 543 m 2,0,1
 42 599 42 599 19.5 621.5 c 128,-1,2
 -3 644 -3 644 -33 648 c 1,3,-1
 -33 668 l 1,4,5
 -29 668 -29 668 -13.5 669 c 128,-1,6
 2 670 2 670 9 670 c 0,7,8
 35 670 35 670 62.5 666 c 128,-1,9
 90 662 90 662 116 649 c 128,-1,10
 142 636 142 636 165.5 611 c 128,-1,11
 189 586 189 586 207 543 c 2,12,-1
 365 169 l 1,13,-1
 576 660 l 1,14,-1
 627 660 l 1,15,-1
 339 -10 l 1,16,-1
 299 -10 l 1,17,-1
 66 543 l 2,0,1
EndSplineSet
EndChar

StartChar: W
Encoding: 87 87 74
Width: 906
Flags: W
LayerCount: 2
Fore
SplineSet
666 179 m 1,0,-1
 837 660 l 1,1,-1
 885 660 l 1,2,-1
 648 -9 l 1,3,-1
 608 -9 l 1,4,-1
 454 383 l 1,5,-1
 317 -9 l 1,6,-1
 277 -9 l 1,7,-1
 61 543 l 2,8,9
 38 600 38 600 15 622 c 128,-1,10
 -8 644 -8 644 -38 648 c 1,11,-1
 -38 668 l 1,12,13
 -34 668 -34 668 -18.5 669 c 128,-1,14
 -3 670 -3 670 4 670 c 0,15,16
 30 670 30 670 58 666.5 c 128,-1,17
 86 663 86 663 112 650 c 128,-1,18
 138 637 138 637 161.5 611.5 c 128,-1,19
 185 586 185 586 202 543 c 2,20,-1
 337 198 l 1,21,-1
 427 454 l 1,22,-1
 392 543 l 2,23,24
 369 600 369 600 342.5 622 c 128,-1,25
 316 644 316 644 286 648 c 1,26,-1
 286 668 l 1,27,28
 290 668 290 668 304 669 c 128,-1,29
 318 670 318 670 325 670 c 0,30,31
 351 670 351 670 379 666.5 c 128,-1,32
 407 663 407 663 433.5 650 c 128,-1,33
 460 637 460 637 483 611.5 c 128,-1,34
 506 586 506 586 523 543 c 2,35,-1
 666 179 l 1,0,-1
EndSplineSet
EndChar

StartChar: X
Encoding: 88 88 75
Width: 647
Flags: W
LayerCount: 2
Fore
SplineSet
347 416 m 1,0,-1
 540 660 l 1,1,-1
 605 660 l 1,2,-1
 376 371 l 1,3,-1
 533 130 l 2,4,5
 545 111 545 111 561.5 92 c 128,-1,6
 578 73 578 73 595.5 57.5 c 128,-1,7
 613 42 613 42 631.5 32 c 128,-1,8
 650 22 650 22 667 20 c 1,9,-1
 667 0 l 1,10,-1
 557 0 l 2,11,12
 529 0 529 0 504.5 10 c 128,-1,13
 480 20 480 20 459.5 36 c 128,-1,14
 439 52 439 52 422.5 71.5 c 128,-1,15
 406 91 406 91 394 110 c 2,16,-1
 293 266 l 1,17,-1
 82 0 l 1,18,-1
 17 0 l 1,19,-1
 263 311 l 1,20,-1
 121 530 l 2,21,22
 109 549 109 549 92.5 568 c 128,-1,23
 76 587 76 587 58.5 602.5 c 128,-1,24
 41 618 41 618 22.5 628 c 128,-1,25
 4 638 4 638 -13 640 c 1,26,-1
 -13 660 l 1,27,-1
 97 660 l 2,28,29
 125 660 125 660 149.5 650 c 128,-1,30
 174 640 174 640 194.5 624 c 128,-1,31
 215 608 215 608 231.5 588.5 c 128,-1,32
 248 569 248 569 260 550 c 2,33,-1
 347 416 l 1,0,-1
EndSplineSet
EndChar

StartChar: Y
Encoding: 89 89 76
Width: 638
Flags: W
LayerCount: 2
Fore
SplineSet
377 345 m 1,0,-1
 571 660 l 1,1,-1
 636 660 l 1,2,-1
 409 291 l 1,3,-1
 409 0 l 1,4,-1
 279 0 l 1,5,-1
 279 264 l 1,6,-1
 102 530 l 2,7,8
 89 549 89 549 73 568 c 128,-1,9
 57 587 57 587 39.5 602.5 c 128,-1,10
 22 618 22 618 4 628 c 128,-1,11
 -14 638 -14 638 -31 640 c 1,12,-1
 -31 660 l 1,13,-1
 78 660 l 2,14,15
 106 660 106 660 130.5 650 c 128,-1,16
 155 640 155 640 175.5 624 c 128,-1,17
 196 608 196 608 212.5 588.5 c 128,-1,18
 229 569 229 569 241 550 c 2,19,-1
 377 345 l 1,0,-1
EndSplineSet
EndChar

StartChar: Z
Encoding: 90 90 77
Width: 599
Flags: W
LayerCount: 2
Fore
SplineSet
581 660 m 1,0,-1
 189 45 l 1,1,-1
 576 45 l 1,2,-1
 576 0 l 1,3,-1
 31 0 l 1,4,-1
 31 32 l 1,5,-1
 403 616 l 1,6,-1
 186 616 l 2,7,8
 133 616 133 616 102 589 c 128,-1,9
 71 562 71 562 71 495 c 1,10,-1
 41 495 l 1,11,-1
 41 580 l 2,12,13
 41 595 41 595 44.5 609.5 c 128,-1,14
 48 624 48 624 57.5 635 c 128,-1,15
 67 646 67 646 83.5 653 c 128,-1,16
 100 660 100 660 126 660 c 2,17,-1
 581 660 l 1,0,-1
EndSplineSet
EndChar

StartChar: bracketleft
Encoding: 91 91 78
Width: 331
Flags: W
LayerCount: 2
Fore
SplineSet
311 -200 m 1,0,-1
 66 -200 l 1,1,-1
 66 680 l 1,2,-1
 311 680 l 1,3,-1
 311 635 l 1,4,-1
 186 635 l 1,5,-1
 186 -155 l 1,6,-1
 311 -155 l 1,7,-1
 311 -200 l 1,0,-1
EndSplineSet
EndChar

StartChar: backslash
Encoding: 92 92 79
Width: 475
Flags: W
LayerCount: 2
Fore
SplineSet
342 0 m 1,0,-1
 21 660 l 1,1,-1
 133 660 l 1,2,-1
 454 0 l 1,3,-1
 342 0 l 1,0,-1
EndSplineSet
EndChar

StartChar: bracketright
Encoding: 93 93 80
Width: 331
Flags: W
LayerCount: 2
Fore
SplineSet
20 -155 m 1,0,-1
 145 -155 l 1,1,-1
 145 635 l 1,2,-1
 20 635 l 1,3,-1
 20 680 l 1,4,-1
 265 680 l 1,5,-1
 265 -200 l 1,6,-1
 20 -200 l 1,7,-1
 20 -155 l 1,0,-1
EndSplineSet
EndChar

StartChar: asciicircum
Encoding: 94 94 81
Width: 514
Flags: W
LayerCount: 2
Fore
SplineSet
279 680 m 1,0,-1
 494 330 l 1,1,-1
 396 330 l 1,2,-1
 257 557 l 1,3,-1
 118 330 l 1,4,-1
 20 330 l 1,5,-1
 235 680 l 1,6,-1
 279 680 l 1,0,-1
EndSplineSet
EndChar

StartChar: underscore
Encoding: 95 95 82
Width: 436
Flags: W
LayerCount: 2
Fore
SplineSet
428 -70 m 1,0,-1
 8 -70 l 1,1,-1
 8 0 l 1,2,-1
 428 0 l 1,3,-1
 428 -70 l 1,0,-1
EndSplineSet
EndChar

StartChar: grave
Encoding: 96 96 83
Width: 227
Flags: W
LayerCount: 2
Fore
SplineSet
20 680 m 1,0,-1
 145 680 l 1,1,-1
 207 477 l 1,2,-1
 133 477 l 1,3,-1
 20 680 l 1,0,-1
EndSplineSet
EndChar

StartChar: a
Encoding: 97 97 84
Width: 496
Flags: W
LayerCount: 2
Fore
SplineSet
314 230 m 1,0,-1
 299 230 l 2,1,2
 227 230 227 230 195.5 204 c 128,-1,3
 164 178 164 178 164 125 c 0,4,5
 164 83 164 83 181.5 61.5 c 128,-1,6
 199 40 199 40 229 40 c 0,7,8
 252 40 252 40 267.5 50 c 128,-1,9
 283 60 283 60 294 72 c 0,10,11
 306 86 306 86 314 105 c 1,12,-1
 314 230 l 1,0,-1
239 480 m 0,13,14
 337 480 337 480 390.5 428 c 128,-1,15
 444 376 444 376 444 270 c 2,16,-1
 444 0 l 1,17,-1
 359 0 l 1,18,-1
 324 45 l 1,19,-1
 319 45 l 1,20,21
 308 29 308 29 291 17 c 0,22,23
 277 6 277 6 254 -2 c 128,-1,24
 231 -10 231 -10 199 -10 c 0,25,26
 116 -10 116 -10 72.5 27.5 c 128,-1,27
 29 65 29 65 29 125 c 0,28,29
 29 161 29 161 41 188.5 c 128,-1,30
 53 216 53 216 83.5 235.5 c 128,-1,31
 114 255 114 255 166 265 c 128,-1,32
 218 275 218 275 299 275 c 2,33,-1
 314 275 l 1,34,35
 314 365 314 365 289 400 c 128,-1,36
 264 435 264 435 219 435 c 0,37,38
 202 435 202 435 186.5 431.5 c 128,-1,39
 171 428 171 428 158 418 c 128,-1,40
 145 408 145 408 135 390.5 c 128,-1,41
 125 373 125 373 119 345 c 1,42,-1
 64 345 l 1,43,44
 64 371 64 371 67.5 398 c 128,-1,45
 71 425 71 425 89 445 c 256,46,47
 107 465 107 465 148.5 472.5 c 128,-1,48
 190 480 190 480 239 480 c 0,13,14
EndSplineSet
EndChar

StartChar: b
Encoding: 98 98 85
Width: 547
Flags: W
LayerCount: 2
Fore
SplineSet
190 100 m 1,0,1
 199 81 199 81 212 67 c 0,2,3
 223 55 223 55 240 45 c 128,-1,4
 257 35 257 35 280 35 c 0,5,6
 306 35 306 35 324 50 c 128,-1,7
 342 65 342 65 353.5 92 c 128,-1,8
 365 119 365 119 370 155.5 c 128,-1,9
 375 192 375 192 375 235 c 256,10,11
 375 278 375 278 370 314.5 c 128,-1,12
 365 351 365 351 353 378 c 128,-1,13
 341 405 341 405 322 420 c 128,-1,14
 303 435 303 435 275 435 c 0,15,16
 256 435 256 435 240.5 430 c 128,-1,17
 225 425 225 425 214 420 c 0,18,19
 201 413 201 413 190 405 c 1,20,-1
 190 100 l 1,0,1
60 530 m 2,21,22
 60 575 60 575 47.5 602.5 c 128,-1,23
 35 630 35 630 -10 630 c 2,24,-1
 -20 630 l 1,25,-1
 -20 660 l 1,26,-1
 100 660 l 2,27,28
 126 660 126 660 143.5 653.5 c 128,-1,29
 161 647 161 647 171.5 632 c 128,-1,30
 182 617 182 617 186 592 c 128,-1,31
 190 567 190 567 190 530 c 2,32,-1
 190 450 l 1,33,34
 202 458 202 458 218 465 c 1,35,36
 232 470 232 470 251 475 c 128,-1,37
 270 480 270 480 295 480 c 0,38,39
 349 480 349 480 389.5 461 c 128,-1,40
 430 442 430 442 457 409 c 128,-1,41
 484 376 484 376 497 331 c 128,-1,42
 510 286 510 286 510 235 c 256,43,44
 510 184 510 184 497 139 c 128,-1,45
 484 94 484 94 457.5 61 c 128,-1,46
 431 28 431 28 391.5 9 c 128,-1,47
 352 -10 352 -10 300 -10 c 0,48,49
 270 -10 270 -10 248 -2 c 128,-1,50
 226 6 226 6 212 17 c 0,51,52
 195 29 195 29 185 45 c 1,53,-1
 180 45 l 1,54,-1
 145 0 l 1,55,-1
 60 0 l 1,56,-1
 60 530 l 2,21,22
EndSplineSet
EndChar

StartChar: c
Encoding: 99 99 86
Width: 496
Flags: W
LayerCount: 2
Fore
SplineSet
291 435 m 0,0,1
 238 435 238 435 204.5 386 c 128,-1,2
 171 337 171 337 171 235 c 0,3,4
 171 35 171 35 296 35 c 0,5,6
 348 35 348 35 380.5 59 c 128,-1,7
 413 83 413 83 439 118 c 1,8,-1
 470 95 l 1,9,10
 459 78 459 78 443.5 59.5 c 128,-1,11
 428 41 428 41 405 25.5 c 128,-1,12
 382 10 382 10 350.5 0 c 128,-1,13
 319 -10 319 -10 276 -10 c 0,14,15
 216 -10 216 -10 171 9.5 c 128,-1,16
 126 29 126 29 96 62.5 c 128,-1,17
 66 96 66 96 51 140.5 c 128,-1,18
 36 185 36 185 36 235 c 256,19,20
 36 285 36 285 51 329.5 c 128,-1,21
 66 374 66 374 96 407.5 c 128,-1,22
 126 441 126 441 171 460.5 c 128,-1,23
 216 480 216 480 276 480 c 0,24,25
 333 480 333 480 372.5 472 c 128,-1,26
 412 464 412 464 431 445 c 256,27,28
 450 426 450 426 453 394 c 128,-1,29
 456 362 456 362 456 305 c 1,30,-1
 426 305 l 1,31,32
 422 369 422 369 386.5 402 c 128,-1,33
 351 435 351 435 291 435 c 0,0,1
EndSplineSet
EndChar

StartChar: d
Encoding: 100 100 87
Width: 547
Flags: W
LayerCount: 2
Fore
SplineSet
357 405 m 1,0,1
 346 413 346 413 333 420 c 0,2,3
 322 425 322 425 306.5 430 c 128,-1,4
 291 435 291 435 272 435 c 0,5,6
 244 435 244 435 225 420 c 128,-1,7
 206 405 206 405 194 378 c 128,-1,8
 182 351 182 351 177 314.5 c 128,-1,9
 172 278 172 278 172 235 c 256,10,11
 172 192 172 192 177 155.5 c 128,-1,12
 182 119 182 119 193 92 c 128,-1,13
 204 65 204 65 222.5 50 c 128,-1,14
 241 35 241 35 267 35 c 0,15,16
 290 35 290 35 306.5 45 c 128,-1,17
 323 55 323 55 334 67 c 0,18,19
 347 81 347 81 357 100 c 1,20,-1
 357 405 l 1,0,1
357 530 m 2,21,22
 357 575 357 575 344.5 602.5 c 128,-1,23
 332 630 332 630 287 630 c 2,24,-1
 277 630 l 1,25,-1
 277 660 l 1,26,-1
 397 660 l 2,27,28
 423 660 423 660 440.5 653.5 c 128,-1,29
 458 647 458 647 468.5 632 c 128,-1,30
 479 617 479 617 483 592 c 128,-1,31
 487 567 487 567 487 530 c 2,32,-1
 487 0 l 1,33,-1
 402 0 l 1,34,-1
 367 45 l 1,35,-1
 362 45 l 1,36,37
 351 29 351 29 334 17 c 0,38,39
 320 6 320 6 298.5 -2 c 128,-1,40
 277 -10 277 -10 247 -10 c 0,41,42
 194 -10 194 -10 155 9 c 128,-1,43
 116 28 116 28 89.5 61 c 128,-1,44
 63 94 63 94 50 139 c 128,-1,45
 37 184 37 184 37 235 c 256,46,47
 37 286 37 286 50 331 c 128,-1,48
 63 376 63 376 90 409 c 128,-1,49
 117 442 117 442 157.5 461 c 128,-1,50
 198 480 198 480 252 480 c 0,51,52
 276 480 276 480 295.5 475 c 128,-1,53
 315 470 315 470 329 465 c 1,54,55
 345 458 345 458 357 450 c 1,56,-1
 357 530 l 2,21,22
EndSplineSet
EndChar

StartChar: e
Encoding: 101 101 88
Width: 509
Flags: W
LayerCount: 2
Fore
SplineSet
282 35 m 0,0,1
 334 35 334 35 366.5 59 c 128,-1,2
 399 83 399 83 425 118 c 1,3,-1
 456 95 l 1,4,5
 445 78 445 78 429.5 59.5 c 128,-1,6
 414 41 414 41 391.5 25.5 c 128,-1,7
 369 10 369 10 338.5 0 c 128,-1,8
 308 -10 308 -10 267 -10 c 0,9,10
 214 -10 214 -10 171.5 8.5 c 128,-1,11
 129 27 129 27 99 60 c 128,-1,12
 69 93 69 93 53 137.5 c 128,-1,13
 37 182 37 182 37 235 c 0,14,15
 37 295 37 295 54 341 c 128,-1,16
 71 387 71 387 100.5 417.5 c 128,-1,17
 130 448 130 448 170 464 c 128,-1,18
 210 480 210 480 257 480 c 256,19,20
 304 480 304 480 344 465.5 c 128,-1,21
 384 451 384 451 413.5 425 c 128,-1,22
 443 399 443 399 460 362 c 128,-1,23
 477 325 477 325 477 280 c 0,24,25
 477 269 477 269 476.5 257.5 c 128,-1,26
 476 246 476 246 475 237 c 0,27,28
 474 226 474 226 473 217 c 1,29,-1
 172 217 l 1,30,31
 172 118 172 118 202.5 76.5 c 128,-1,32
 233 35 233 35 282 35 c 0,0,1
342 262 m 1,33,34
 342 312 342 312 335.5 345 c 128,-1,35
 329 378 329 378 318 398 c 128,-1,36
 307 418 307 418 291.5 426.5 c 128,-1,37
 276 435 276 435 257 435 c 0,38,39
 240 435 240 435 224.5 426.5 c 128,-1,40
 209 418 209 418 197.5 398 c 128,-1,41
 186 378 186 378 179 345 c 128,-1,42
 172 312 172 312 172 262 c 1,43,-1
 342 262 l 1,33,34
EndSplineSet
EndChar

StartChar: f
Encoding: 102 102 89
Width: 342
Flags: W
LayerCount: 2
Fore
SplineSet
267 670 m 0,0,1
 293 670 293 670 319 665.5 c 128,-1,2
 345 661 345 661 358 653 c 0,3,4
 383 638 383 638 397 610 c 1,5,-1
 357 575 l 1,6,7
 342 598 342 598 320 611.5 c 128,-1,8
 298 625 298 625 272 625 c 0,9,10
 238 625 238 625 220 597.5 c 128,-1,11
 202 570 202 570 202 497 c 2,12,-1
 202 470 l 1,13,-1
 332 470 l 1,14,-1
 332 425 l 1,15,-1
 202 425 l 1,16,-1
 202 0 l 1,17,-1
 72 0 l 1,18,-1
 72 425 l 1,19,-1
 12 425 l 1,20,-1
 12 470 l 1,21,-1
 72 470 l 1,22,-1
 72 497 l 2,23,24
 72 582 72 582 120.5 626 c 128,-1,25
 169 670 169 670 267 670 c 0,0,1
EndSplineSet
EndChar

StartChar: g
Encoding: 103 103 90
Width: 520
Flags: W
LayerCount: 2
Fore
SplineSet
44 329 m 0,0,1
 44 372 44 372 60.5 401 c 128,-1,2
 77 430 77 430 106.5 447.5 c 128,-1,3
 136 465 136 465 175 472.5 c 128,-1,4
 214 480 214 480 259 480 c 2,5,-1
 459 480 l 1,6,-1
 459 453 l 1,7,-1
 379 441 l 1,8,9
 421 425 421 425 447.5 394.5 c 128,-1,10
 474 364 474 364 474 329 c 0,11,12
 474 286 474 286 458.5 257.5 c 128,-1,13
 443 229 443 229 415 211.5 c 128,-1,14
 387 194 387 194 347.5 187 c 128,-1,15
 308 180 308 180 259 180 c 0,16,17
 214 180 214 180 186.5 172.5 c 128,-1,18
 159 165 159 165 159 145 c 0,19,20
 159 128 159 128 186.5 121 c 128,-1,21
 214 114 214 114 259 113 c 0,22,23
 310 112 310 112 354.5 102 c 128,-1,24
 399 92 399 92 432 72.5 c 128,-1,25
 465 53 465 53 484.5 23.5 c 128,-1,26
 504 -6 504 -6 504 -45 c 0,27,28
 504 -89 504 -89 485.5 -118.5 c 128,-1,29
 467 -148 467 -148 434 -166 c 128,-1,30
 401 -184 401 -184 356 -192 c 128,-1,31
 311 -200 311 -200 259 -200 c 0,32,33
 206 -200 206 -200 161.5 -192 c 128,-1,34
 117 -184 117 -184 84 -166 c 128,-1,35
 51 -148 51 -148 32.5 -118.5 c 128,-1,36
 14 -89 14 -89 14 -45 c 0,37,38
 14 -18 14 -18 26 3.5 c 128,-1,39
 38 25 38 25 57.5 41 c 128,-1,40
 77 57 77 57 101 68 c 128,-1,41
 125 79 125 79 149 85 c 1,42,43
 130 91 130 91 117 106.5 c 128,-1,44
 104 122 104 122 104 145 c 0,45,46
 104 163 104 163 114.5 177.5 c 128,-1,47
 125 192 125 192 144 200 c 1,48,49
 102 215 102 215 73 249 c 128,-1,50
 44 283 44 283 44 329 c 0,0,1
220 72 m 1,51,52
 187 58 187 58 168 30.5 c 128,-1,53
 149 3 149 3 149 -45 c 0,54,55
 149 -102 149 -102 179 -128.5 c 128,-1,56
 209 -155 209 -155 259 -155 c 256,57,58
 309 -155 309 -155 339 -128.5 c 128,-1,59
 369 -102 369 -102 369 -45 c 0,60,61
 369 0 369 0 341 29 c 128,-1,62
 313 58 313 58 267 67 c 1,63,-1
 220 72 l 1,51,52
339 329 m 0,64,65
 339 386 339 386 316.5 413 c 128,-1,66
 294 440 294 440 259 440 c 256,67,68
 224 440 224 440 201.5 415 c 128,-1,69
 179 390 179 390 179 329 c 0,70,71
 179 267 179 267 201.5 243.5 c 128,-1,72
 224 220 224 220 259 220 c 256,73,74
 294 220 294 220 316.5 243.5 c 128,-1,75
 339 267 339 267 339 329 c 0,64,65
EndSplineSet
EndChar

StartChar: h
Encoding: 104 104 91
Width: 544
Flags: W
LayerCount: 2
Fore
SplineSet
60 530 m 2,0,1
 60 575 60 575 47.5 602.5 c 128,-1,2
 35 630 35 630 -10 630 c 2,3,-1
 -20 630 l 1,4,-1
 -20 660 l 1,5,-1
 100 660 l 2,6,7
 126 660 126 660 143.5 653.5 c 128,-1,8
 161 647 161 647 171.5 632 c 128,-1,9
 182 617 182 617 186 592 c 128,-1,10
 190 567 190 567 190 530 c 2,11,-1
 190 442 l 1,12,13
 204 452 204 452 221 461 c 0,14,15
 235 468 235 468 255 474 c 128,-1,16
 275 480 275 480 300 480 c 0,17,18
 334 480 334 480 368 472 c 128,-1,19
 402 464 402 464 429 443.5 c 128,-1,20
 456 423 456 423 473 387.5 c 128,-1,21
 490 352 490 352 490 297 c 2,22,-1
 490 0 l 1,23,-1
 360 0 l 1,24,-1
 360 292 l 2,25,26
 360 331 360 331 352.5 357 c 128,-1,27
 345 383 345 383 332.5 399.5 c 128,-1,28
 320 416 320 416 304 423 c 128,-1,29
 288 430 288 430 270 430 c 0,30,31
 253 430 253 430 238.5 424.5 c 128,-1,32
 224 419 224 419 213 412 c 0,33,34
 201 404 201 404 190 395 c 1,35,-1
 190 0 l 1,36,-1
 60 0 l 1,37,-1
 60 530 l 2,0,1
EndSplineSet
EndChar

StartChar: i
Encoding: 105 105 92
Width: 267
Flags: W
LayerCount: 2
Fore
SplineSet
199 580 m 0,0,1
 199 554 199 554 183 539 c 128,-1,2
 167 524 167 524 144 524 c 0,3,4
 106 524 106 524 87.5 547 c 128,-1,5
 69 570 69 570 69 600 c 0,6,7
 69 626 69 626 85 641 c 128,-1,8
 101 656 101 656 124 656 c 0,9,10
 162 656 162 656 180.5 633 c 128,-1,11
 199 610 199 610 199 580 c 0,0,1
79 340 m 2,12,13
 79 385 79 385 66.5 412.5 c 128,-1,14
 54 440 54 440 9 440 c 2,15,-1
 -1 440 l 1,16,-1
 -1 470 l 1,17,-1
 119 470 l 2,18,19
 145 470 145 470 162.5 463.5 c 128,-1,20
 180 457 180 457 190.5 442 c 128,-1,21
 201 427 201 427 205 402 c 128,-1,22
 209 377 209 377 209 340 c 2,23,-1
 209 0 l 1,24,-1
 79 0 l 1,25,-1
 79 340 l 2,12,13
EndSplineSet
EndChar

StartChar: j
Encoding: 106 106 93
Width: 267
Flags: W
LayerCount: 2
Fore
SplineSet
79 340 m 2,0,1
 79 385 79 385 66.5 412.5 c 128,-1,2
 54 440 54 440 9 440 c 2,3,-1
 -1 440 l 1,4,-1
 -1 470 l 1,5,-1
 119 470 l 2,6,7
 145 470 145 470 162.5 463.5 c 128,-1,8
 180 457 180 457 190.5 442 c 128,-1,9
 201 427 201 427 205 402 c 128,-1,10
 209 377 209 377 209 340 c 2,11,-1
 209 25 l 2,12,13
 209 -37 209 -37 198 -78.5 c 128,-1,14
 187 -120 187 -120 161.5 -144.5 c 128,-1,15
 136 -169 136 -169 94.5 -179.5 c 128,-1,16
 53 -190 53 -190 -9 -190 c 1,17,-1
 -9 -165 l 1,18,19
 13 -161 13 -161 30 -150 c 128,-1,20
 47 -139 47 -139 57.5 -117 c 128,-1,21
 68 -95 68 -95 73.5 -60.5 c 128,-1,22
 79 -26 79 -26 79 25 c 2,23,-1
 79 340 l 2,0,1
199 580 m 0,24,25
 199 554 199 554 183 539 c 128,-1,26
 167 524 167 524 144 524 c 0,27,28
 106 524 106 524 87.5 547 c 128,-1,29
 69 570 69 570 69 600 c 0,30,31
 69 626 69 626 85 641 c 128,-1,32
 101 656 101 656 124 656 c 0,33,34
 162 656 162 656 180.5 633 c 128,-1,35
 199 610 199 610 199 580 c 0,24,25
EndSplineSet
EndChar

StartChar: k
Encoding: 107 107 94
Width: 505
Flags: W
LayerCount: 2
Fore
SplineSet
190 196 m 1,0,-1
 190 0 l 1,1,-1
 60 0 l 1,2,-1
 60 530 l 2,3,4
 60 575 60 575 47.5 602.5 c 128,-1,5
 35 630 35 630 -10 630 c 2,6,-1
 -20 630 l 1,7,-1
 -20 660 l 1,8,-1
 100 660 l 2,9,10
 126 660 126 660 143.5 653.5 c 128,-1,11
 161 647 161 647 171.5 632 c 128,-1,12
 182 617 182 617 186 592 c 128,-1,13
 190 567 190 567 190 530 c 2,14,-1
 190 245 l 1,15,-1
 311 393 l 2,16,17
 326 411 326 411 340.5 425.5 c 128,-1,18
 355 440 355 440 371.5 450 c 128,-1,19
 388 460 388 460 408.5 465 c 128,-1,20
 429 470 429 470 455 470 c 2,21,-1
 475 470 l 1,22,-1
 475 444 l 1,23,24
 445 444 445 444 421 432 c 128,-1,25
 397 420 397 420 375 394 c 2,26,-1
 278 276 l 1,27,-1
 411 100 l 2,28,29
 437 65 437 65 460 47 c 128,-1,30
 483 29 483 29 504 24 c 1,31,-1
 504 0 l 1,32,33
 496 -4 496 -4 475 -7 c 128,-1,34
 454 -10 454 -10 435 -10 c 0,35,36
 393 -10 393 -10 356 7.5 c 128,-1,37
 319 25 319 25 286 70 c 1,38,-1
 190 196 l 1,0,-1
EndSplineSet
EndChar

StartChar: l
Encoding: 108 108 95
Width: 258
Flags: W
LayerCount: 2
Fore
SplineSet
64 530 m 2,0,1
 64 575 64 575 51.5 602.5 c 128,-1,2
 39 630 39 630 -6 630 c 2,3,-1
 -16 630 l 1,4,-1
 -16 660 l 1,5,-1
 104 660 l 2,6,7
 130 660 130 660 147.5 653.5 c 128,-1,8
 165 647 165 647 175.5 632 c 128,-1,9
 186 617 186 617 190 592 c 128,-1,10
 194 567 194 567 194 530 c 2,11,-1
 194 0 l 1,12,-1
 64 0 l 1,13,-1
 64 530 l 2,0,1
EndSplineSet
EndChar

StartChar: m
Encoding: 109 109 96
Width: 826
Flags: W
LayerCount: 2
Fore
SplineSet
189 432 m 1,0,1
 207 448 207 448 238.5 464 c 128,-1,2
 270 480 270 480 315 480 c 0,3,4
 343 480 343 480 366 473.5 c 128,-1,5
 389 467 389 467 406.5 458 c 128,-1,6
 424 449 424 449 435.5 439.5 c 128,-1,7
 447 430 447 430 453 423 c 1,8,9
 473 445 473 445 505 462.5 c 128,-1,10
 537 480 537 480 595 480 c 0,11,12
 678 480 678 480 724 436.5 c 128,-1,13
 770 393 770 393 770 296 c 2,14,-1
 770 0 l 1,15,-1
 640 0 l 1,16,-1
 640 297 l 2,17,18
 640 370 640 370 617 400 c 128,-1,19
 594 430 594 430 560 430 c 0,20,21
 532 430 532 430 509.5 419 c 128,-1,22
 487 408 487 408 474 392 c 1,23,24
 478 383 478 383 482 370 c 0,25,26
 485 359 485 359 487.5 340.5 c 128,-1,27
 490 322 490 322 490 296 c 2,28,-1
 490 0 l 1,29,-1
 360 0 l 1,30,-1
 360 297 l 2,31,32
 360 370 360 370 337 400 c 128,-1,33
 314 430 314 430 280 430 c 0,34,35
 257 430 257 430 235 416.5 c 128,-1,36
 213 403 213 403 203 390 c 1,37,38
 204 384 204 384 206 376 c 0,39,40
 208 369 208 369 209 359 c 128,-1,41
 210 349 210 349 210 337 c 2,42,-1
 210 0 l 1,43,-1
 80 0 l 1,44,-1
 80 340 l 2,45,46
 80 362 80 362 77.5 380.5 c 128,-1,47
 75 399 75 399 68 412.5 c 128,-1,48
 61 426 61 426 47 433 c 128,-1,49
 33 440 33 440 11 440 c 2,50,-1
 1 440 l 1,51,-1
 1 470 l 1,52,-1
 100 470 l 2,53,54
 130 470 130 470 152 461.5 c 128,-1,55
 174 453 174 453 185 432 c 1,56,-1
 189 432 l 1,0,1
EndSplineSet
EndChar

StartChar: n
Encoding: 110 110 97
Width: 575
Flags: W
LayerCount: 2
Fore
SplineSet
295 430 m 0,0,1
 263 430 263 430 239.5 421 c 128,-1,2
 216 412 216 412 203 399 c 1,3,4
 204 393 204 393 206 385 c 0,5,6
 208 378 208 378 209 368 c 128,-1,7
 210 358 210 358 210 346 c 2,8,-1
 210 0 l 1,9,-1
 80 0 l 1,10,-1
 80 340 l 2,11,12
 80 362 80 362 77.5 380.5 c 128,-1,13
 75 399 75 399 68 412.5 c 128,-1,14
 61 426 61 426 47 433 c 128,-1,15
 33 440 33 440 11 440 c 2,16,-1
 1 440 l 1,17,-1
 1 470 l 1,18,-1
 100 470 l 2,19,20
 134 470 134 470 153.5 461.5 c 128,-1,21
 173 453 173 453 184 433 c 1,22,23
 193 441 193 441 205.5 449.5 c 128,-1,24
 218 458 218 458 235.5 464.5 c 128,-1,25
 253 471 253 471 276 475.5 c 128,-1,26
 299 480 299 480 330 480 c 0,27,28
 424 480 424 480 472 436.5 c 128,-1,29
 520 393 520 393 520 296 c 2,30,-1
 520 0 l 1,31,-1
 390 0 l 1,32,-1
 390 297 l 2,33,34
 390 370 390 370 363 400 c 128,-1,35
 336 430 336 430 295 430 c 0,0,1
EndSplineSet
EndChar

StartChar: o
Encoding: 111 111 98
Width: 552
Flags: W
LayerCount: 2
Fore
SplineSet
381 235 m 256,0,1
 381 278 381 278 374.5 314.5 c 128,-1,2
 368 351 368 351 355 378 c 128,-1,3
 342 405 342 405 322 420 c 128,-1,4
 302 435 302 435 276 435 c 256,5,6
 250 435 250 435 230 420 c 128,-1,7
 210 405 210 405 197 378 c 128,-1,8
 184 351 184 351 177.5 314.5 c 128,-1,9
 171 278 171 278 171 235 c 256,10,11
 171 192 171 192 177.5 155.5 c 128,-1,12
 184 119 184 119 197 92 c 128,-1,13
 210 65 210 65 230 50 c 128,-1,14
 250 35 250 35 276 35 c 256,15,16
 302 35 302 35 322 50 c 128,-1,17
 342 65 342 65 355 92 c 128,-1,18
 368 119 368 119 374.5 155.5 c 128,-1,19
 381 192 381 192 381 235 c 256,0,1
36 235 m 256,20,21
 36 286 36 286 52.5 331 c 128,-1,22
 69 376 69 376 100 409 c 128,-1,23
 131 442 131 442 175.5 461 c 128,-1,24
 220 480 220 480 276 480 c 256,25,26
 332 480 332 480 376.5 461 c 128,-1,27
 421 442 421 442 452 409 c 128,-1,28
 483 376 483 376 499.5 331 c 128,-1,29
 516 286 516 286 516 235 c 256,30,31
 516 184 516 184 499.5 139 c 128,-1,32
 483 94 483 94 452 61 c 128,-1,33
 421 28 421 28 376.5 9 c 128,-1,34
 332 -10 332 -10 276 -10 c 256,35,36
 220 -10 220 -10 175.5 9 c 128,-1,37
 131 28 131 28 100 61 c 128,-1,38
 69 94 69 94 52.5 139 c 128,-1,39
 36 184 36 184 36 235 c 256,20,21
EndSplineSet
EndChar

StartChar: p
Encoding: 112 112 99
Width: 567
Flags: W
LayerCount: 2
Fore
SplineSet
320 480 m 0,0,1
 372 480 372 480 411.5 461 c 128,-1,2
 451 442 451 442 477.5 409 c 128,-1,3
 504 376 504 376 517 331 c 128,-1,4
 530 286 530 286 530 235 c 256,5,6
 530 184 530 184 517 139 c 128,-1,7
 504 94 504 94 477 61 c 128,-1,8
 450 28 450 28 409.5 9 c 128,-1,9
 369 -10 369 -10 315 -10 c 0,10,11
 290 -10 290 -10 271 -5.5 c 128,-1,12
 252 -1 252 -1 238 5 c 0,13,14
 222 11 222 11 210 20 c 1,15,-1
 210 -190 l 1,16,-1
 80 -190 l 1,17,-1
 80 340 l 2,18,19
 80 362 80 362 77.5 380.5 c 128,-1,20
 75 399 75 399 68 412.5 c 128,-1,21
 61 426 61 426 47 433 c 128,-1,22
 33 440 33 440 11 440 c 2,23,-1
 1 440 l 1,24,-1
 1 470 l 1,25,-1
 100 470 l 2,26,27
 134 470 134 470 153.5 461 c 128,-1,28
 173 452 173 452 184 428 c 1,29,30
 193 436 193 436 205.5 445 c 128,-1,31
 218 454 218 454 234.5 462 c 128,-1,32
 251 470 251 470 272.5 475 c 128,-1,33
 294 480 294 480 320 480 c 0,0,1
300 435 m 0,34,35
 262 435 262 435 239 421 c 128,-1,36
 216 407 216 407 203 394 c 1,37,38
 204 387 204 387 206 380 c 256,39,40
 208 373 208 373 209 365 c 128,-1,41
 210 357 210 357 210 346 c 2,42,-1
 210 65 l 1,43,44
 221 56 221 56 234 50 c 0,45,46
 245 44 245 44 260.5 39.5 c 128,-1,47
 276 35 276 35 295 35 c 0,48,49
 323 35 323 35 342 50 c 128,-1,50
 361 65 361 65 373 92 c 128,-1,51
 385 119 385 119 390 155.5 c 128,-1,52
 395 192 395 192 395 235 c 256,53,54
 395 278 395 278 390 314.5 c 128,-1,55
 385 351 385 351 373.5 378 c 128,-1,56
 362 405 362 405 344 420 c 128,-1,57
 326 435 326 435 300 435 c 0,34,35
EndSplineSet
EndChar

StartChar: q
Encoding: 113 113 100
Width: 547
Flags: W
LayerCount: 2
Fore
SplineSet
357 370 m 1,0,1
 347 388 347 388 334 402 c 0,2,3
 323 414 323 414 306.5 424.5 c 128,-1,4
 290 435 290 435 267 435 c 0,5,6
 241 435 241 435 222.5 420 c 128,-1,7
 204 405 204 405 193 378 c 128,-1,8
 182 351 182 351 177 314.5 c 128,-1,9
 172 278 172 278 172 235 c 256,10,11
 172 192 172 192 177 155.5 c 128,-1,12
 182 119 182 119 194 92 c 128,-1,13
 206 65 206 65 225 50 c 128,-1,14
 244 35 244 35 272 35 c 0,15,16
 291 35 291 35 306.5 39.5 c 128,-1,17
 322 44 322 44 333 50 c 0,18,19
 346 56 346 56 357 65 c 1,20,-1
 357 370 l 1,0,1
487 -190 m 1,21,-1
 357 -190 l 1,22,-1
 357 20 l 1,23,24
 345 11 345 11 329 5 c 0,25,26
 315 -1 315 -1 295.5 -5.5 c 128,-1,27
 276 -10 276 -10 252 -10 c 0,28,29
 198 -10 198 -10 157.5 9 c 128,-1,30
 117 28 117 28 90 61 c 128,-1,31
 63 94 63 94 50 139 c 128,-1,32
 37 184 37 184 37 235 c 256,33,34
 37 286 37 286 50 331 c 128,-1,35
 63 376 63 376 89.5 409 c 128,-1,36
 116 442 116 442 155 461 c 128,-1,37
 194 480 194 480 247 480 c 0,38,39
 277 480 277 480 298.5 471.5 c 128,-1,40
 320 463 320 463 334 452 c 0,41,42
 351 440 351 440 362 425 c 1,43,-1
 367 425 l 1,44,-1
 402 470 l 1,45,-1
 487 470 l 1,46,-1
 487 -190 l 1,21,-1
EndSplineSet
EndChar

StartChar: r
Encoding: 114 114 101
Width: 418
Flags: W
LayerCount: 2
Fore
SplineSet
310 480 m 0,0,1
 354 480 354 480 381 460 c 0,2,3
 390 454 390 454 396 446 c 128,-1,4
 402 438 402 438 406.5 431 c 128,-1,5
 411 424 411 424 413 419.5 c 128,-1,6
 415 415 415 415 415 415 c 1,7,-1
 364 376 l 1,8,9
 357 386 357 386 346 395 c 0,10,11
 337 403 337 403 324.5 409 c 128,-1,12
 312 415 312 415 295 415 c 0,13,14
 263 415 263 415 241 406 c 128,-1,15
 219 397 219 397 206 384 c 1,16,17
 207 377 207 377 208 369 c 0,18,19
 209 362 209 362 209.5 353.5 c 128,-1,20
 210 345 210 345 210 336 c 2,21,-1
 210 0 l 1,22,-1
 80 0 l 1,23,-1
 80 340 l 2,24,25
 80 362 80 362 77.5 380.5 c 128,-1,26
 75 399 75 399 68 412.5 c 128,-1,27
 61 426 61 426 47 433 c 128,-1,28
 33 440 33 440 11 440 c 2,29,-1
 1 440 l 1,30,-1
 1 470 l 1,31,-1
 100 470 l 2,32,33
 134 470 134 470 153.5 461.5 c 128,-1,34
 173 453 173 453 184 433 c 1,35,36
 202 449 202 449 233.5 464.5 c 128,-1,37
 265 480 265 480 310 480 c 0,0,1
EndSplineSet
EndChar

StartChar: s
Encoding: 115 115 102
Width: 468
Flags: W
LayerCount: 2
Fore
SplineSet
209 35 m 0,0,1
 265 35 265 35 287 54.5 c 128,-1,2
 309 74 309 74 309 103 c 256,3,4
 309 132 309 132 283 149.5 c 128,-1,5
 257 167 257 167 219 184 c 2,6,-1
 167 206 l 2,7,8
 107 232 107 232 73 265 c 128,-1,9
 39 298 39 298 39 347 c 0,10,11
 39 380 39 380 53 404.5 c 128,-1,12
 67 429 67 429 92.5 446 c 128,-1,13
 118 463 118 463 153 471.5 c 128,-1,14
 188 480 188 480 229 480 c 0,15,16
 291 480 291 480 330.5 469 c 128,-1,17
 370 458 370 458 390 439 c 0,18,19
 408 422 408 422 411 390 c 128,-1,20
 414 358 414 358 414 320 c 1,21,-1
 379 320 l 1,22,23
 371 368 371 368 340 401.5 c 128,-1,24
 309 435 309 435 249 435 c 0,25,26
 204 435 204 435 184 415.5 c 128,-1,27
 164 396 164 396 164 367 c 0,28,29
 164 340 164 340 183 323.5 c 128,-1,30
 202 307 202 307 235 293 c 2,31,-1
 295 268 l 2,32,33
 364 239 364 239 399 207.5 c 128,-1,34
 434 176 434 176 434 123 c 0,35,36
 434 90 434 90 418.5 65.5 c 128,-1,37
 403 41 403 41 376 24 c 128,-1,38
 349 7 349 7 311.5 -1.5 c 128,-1,39
 274 -10 274 -10 229 -10 c 0,40,41
 167 -10 167 -10 127.5 1 c 128,-1,42
 88 12 88 12 68 31 c 0,43,44
 50 48 50 48 47 80 c 128,-1,45
 44 112 44 112 44 150 c 1,46,-1
 79 150 l 1,47,48
 87 102 87 102 118 68.5 c 128,-1,49
 149 35 149 35 209 35 c 0,0,1
EndSplineSet
EndChar

StartChar: t
Encoding: 116 116 103
Width: 354
Flags: W
LayerCount: 2
Fore
SplineSet
211 470 m 1,0,-1
 321 470 l 1,1,-1
 321 425 l 1,2,-1
 211 425 l 1,3,-1
 211 130 l 2,4,5
 211 74 211 74 224.5 54.5 c 128,-1,6
 238 35 238 35 263 35 c 0,7,8
 279 35 279 35 293.5 39 c 128,-1,9
 308 43 308 43 319 48 c 0,10,11
 331 54 331 54 342 62 c 1,12,-1
 356 34 l 1,13,14
 343 22 343 22 325 12 c 0,15,16
 309 4 309 4 284.5 -3 c 128,-1,17
 260 -10 260 -10 226 -10 c 0,18,19
 158 -10 158 -10 119.5 27 c 128,-1,20
 81 64 81 64 81 136 c 2,21,-1
 81 425 l 1,22,-1
 21 425 l 1,23,-1
 21 470 l 1,24,-1
 81 470 l 1,25,-1
 81 560 l 1,26,-1
 131 620 l 1,27,-1
 211 620 l 1,28,-1
 211 470 l 1,0,-1
EndSplineSet
EndChar

StartChar: u
Encoding: 117 117 104
Width: 565
Flags: W
LayerCount: 2
Fore
SplineSet
70 340 m 2,0,1
 70 385 70 385 57.5 412.5 c 128,-1,2
 45 440 45 440 0 440 c 2,3,-1
 -10 440 l 1,4,-1
 -10 470 l 1,5,-1
 110 470 l 2,6,7
 136 470 136 470 153.5 463.5 c 128,-1,8
 171 457 171 457 181.5 442 c 128,-1,9
 192 427 192 427 196 402 c 128,-1,10
 200 377 200 377 200 340 c 2,11,-1
 200 173 l 2,12,13
 200 96 200 96 222 65.5 c 128,-1,14
 244 35 244 35 285 35 c 0,15,16
 308 35 308 35 324.5 45 c 128,-1,17
 341 55 341 55 352 67 c 0,18,19
 365 81 365 81 375 100 c 1,20,-1
 375 470 l 1,21,-1
 505 470 l 1,22,-1
 505 0 l 1,23,-1
 420 0 l 1,24,-1
 385 45 l 1,25,-1
 380 45 l 1,26,27
 365 29 365 29 347 17 c 0,28,29
 331 6 331 6 308 -2 c 128,-1,30
 285 -10 285 -10 255 -10 c 0,31,32
 161 -10 161 -10 115.5 33.5 c 128,-1,33
 70 77 70 77 70 174 c 2,34,-1
 70 340 l 2,0,1
EndSplineSet
EndChar

StartChar: v
Encoding: 118 118 105
Width: 500
Flags: W
LayerCount: 2
Fore
SplineSet
77 355 m 2,0,1
 51 410 51 410 32 433 c 128,-1,2
 13 456 13 456 -12 458 c 1,3,-1
 -12 478 l 1,4,5
 -8 478 -8 478 5 479 c 128,-1,6
 18 480 18 480 25 480 c 0,7,8
 55 480 55 480 82 475 c 128,-1,9
 109 470 109 470 133 456.5 c 128,-1,10
 157 443 157 443 178 418.5 c 128,-1,11
 199 394 199 394 217 355 c 2,12,-1
 305 163 l 1,13,-1
 441 470 l 1,14,-1
 495 470 l 1,15,-1
 282 -10 l 1,16,-1
 246 -10 l 1,17,-1
 77 355 l 2,0,1
EndSplineSet
EndChar

StartChar: w
Encoding: 119 119 106
Width: 775
Flags: W
LayerCount: 2
Fore
SplineSet
588 154 m 1,0,-1
 710 470 l 1,1,-1
 763 470 l 1,2,-1
 579 -10 l 1,3,-1
 533 -10 l 1,4,-1
 403 271 l 1,5,-1
 287 -10 l 1,6,-1
 242 -10 l 1,7,-1
 79 355 l 2,8,9
 54 411 54 411 33 434 c 128,-1,10
 12 457 12 457 -14 459 c 1,11,-1
 -14 478 l 1,12,13
 -12 478 -12 478 -5.5 478.5 c 128,-1,14
 1 479 1 479 8.5 479 c 128,-1,15
 16 479 16 479 23.5 479.5 c 128,-1,16
 31 480 31 480 34 480 c 0,17,18
 66 480 66 480 92 474 c 128,-1,19
 118 468 118 468 140 454 c 128,-1,20
 162 440 162 440 180.5 416 c 128,-1,21
 199 392 199 392 216 355 c 2,22,-1
 301 164 l 1,23,-1
 368 324 l 1,24,-1
 354 355 l 2,25,26
 329 410 329 410 308.5 433.5 c 128,-1,27
 288 457 288 457 266 459 c 1,28,-1
 266 478 l 1,29,30
 270 478 270 478 283.5 479 c 128,-1,31
 297 480 297 480 304 480 c 0,32,33
 336 480 336 480 363.5 474.5 c 128,-1,34
 391 469 391 469 415 454.5 c 128,-1,35
 439 440 439 440 459 416 c 128,-1,36
 479 392 479 392 496 355 c 2,37,-1
 588 154 l 1,0,-1
EndSplineSet
EndChar

StartChar: x
Encoding: 120 120 107
Width: 496
Flags: W
LayerCount: 2
Fore
SplineSet
192 209 m 1,0,-1
 96 370 l 2,1,2
 75 406 75 406 50.5 426 c 128,-1,3
 26 446 26 446 3 450 c 1,4,-1
 3 470 l 1,5,-1
 98 470 l 2,6,7
 147 470 147 470 175.5 448.5 c 128,-1,8
 204 427 204 427 226 390 c 2,9,-1
 274 309 l 1,10,-1
 405 470 l 1,11,-1
 472 470 l 1,12,-1
 303 262 l 1,13,-1
 400 100 l 2,14,15
 421 64 421 64 445.5 44 c 128,-1,16
 470 24 470 24 493 20 c 1,17,-1
 493 0 l 1,18,-1
 398 0 l 2,19,20
 349 0 349 0 320.5 21.5 c 128,-1,21
 292 43 292 43 270 80 c 2,22,-1
 221 161 l 1,23,-1
 90 0 l 1,24,-1
 23 0 l 1,25,-1
 192 209 l 1,0,-1
EndSplineSet
EndChar

StartChar: y
Encoding: 121 121 108
Width: 509
Flags: W
LayerCount: 2
Fore
SplineSet
290 -65 m 2,0,1
 275 -106 275 -106 258 -132 c 128,-1,2
 241 -158 241 -158 222 -173 c 128,-1,3
 203 -188 203 -188 180.5 -194 c 128,-1,4
 158 -200 158 -200 132 -200 c 2,5,-1
 92 -200 l 1,6,-1
 92 -165 l 1,7,8
 118 -165 118 -165 139.5 -160.5 c 128,-1,9
 161 -156 161 -156 179 -145 c 128,-1,10
 197 -134 197 -134 211 -115.5 c 128,-1,11
 225 -97 225 -97 236 -68 c 2,12,-1
 257 -14 l 1,13,-1
 77 380 l 2,14,15
 44 453 44 453 -16 460 c 1,16,-1
 -16 480 l 1,17,-1
 72 480 l 2,18,19
 117 480 117 480 151 458.5 c 128,-1,20
 185 437 185 437 202 400 c 2,21,-1
 317 148 l 1,22,-1
 439 470 l 1,23,-1
 492 470 l 1,24,-1
 290 -65 l 2,0,1
EndSplineSet
EndChar

StartChar: z
Encoding: 122 122 109
Width: 493
Flags: W
LayerCount: 2
Fore
SplineSet
480 470 m 1,0,-1
 196 45 l 1,1,-1
 459 45 l 1,2,-1
 459 0 l 1,3,-1
 39 0 l 1,4,-1
 39 31 l 1,5,-1
 302 425 l 1,6,-1
 184 425 l 2,7,8
 120 425 120 425 94.5 402 c 128,-1,9
 69 379 69 379 69 330 c 1,10,-1
 39 330 l 1,11,-1
 39 390 l 2,12,13
 39 405 39 405 42.5 419.5 c 128,-1,14
 46 434 46 434 55.5 445 c 128,-1,15
 65 456 65 456 81.5 463 c 128,-1,16
 98 470 98 470 124 470 c 2,17,-1
 480 470 l 1,0,-1
EndSplineSet
EndChar

StartChar: braceleft
Encoding: 123 123 110
Width: 312
Flags: W
LayerCount: 2
Fore
SplineSet
113 240 m 1,0,1
 176 223 176 223 204.5 190 c 128,-1,2
 233 157 233 157 233 100 c 2,3,-1
 233 -72 l 2,4,5
 233 -117 233 -117 246 -143.5 c 128,-1,6
 259 -170 259 -170 293 -176 c 1,7,-1
 293 -211 l 1,8,9
 240 -207 240 -207 204 -191 c 128,-1,10
 168 -175 168 -175 145.5 -150.5 c 128,-1,11
 123 -126 123 -126 113 -95 c 128,-1,12
 103 -64 103 -64 103 -30 c 2,13,-1
 103 110 l 2,14,15
 103 130 103 130 98 149 c 128,-1,16
 93 168 93 168 81 183.5 c 128,-1,17
 69 199 69 199 50 209.5 c 128,-1,18
 31 220 31 220 3 224 c 1,19,-1
 3 256 l 1,20,21
 31 260 31 260 50 270.5 c 128,-1,22
 69 281 69 281 81 296.5 c 128,-1,23
 93 312 93 312 98 331 c 128,-1,24
 103 350 103 350 103 370 c 2,25,-1
 103 510 l 2,26,27
 103 544 103 544 113 575 c 128,-1,28
 123 606 123 606 145.5 630.5 c 128,-1,29
 168 655 168 655 204 671 c 128,-1,30
 240 687 240 687 293 691 c 1,31,-1
 293 656 l 1,32,33
 259 650 259 650 246 623.5 c 128,-1,34
 233 597 233 597 233 552 c 2,35,-1
 233 380 l 2,36,37
 233 323 233 323 204.5 290 c 128,-1,38
 176 257 176 257 113 240 c 1,0,1
EndSplineSet
EndChar

StartChar: bar
Encoding: 124 124 111
Width: 262
Flags: W
LayerCount: 2
Fore
SplineSet
196 680 m 1,0,-1
 196 -190 l 1,1,-1
 66 -190 l 1,2,-1
 66 680 l 1,3,-1
 196 680 l 1,0,-1
EndSplineSet
EndChar

StartChar: braceright
Encoding: 125 125 112
Width: 312
Flags: W
LayerCount: 2
Fore
SplineSet
199 240 m 1,0,1
 136 257 136 257 107.5 290 c 128,-1,2
 79 323 79 323 79 380 c 2,3,-1
 79 552 l 2,4,5
 79 597 79 597 66 623.5 c 128,-1,6
 53 650 53 650 19 656 c 1,7,-1
 19 691 l 1,8,9
 71 687 71 687 107.5 671 c 128,-1,10
 144 655 144 655 166.5 630.5 c 128,-1,11
 189 606 189 606 199 575 c 128,-1,12
 209 544 209 544 209 510 c 2,13,-1
 209 370 l 2,14,15
 209 350 209 350 214 331 c 128,-1,16
 219 312 219 312 231 296.5 c 128,-1,17
 243 281 243 281 262 270.5 c 128,-1,18
 281 260 281 260 309 256 c 1,19,-1
 309 224 l 1,20,21
 281 220 281 220 262 209.5 c 128,-1,22
 243 199 243 199 231 183.5 c 128,-1,23
 219 168 219 168 214 149 c 128,-1,24
 209 130 209 130 209 110 c 2,25,-1
 209 -30 l 2,26,27
 209 -64 209 -64 199 -95 c 128,-1,28
 189 -126 189 -126 166.5 -150.5 c 128,-1,29
 144 -175 144 -175 107.5 -191 c 128,-1,30
 71 -207 71 -207 19 -211 c 1,31,-1
 19 -176 l 1,32,33
 53 -170 53 -170 66 -143.5 c 128,-1,34
 79 -117 79 -117 79 -72 c 2,35,-1
 79 100 l 2,36,37
 79 157 79 157 107.5 190 c 128,-1,38
 136 223 136 223 199 240 c 1,0,1
EndSplineSet
EndChar

StartChar: asciitilde
Encoding: 126 126 113
Width: 611
Flags: W
LayerCount: 2
Fore
SplineSet
171 343 m 0,0,1
 216 343 216 343 254 329.5 c 128,-1,2
 292 316 292 316 327 300 c 0,3,4
 359 286 359 286 388 274.5 c 128,-1,5
 417 263 417 263 441 263 c 0,6,7
 483 263 483 263 502 278 c 128,-1,8
 521 293 521 293 521 323 c 1,9,-1
 561 323 l 1,10,11
 561 245 561 245 532 206 c 128,-1,12
 503 167 503 167 441 167 c 0,13,14
 396 167 396 167 358 180.5 c 128,-1,15
 320 194 320 194 285 210 c 0,16,17
 253 224 253 224 224 235.5 c 128,-1,18
 195 247 195 247 171 247 c 0,19,20
 129 247 129 247 110 232 c 128,-1,21
 91 217 91 217 91 187 c 1,22,-1
 51 187 l 1,23,24
 51 265 51 265 80 304 c 128,-1,25
 109 343 109 343 171 343 c 0,0,1
EndSplineSet
EndChar

StartChar: exclamdown
Encoding: 161 161 114
Width: 239
Flags: W
LayerCount: 2
Fore
SplineSet
186 -194 m 1,0,-1
 53 -194 l 1,1,-1
 72 311 l 1,2,-1
 166 311 l 1,3,-1
 186 -194 l 1,0,-1
180 419 m 256,4,5
 180 392 180 392 164 375 c 128,-1,6
 148 358 148 358 119 358 c 256,7,8
 90 358 90 358 74 375 c 128,-1,9
 58 392 58 392 58 419 c 256,10,11
 58 446 58 446 74 463 c 128,-1,12
 90 480 90 480 119 480 c 256,13,14
 148 480 148 480 164 463 c 128,-1,15
 180 446 180 446 180 419 c 256,4,5
EndSplineSet
EndChar

StartChar: sterling
Encoding: 163 163 115
Width: 535
Flags: W
LayerCount: 2
Fore
SplineSet
101 460 m 2,0,1
 101 524 101 524 120.5 564.5 c 128,-1,2
 140 605 140 605 170 628.5 c 128,-1,3
 200 652 200 652 236 661 c 128,-1,4
 272 670 272 670 306 670 c 0,5,6
 328 670 328 670 351 668 c 128,-1,7
 374 666 374 666 394 662 c 128,-1,8
 414 658 414 658 430.5 651 c 128,-1,9
 447 644 447 644 456 635 c 0,10,11
 475 616 475 616 478 588.5 c 128,-1,12
 481 561 481 561 481 535 c 1,13,-1
 426 535 l 1,14,15
 415 584 415 584 389.5 604.5 c 128,-1,16
 364 625 364 625 326 625 c 0,17,18
 307 625 307 625 290 617.5 c 128,-1,19
 273 610 273 610 260 591 c 128,-1,20
 247 572 247 572 239 540.5 c 128,-1,21
 231 509 231 509 231 460 c 2,22,-1
 231 365 l 1,23,-1
 361 365 l 1,24,-1
 361 320 l 1,25,-1
 231 320 l 1,26,-1
 231 220 l 2,27,28
 231 149 231 149 209 108 c 128,-1,29
 187 67 187 67 161 45 c 1,30,-1
 351 45 l 2,31,32
 411 45 411 45 438.5 75 c 128,-1,33
 466 105 466 105 466 165 c 1,34,-1
 496 165 l 1,35,-1
 496 80 l 2,36,37
 496 65 496 65 492.5 50.5 c 128,-1,38
 489 36 489 36 479.5 25 c 128,-1,39
 470 14 470 14 453.5 7 c 128,-1,40
 437 0 437 0 411 0 c 2,41,-1
 36 0 l 1,42,-1
 36 30 l 1,43,44
 55 36 55 36 67.5 48 c 128,-1,45
 80 60 80 60 87.5 82 c 128,-1,46
 95 104 95 104 98 137.5 c 128,-1,47
 101 171 101 171 101 220 c 2,48,-1
 101 320 l 1,49,-1
 41 320 l 1,50,-1
 41 365 l 1,51,-1
 101 365 l 1,52,-1
 101 460 l 2,0,1
EndSplineSet
EndChar

StartChar: yen
Encoding: 165 165 116
Width: 711
Flags: W
LayerCount: 2
Fore
SplineSet
429 345 m 1,0,-1
 623 660 l 1,1,-1
 688 660 l 1,2,-1
 461 291 l 1,3,-1
 461 265 l 1,4,-1
 547 265 l 1,5,-1
 547 220 l 1,6,-1
 461 220 l 1,7,-1
 461 180 l 1,8,-1
 547 180 l 1,9,-1
 547 135 l 1,10,-1
 461 135 l 1,11,-1
 461 0 l 1,12,-1
 331 0 l 1,13,-1
 331 135 l 1,14,-1
 247 135 l 1,15,-1
 247 180 l 1,16,-1
 331 180 l 1,17,-1
 331 220 l 1,18,-1
 247 220 l 1,19,-1
 247 265 l 1,20,-1
 330 265 l 1,21,-1
 154 530 l 2,22,23
 141 549 141 549 125 568 c 128,-1,24
 109 587 109 587 91.5 602.5 c 128,-1,25
 74 618 74 618 56 628 c 128,-1,26
 38 638 38 638 21 640 c 1,27,-1
 21 660 l 1,28,-1
 130 660 l 2,29,30
 158 660 158 660 182.5 650 c 128,-1,31
 207 640 207 640 227.5 624 c 128,-1,32
 248 608 248 608 264.5 588.5 c 128,-1,33
 281 569 281 569 293 550 c 2,34,-1
 429 345 l 1,0,-1
EndSplineSet
EndChar

StartChar: section
Encoding: 167 167 117
Width: 450
Flags: W
LayerCount: 2
Fore
SplineSet
180 537 m 0,0,1
 180 512 180 512 188 493.5 c 128,-1,2
 196 475 196 475 209.5 460 c 128,-1,3
 223 445 223 445 241 433 c 128,-1,4
 259 421 259 421 279 408 c 0,5,6
 302 393 302 393 325.5 376.5 c 128,-1,7
 349 360 349 360 367.5 340.5 c 128,-1,8
 386 321 386 321 398 297.5 c 128,-1,9
 410 274 410 274 410 245 c 0,10,11
 410 194 410 194 378.5 157 c 128,-1,12
 347 120 347 120 296 100 c 1,13,14
 316 86 316 86 334 71 c 128,-1,15
 352 56 352 56 365.5 38 c 128,-1,16
 379 20 379 20 387 -1 c 128,-1,17
 395 -22 395 -22 395 -47 c 0,18,19
 395 -87 395 -87 380.5 -116 c 128,-1,20
 366 -145 366 -145 342 -163.5 c 128,-1,21
 318 -182 318 -182 286.5 -191 c 128,-1,22
 255 -200 255 -200 220 -200 c 0,23,24
 174 -200 174 -200 136.5 -189.5 c 128,-1,25
 99 -179 99 -179 79 -159 c 0,26,27
 57 -137 57 -137 53.5 -112 c 128,-1,28
 50 -87 50 -87 50 -49 c 1,29,-1
 82 -49 l 1,30,31
 90 -98 90 -98 117.5 -126.5 c 128,-1,32
 145 -155 145 -155 190 -155 c 0,33,34
 228 -155 228 -155 249.5 -135 c 128,-1,35
 271 -115 271 -115 271 -67 c 0,36,37
 271 -42 271 -42 263 -23.5 c 128,-1,38
 255 -5 255 -5 241 10 c 128,-1,39
 227 25 227 25 209 37.5 c 128,-1,40
 191 50 191 50 171 63 c 0,41,42
 148 78 148 78 124.5 94 c 128,-1,43
 101 110 101 110 82 129.5 c 128,-1,44
 63 149 63 149 51.5 172.5 c 128,-1,45
 40 196 40 196 40 225 c 0,46,47
 40 272 40 272 72 310.5 c 128,-1,48
 104 349 104 349 152 370 c 1,49,50
 112 397 112 397 83.5 432 c 128,-1,51
 55 467 55 467 55 517 c 0,52,53
 55 557 55 557 69.5 586 c 128,-1,54
 84 615 84 615 108 633.5 c 128,-1,55
 132 652 132 652 163.5 661 c 128,-1,56
 195 670 195 670 230 670 c 0,57,58
 276 670 276 670 313.5 659.5 c 128,-1,59
 351 649 351 649 371 629 c 0,60,61
 393 607 393 607 396.5 582 c 128,-1,62
 400 557 400 557 400 519 c 1,63,-1
 368 519 l 1,64,65
 360 568 360 568 332.5 596.5 c 128,-1,66
 305 625 305 625 260 625 c 0,67,68
 222 625 222 625 201 605 c 128,-1,69
 180 585 180 585 180 537 c 0,0,1
301 215 m 0,70,71
 301 256 301 256 269 287 c 128,-1,72
 237 318 237 318 192 344 c 1,73,74
 171 336 171 336 160 314.5 c 128,-1,75
 149 293 149 293 149 255 c 0,76,77
 149 234 149 234 157.5 216 c 128,-1,78
 166 198 166 198 181 182 c 128,-1,79
 196 166 196 166 216 151.5 c 128,-1,80
 236 137 236 137 258 125 c 1,81,82
 279 133 279 133 290 154 c 128,-1,83
 301 175 301 175 301 215 c 0,70,71
EndSplineSet
EndChar

StartChar: copyright
Encoding: 169 169 118
Width: 806
Flags: W
LayerCount: 2
Fore
SplineSet
403 688 m 256,0,1
 483 688 483 688 551 661 c 128,-1,2
 619 634 619 634 668.5 586.5 c 128,-1,3
 718 539 718 539 745.5 473.5 c 128,-1,4
 773 408 773 408 773 330 c 256,5,6
 773 252 773 252 745.5 186.5 c 128,-1,7
 718 121 718 121 668.5 73.5 c 128,-1,8
 619 26 619 26 551 -1 c 128,-1,9
 483 -28 483 -28 403 -28 c 256,10,11
 323 -28 323 -28 255 -1 c 128,-1,12
 187 26 187 26 137.5 73.5 c 128,-1,13
 88 121 88 121 60.5 186.5 c 128,-1,14
 33 252 33 252 33 330 c 256,15,16
 33 408 33 408 60.5 473.5 c 128,-1,17
 88 539 88 539 137.5 586.5 c 128,-1,18
 187 634 187 634 255 661 c 128,-1,19
 323 688 323 688 403 688 c 256,0,1
403 17 m 256,20,21
 469 17 469 17 524 40 c 128,-1,22
 579 63 579 63 619 104.5 c 128,-1,23
 659 146 659 146 681 203.5 c 128,-1,24
 703 261 703 261 703 330 c 256,25,26
 703 399 703 399 681 456.5 c 128,-1,27
 659 514 659 514 619 555.5 c 128,-1,28
 579 597 579 597 524 620 c 128,-1,29
 469 643 469 643 403 643 c 256,30,31
 337 643 337 643 282 620 c 128,-1,32
 227 597 227 597 187 555.5 c 128,-1,33
 147 514 147 514 125 456.5 c 128,-1,34
 103 399 103 399 103 330 c 256,35,36
 103 261 103 261 125 203.5 c 128,-1,37
 147 146 147 146 187 104.5 c 128,-1,38
 227 63 227 63 282 40 c 128,-1,39
 337 17 337 17 403 17 c 256,20,21
553 409 m 1,40,41
 541 473 541 473 510.5 503 c 128,-1,42
 480 533 480 533 423 533 c 0,43,44
 394 533 394 533 369 522.5 c 128,-1,45
 344 512 344 512 324.5 488 c 128,-1,46
 305 464 305 464 294 424.5 c 128,-1,47
 283 385 283 385 283 327 c 0,48,49
 283 291 283 291 291 256.5 c 128,-1,50
 299 222 299 222 316 194.5 c 128,-1,51
 333 167 333 167 359.5 150.5 c 128,-1,52
 386 134 386 134 423 134 c 0,53,54
 508 134 508 134 567 230 c 1,55,-1
 592 212 l 1,56,57
 560 152 560 152 514 127 c 128,-1,58
 468 102 468 102 403 102 c 0,59,60
 353 102 353 102 313.5 119.5 c 128,-1,61
 274 137 274 137 246 167.5 c 128,-1,62
 218 198 218 198 203 239 c 128,-1,63
 188 280 188 280 188 327 c 0,64,65
 188 377 188 377 205 420.5 c 128,-1,66
 222 464 222 464 251 496 c 128,-1,67
 280 528 280 528 319.5 546.5 c 128,-1,68
 359 565 359 565 403 565 c 0,69,70
 467 565 467 565 506.5 549 c 128,-1,71
 546 533 546 533 563 512 c 0,72,73
 579 493 579 493 581.5 465.5 c 128,-1,74
 584 438 584 438 584 409 c 1,75,-1
 553 409 l 1,40,41
EndSplineSet
EndChar

StartChar: guillemotleft
Encoding: 171 171 119
Width: 425
Flags: W
LayerCount: 2
Fore
SplineSet
308 370 m 1,0,-1
 372 370 l 1,1,-1
 310 225 l 1,2,-1
 372 80 l 1,3,-1
 308 80 l 1,4,-1
 206 225 l 1,5,-1
 308 370 l 1,0,-1
253 30 m 1,6,-1
 189 30 l 1,7,-1
 31 225 l 1,8,-1
 189 420 l 1,9,-1
 253 420 l 1,10,-1
 156 226 l 1,11,-1
 253 30 l 1,6,-1
EndSplineSet
EndChar

StartChar: logicalnot
Encoding: 172 172 120
Width: 662
Flags: W
LayerCount: 2
Fore
SplineSet
513 220 m 1,0,-1
 58 220 l 1,1,-1
 58 290 l 1,2,-1
 603 290 l 1,3,-1
 603 115 l 1,4,-1
 513 115 l 1,5,-1
 513 220 l 1,0,-1
EndSplineSet
EndChar

StartChar: registered
Encoding: 174 174 121
Width: 806
Flags: W
LayerCount: 2
Fore
SplineSet
403 685 m 256,0,1
 483 685 483 685 551 658.5 c 128,-1,2
 619 632 619 632 668.5 585 c 128,-1,3
 718 538 718 538 745.5 473 c 128,-1,4
 773 408 773 408 773 330 c 256,5,6
 773 252 773 252 745.5 187 c 128,-1,7
 718 122 718 122 668.5 75 c 128,-1,8
 619 28 619 28 551 1.5 c 128,-1,9
 483 -25 483 -25 403 -25 c 256,10,11
 323 -25 323 -25 255 1.5 c 128,-1,12
 187 28 187 28 137.5 75 c 128,-1,13
 88 122 88 122 60.5 187 c 128,-1,14
 33 252 33 252 33 330 c 256,15,16
 33 408 33 408 60.5 473 c 128,-1,17
 88 538 88 538 137.5 585 c 128,-1,18
 187 632 187 632 255 658.5 c 128,-1,19
 323 685 323 685 403 685 c 256,0,1
403 20 m 256,20,21
 469 20 469 20 524 42.5 c 128,-1,22
 579 65 579 65 619 106 c 128,-1,23
 659 147 659 147 681 204 c 128,-1,24
 703 261 703 261 703 330 c 256,25,26
 703 399 703 399 681 456 c 128,-1,27
 659 513 659 513 619 554 c 128,-1,28
 579 595 579 595 524 617.5 c 128,-1,29
 469 640 469 640 403 640 c 256,30,31
 337 640 337 640 282 617.5 c 128,-1,32
 227 595 227 595 187 554 c 128,-1,33
 147 513 147 513 125 456 c 128,-1,34
 103 399 103 399 103 330 c 256,35,36
 103 261 103 261 125 204 c 128,-1,37
 147 147 147 147 187 106 c 128,-1,38
 227 65 227 65 282 42.5 c 128,-1,39
 337 20 337 20 403 20 c 256,20,21
378 349 m 0,40,41
 415 349 415 349 439 369 c 128,-1,42
 463 389 463 389 463 438 c 0,43,44
 463 486 463 486 439 506 c 128,-1,45
 415 526 415 526 378 526 c 0,46,47
 370 526 370 526 364.5 525.5 c 128,-1,48
 359 525 359 525 354 525 c 0,49,50
 349 524 349 524 344 524 c 1,51,-1
 344 351 l 1,52,53
 350 350 350 350 355 350 c 0,54,55
 360 349 360 349 365.5 349 c 128,-1,56
 371 349 371 349 378 349 c 0,40,41
364 320 m 1,57,-1
 344 320 l 1,58,-1
 344 125 l 1,59,-1
 256 125 l 1,60,-1
 256 477 l 2,61,62
 256 505 256 505 251 522 c 128,-1,63
 246 539 246 539 226 539 c 2,64,-1
 208 539 l 1,65,-1
 208 555 l 1,66,-1
 381 555 l 2,67,68
 415 555 415 555 447 549.5 c 128,-1,69
 479 544 479 544 503.5 530.5 c 128,-1,70
 528 517 528 517 543 493.5 c 128,-1,71
 558 470 558 470 558 434 c 0,72,73
 558 408 558 408 548.5 389.5 c 128,-1,74
 539 371 539 371 524.5 358.5 c 128,-1,75
 510 346 510 346 491.5 338 c 128,-1,76
 473 330 473 330 455 326 c 1,77,-1
 523 216 l 2,78,79
 546 180 546 180 564.5 161 c 128,-1,80
 583 142 583 142 607 139 c 1,81,-1
 607 125 l 2,82,83
 607 124 607 124 594 121 c 128,-1,84
 581 118 581 118 555 118 c 0,85,86
 517 118 517 118 490.5 138.5 c 128,-1,87
 464 159 464 159 431 212 c 2,88,-1
 364 320 l 1,57,-1
EndSplineSet
EndChar

StartChar: questiondown
Encoding: 191 191 122
Width: 492
Flags: W
LayerCount: 2
Fore
SplineSet
270 -167 m 0,0,1
 299 -167 299 -167 325 -156.5 c 128,-1,2
 351 -146 351 -146 372.5 -123.5 c 128,-1,3
 394 -101 394 -101 410.5 -65.5 c 128,-1,4
 427 -30 427 -30 436 21 c 1,5,-1
 466 21 l 1,6,7
 466 -23 466 -23 463 -64 c 128,-1,8
 460 -105 460 -105 440 -131 c 1,9,10
 426 -147 426 -147 404.5 -161.5 c 128,-1,11
 383 -176 383 -176 357 -187.5 c 128,-1,12
 331 -199 331 -199 301 -205.5 c 128,-1,13
 271 -212 271 -212 240 -212 c 0,14,15
 194 -212 194 -212 155 -199 c 128,-1,16
 116 -186 116 -186 87.5 -161.5 c 128,-1,17
 59 -137 59 -137 42.5 -101 c 128,-1,18
 26 -65 26 -65 26 -19 c 0,19,20
 26 23 26 23 40 54 c 128,-1,21
 54 85 54 85 75 109.5 c 128,-1,22
 96 134 96 134 121 155.5 c 128,-1,23
 146 177 146 177 168 200 c 128,-1,24
 190 223 190 223 206 249.5 c 128,-1,25
 222 276 222 276 225 312 c 1,26,-1
 293 312 l 1,27,28
 291 275 291 275 281 246.5 c 128,-1,29
 271 218 271 218 257 193.5 c 128,-1,30
 243 169 243 169 227 147 c 128,-1,31
 211 125 211 125 197.5 100.5 c 128,-1,32
 184 76 184 76 175 47 c 128,-1,33
 166 18 166 18 166 -19 c 0,34,35
 166 -61 166 -61 174 -89.5 c 128,-1,36
 182 -118 182 -118 195.5 -135.5 c 128,-1,37
 209 -153 209 -153 228 -160 c 128,-1,38
 247 -167 247 -167 270 -167 c 0,0,1
198 421 m 256,39,40
 198 448 198 448 214 465 c 128,-1,41
 230 482 230 482 259 482 c 256,42,43
 288 482 288 482 304 465 c 128,-1,44
 320 448 320 448 320 421 c 256,45,46
 320 394 320 394 304 377 c 128,-1,47
 288 360 288 360 259 360 c 256,48,49
 230 360 230 360 214 377 c 128,-1,50
 198 394 198 394 198 421 c 256,39,40
EndSplineSet
EndChar

StartChar: OE
Encoding: 338 338 123
Width: 957
Flags: W
LayerCount: 2
Fore
SplineSet
37 330 m 256,0,1
 37 404 37 404 60.5 468 c 128,-1,2
 84 532 84 532 127.5 579 c 128,-1,3
 171 626 171 626 231.5 653 c 128,-1,4
 292 680 292 680 367 680 c 0,5,6
 409 680 409 680 434 674 c 128,-1,7
 459 668 459 668 482 660 c 1,8,-1
 813 660 l 2,9,10
 839 660 839 660 855.5 653 c 128,-1,11
 872 646 872 646 881.5 635 c 128,-1,12
 891 624 891 624 894.5 609.5 c 128,-1,13
 898 595 898 595 898 580 c 2,14,-1
 898 495 l 1,15,-1
 868 495 l 1,16,17
 868 559 868 559 835.5 587 c 128,-1,18
 803 615 803 615 743 615 c 2,19,-1
 582 615 l 1,20,-1
 582 365 l 1,21,-1
 842 365 l 1,22,-1
 842 320 l 1,23,-1
 582 320 l 1,24,-1
 582 45 l 1,25,-1
 753 45 l 2,26,27
 808 45 808 45 846.5 69.5 c 128,-1,28
 885 94 885 94 911 159 c 1,29,-1
 938 149 l 1,30,-1
 909 70 l 2,31,32
 898 38 898 38 880.5 19 c 128,-1,33
 863 0 863 0 822 0 c 2,34,-1
 482 0 l 1,35,36
 456 -11 456 -11 428.5 -15.5 c 128,-1,37
 401 -20 401 -20 367 -20 c 0,38,39
 292 -20 292 -20 231.5 7 c 128,-1,40
 171 34 171 34 127.5 81 c 128,-1,41
 84 128 84 128 60.5 192 c 128,-1,42
 37 256 37 256 37 330 c 256,0,1
367 25 m 0,43,44
 414 25 414 25 452 48 c 1,45,-1
 452 611 l 1,46,47
 414 635 414 635 367 635 c 0,48,49
 276 635 276 635 226.5 555.5 c 128,-1,50
 177 476 177 476 177 330 c 256,51,52
 177 184 177 184 226.5 104.5 c 128,-1,53
 276 25 276 25 367 25 c 0,43,44
EndSplineSet
EndChar

StartChar: Ydieresis
Encoding: 376 376 124
Width: 638
Flags: W
LayerCount: 2
Fore
SplineSet
328 746 m 256,0,1
 328 723 328 723 313 706.5 c 128,-1,2
 298 690 298 690 272 690 c 256,3,4
 246 690 246 690 231 706.5 c 128,-1,5
 216 723 216 723 216 746 c 256,6,7
 216 769 216 769 231 785.5 c 128,-1,8
 246 802 246 802 272 802 c 256,9,10
 298 802 298 802 313 785.5 c 128,-1,11
 328 769 328 769 328 746 c 256,0,1
377 345 m 1,12,-1
 571 660 l 1,13,-1
 636 660 l 1,14,-1
 409 291 l 1,15,-1
 409 0 l 1,16,-1
 279 0 l 1,17,-1
 279 264 l 1,18,-1
 102 530 l 2,19,20
 89 549 89 549 73 568 c 128,-1,21
 57 587 57 587 39.5 602.5 c 128,-1,22
 22 618 22 618 4 628 c 128,-1,23
 -14 638 -14 638 -31 640 c 1,24,-1
 -31 660 l 1,25,-1
 78 660 l 2,26,27
 106 660 106 660 130.5 650 c 128,-1,28
 155 640 155 640 175.5 624 c 128,-1,29
 196 608 196 608 212.5 588.5 c 128,-1,30
 229 569 229 569 241 550 c 2,31,-1
 377 345 l 1,12,-1
498 746 m 256,32,33
 498 723 498 723 483 706.5 c 128,-1,34
 468 690 468 690 442 690 c 256,35,36
 416 690 416 690 401 706.5 c 128,-1,37
 386 723 386 723 386 746 c 256,38,39
 386 769 386 769 401 785.5 c 128,-1,40
 416 802 416 802 442 802 c 256,41,42
 468 802 468 802 483 785.5 c 128,-1,43
 498 769 498 769 498 746 c 256,32,33
EndSplineSet
EndChar

StartChar: oe
Encoding: 339 339 125
Width: 853
Flags: W
LayerCount: 2
Fore
SplineSet
626 35 m 0,0,1
 678 35 678 35 710.5 59 c 128,-1,2
 743 83 743 83 769 118 c 1,3,-1
 800 95 l 1,4,5
 789 78 789 78 773.5 59.5 c 128,-1,6
 758 41 758 41 735.5 25.5 c 128,-1,7
 713 10 713 10 682.5 0 c 128,-1,8
 652 -10 652 -10 611 -10 c 0,9,10
 560 -10 560 -10 518.5 7 c 128,-1,11
 477 24 477 24 447 56 c 1,12,13
 416 25 416 25 373 7.5 c 128,-1,14
 330 -10 330 -10 276 -10 c 0,15,16
 220 -10 220 -10 175.5 9 c 128,-1,17
 131 28 131 28 100 61 c 128,-1,18
 69 94 69 94 52.5 139 c 128,-1,19
 36 184 36 184 36 235 c 256,20,21
 36 286 36 286 52.5 331 c 128,-1,22
 69 376 69 376 100 409 c 128,-1,23
 131 442 131 442 175.5 461 c 128,-1,24
 220 480 220 480 276 480 c 0,25,26
 329 480 329 480 371 463 c 128,-1,27
 413 446 413 446 444 417 c 1,28,29
 504 480 504 480 601 480 c 0,30,31
 648 480 648 480 688 465.5 c 128,-1,32
 728 451 728 451 757.5 425 c 128,-1,33
 787 399 787 399 804 362 c 128,-1,34
 821 325 821 325 821 280 c 0,35,36
 821 269 821 269 820.5 257.5 c 128,-1,37
 820 246 820 246 819 237 c 0,38,39
 818 226 818 226 817 217 c 1,40,-1
 516 217 l 1,41,42
 516 118 516 118 546.5 76.5 c 128,-1,43
 577 35 577 35 626 35 c 0,0,1
381 235 m 256,44,45
 381 278 381 278 374.5 314.5 c 128,-1,46
 368 351 368 351 355 378 c 128,-1,47
 342 405 342 405 322 420 c 128,-1,48
 302 435 302 435 276 435 c 256,49,50
 250 435 250 435 230 420 c 128,-1,51
 210 405 210 405 197 378 c 128,-1,52
 184 351 184 351 177.5 314.5 c 128,-1,53
 171 278 171 278 171 235 c 256,54,55
 171 192 171 192 177.5 155.5 c 128,-1,56
 184 119 184 119 197 92 c 128,-1,57
 210 65 210 65 230 50 c 128,-1,58
 250 35 250 35 276 35 c 256,59,60
 302 35 302 35 322 50 c 128,-1,61
 342 65 342 65 355 92 c 128,-1,62
 368 119 368 119 374.5 155.5 c 128,-1,63
 381 192 381 192 381 235 c 256,44,45
686 262 m 1,64,65
 686 312 686 312 679.5 345 c 128,-1,66
 673 378 673 378 662 398 c 128,-1,67
 651 418 651 418 635.5 426.5 c 128,-1,68
 620 435 620 435 601 435 c 0,69,70
 584 435 584 435 568.5 426.5 c 128,-1,71
 553 418 553 418 541.5 398 c 128,-1,72
 530 378 530 378 523 345 c 128,-1,73
 516 312 516 312 516 262 c 1,74,-1
 686 262 l 1,64,65
EndSplineSet
EndChar

StartChar: ordmasculine
Encoding: 186 186 126
Width: 337
Flags: W
LayerCount: 2
Fore
SplineSet
168 664 m 0,0,1
 157 664 157 664 147 658 c 128,-1,2
 137 652 137 652 130 636.5 c 128,-1,3
 123 621 123 621 119 594.5 c 128,-1,4
 115 568 115 568 115 528 c 256,5,6
 115 488 115 488 119 462 c 128,-1,7
 123 436 123 436 130 420.5 c 128,-1,8
 137 405 137 405 147 398.5 c 128,-1,9
 157 392 157 392 168 392 c 0,10,11
 180 392 180 392 190 398.5 c 128,-1,12
 200 405 200 405 207 420.5 c 128,-1,13
 214 436 214 436 218 462 c 128,-1,14
 222 488 222 488 222 528 c 256,15,16
 222 568 222 568 218 594.5 c 128,-1,17
 214 621 214 621 206.5 636.5 c 128,-1,18
 199 652 199 652 189.5 658 c 128,-1,19
 180 664 180 664 168 664 c 0,0,1
168 689 m 0,20,21
 202 689 202 689 226 676 c 128,-1,22
 250 663 250 663 265 641 c 128,-1,23
 280 619 280 619 287 590 c 128,-1,24
 294 561 294 561 294 528 c 0,25,26
 294 496 294 496 287 466.5 c 128,-1,27
 280 437 280 437 265 415 c 128,-1,28
 250 393 250 393 226 380 c 128,-1,29
 202 367 202 367 168 367 c 0,30,31
 135 367 135 367 111 380 c 128,-1,32
 87 393 87 393 72 415 c 128,-1,33
 57 437 57 437 50 466.5 c 128,-1,34
 43 496 43 496 43 528 c 0,35,36
 43 561 43 561 50 590 c 128,-1,37
 57 619 57 619 72 641 c 128,-1,38
 87 663 87 663 111 676 c 128,-1,39
 135 689 135 689 168 689 c 0,20,21
EndSplineSet
EndChar

StartChar: mu
Encoding: 181 181 127
Width: 550
Flags: W
LayerCount: 2
Fore
SplineSet
273 -10 m 0,0,1
 243 -10 243 -10 219.5 1 c 128,-1,2
 196 12 196 12 173 35 c 1,3,-1
 173 -190 l 1,4,-1
 63 -190 l 1,5,-1
 63 470 l 1,6,-1
 193 470 l 1,7,-1
 193 235 l 2,8,9
 193 133 193 133 218 84 c 128,-1,10
 243 35 243 35 288 35 c 0,11,12
 322 35 322 35 342 54.5 c 128,-1,13
 362 74 362 74 373 100 c 1,14,-1
 373 470 l 1,15,-1
 503 470 l 1,16,-1
 503 0 l 1,17,-1
 418 0 l 1,18,-1
 383 45 l 1,19,-1
 378 45 l 1,20,21
 367 29 367 29 352 17 c 0,22,23
 338 6 338 6 318.5 -2 c 128,-1,24
 299 -10 299 -10 273 -10 c 0,0,1
EndSplineSet
EndChar

StartChar: ordfeminine
Encoding: 170 170 128
Width: 324
Flags: W
LayerCount: 2
Fore
SplineSet
196 522 m 1,0,-1
 180 522 l 2,1,2
 151 522 151 522 132.5 506.5 c 128,-1,3
 114 491 114 491 114 466 c 0,4,5
 114 440 114 440 125.5 430.5 c 128,-1,6
 137 421 137 421 150 421 c 0,7,8
 167 421 167 421 178.5 432.5 c 128,-1,9
 190 444 190 444 196 455 c 1,10,-1
 196 522 l 1,0,-1
222 401 m 1,11,-1
 203 426 l 1,12,-1
 200 426 l 1,13,14
 191 416 191 416 175 406 c 128,-1,15
 159 396 159 396 131 396 c 0,16,17
 95 396 95 396 68.5 412 c 128,-1,18
 42 428 42 428 42 466 c 256,19,20
 42 504 42 504 76.5 525.5 c 128,-1,21
 111 547 111 547 180 547 c 2,22,-1
 196 547 l 1,23,24
 196 575 196 575 192 592.5 c 128,-1,25
 188 610 188 610 181.5 619.5 c 128,-1,26
 175 629 175 629 166.5 632 c 128,-1,27
 158 635 158 635 150 635 c 0,28,29
 122 635 122 635 108.5 621 c 128,-1,30
 95 607 95 607 90 583 c 1,31,-1
 61 583 l 1,32,33
 61 597 61 597 62.5 613.5 c 128,-1,34
 64 630 64 630 75 641 c 0,35,36
 85 652 85 652 108.5 656 c 128,-1,37
 132 660 132 660 160 660 c 0,38,39
 182 660 182 660 201.5 656 c 128,-1,40
 221 652 221 652 236 640 c 128,-1,41
 251 628 251 628 259.5 605.5 c 128,-1,42
 268 583 268 583 268 547 c 2,43,-1
 268 401 l 1,44,-1
 222 401 l 1,11,-1
EndSplineSet
EndChar

StartChar: dieresis
Encoding: 168 168 129
Width: 282
Flags: W
LayerCount: 2
Fore
SplineSet
112 746 m 256,0,1
 112 723 112 723 97 706.5 c 128,-1,2
 82 690 82 690 56 690 c 256,3,4
 30 690 30 690 15 706.5 c 128,-1,5
 0 723 0 723 0 746 c 256,6,7
 0 769 0 769 15 785.5 c 128,-1,8
 30 802 30 802 56 802 c 256,9,10
 82 802 82 802 97 785.5 c 128,-1,11
 112 769 112 769 112 746 c 256,0,1
282 746 m 256,12,13
 282 723 282 723 267 706.5 c 128,-1,14
 252 690 252 690 226 690 c 256,15,16
 200 690 200 690 185 706.5 c 128,-1,17
 170 723 170 723 170 746 c 256,18,19
 170 769 170 769 185 785.5 c 128,-1,20
 200 802 200 802 226 802 c 256,21,22
 252 802 252 802 267 785.5 c 128,-1,23
 282 769 282 769 282 746 c 256,12,13
EndSplineSet
EndChar

StartChar: circumflex
Encoding: 710 710 130
Width: 330
Flags: W
LayerCount: 2
Fore
SplineSet
165 740 m 1,0,-1
 80 660 l 1,1,-1
 20 660 l 1,2,-1
 100 785 l 1,3,-1
 230 785 l 1,4,-1
 310 660 l 1,5,-1
 250 660 l 1,6,-1
 165 740 l 1,0,-1
EndSplineSet
EndChar

StartChar: acute
Encoding: 180 180 131
Width: 201
Flags: W
LayerCount: 2
Fore
SplineSet
75 700 m 1,0,-1
 20 700 l 1,1,-1
 62 840 l 1,2,-1
 181 840 l 1,3,-1
 75 700 l 1,0,-1
EndSplineSet
EndChar

StartChar: cedilla
Encoding: 184 184 132
Width: 200
Flags: W
LayerCount: 2
Fore
SplineSet
45 0 m 1,0,-1
 110 0 l 1,1,-1
 110 -50 l 1,2,3
 152 -50 152 -50 176 -71 c 128,-1,4
 200 -92 200 -92 200 -128 c 0,5,6
 200 -163 200 -163 176 -184.5 c 128,-1,7
 152 -206 152 -206 110 -206 c 2,8,-1
 40 -206 l 1,9,-1
 40 -160 l 1,10,-1
 90 -160 l 2,11,12
 109 -160 109 -160 119.5 -150.5 c 128,-1,13
 130 -141 130 -141 130 -128 c 0,14,15
 130 -114 130 -114 119.5 -104.5 c 128,-1,16
 109 -95 109 -95 90 -95 c 2,17,-1
 45 -95 l 1,18,-1
 45 0 l 1,0,-1
EndSplineSet
EndChar

StartChar: tilde
Encoding: 732 732 133
Width: 275
Flags: W
LayerCount: 2
Fore
SplineSet
20 680 m 1,0,1
 20 740 20 740 39 760 c 128,-1,2
 58 780 58 780 88 780 c 0,3,4
 105 780 105 780 117.5 773.5 c 128,-1,5
 130 767 130 767 140.5 759.5 c 128,-1,6
 151 752 151 752 160.5 746 c 128,-1,7
 170 740 170 740 180 740 c 0,8,9
 197 740 197 740 206 752.5 c 128,-1,10
 215 765 215 765 215 780 c 1,11,-1
 255 780 l 1,12,13
 255 720 255 720 236.5 700 c 128,-1,14
 218 680 218 680 188 680 c 0,15,16
 171 680 171 680 158.5 686 c 128,-1,17
 146 692 146 692 135.5 699.5 c 128,-1,18
 125 707 125 707 115 713.5 c 128,-1,19
 105 720 105 720 95 720 c 0,20,21
 78 720 78 720 69 707.5 c 128,-1,22
 60 695 60 695 60 680 c 1,23,-1
 20 680 l 1,0,1
EndSplineSet
EndChar

StartChar: periodcentered
Encoding: 183 183 134
Width: 226
Flags: W
LayerCount: 2
Fore
SplineSet
174 331 m 256,0,1
 174 304 174 304 158 287 c 128,-1,2
 142 270 142 270 113 270 c 256,3,4
 84 270 84 270 68 287 c 128,-1,5
 52 304 52 304 52 331 c 256,6,7
 52 358 52 358 68 375 c 128,-1,8
 84 392 84 392 113 392 c 256,9,10
 142 392 142 392 158 375 c 128,-1,11
 174 358 174 358 174 331 c 256,0,1
EndSplineSet
EndChar

StartChar: Agrave
Encoding: 192 192 138
Width: 647
Flags: W
LayerCount: 2
Fore
SplineSet
572 126 m 2,0,1
 590 82 590 82 616 56 c 128,-1,2
 642 30 642 30 676 26 c 1,3,-1
 676 1 l 1,4,5
 668 -1 668 -1 653.5 -2.5 c 128,-1,6
 639 -4 639 -4 628 -4 c 0,7,8
 604 -4 604 -4 576.5 0.5 c 128,-1,9
 549 5 549 5 522.5 18.5 c 128,-1,10
 496 32 496 32 472.5 57.5 c 128,-1,11
 449 83 449 83 431 126 c 2,12,-1
 408 182 l 1,13,-1
 142 182 l 1,14,-1
 60 0 l 1,15,-1
 8 0 l 1,16,-1
 303 660 l 1,17,-1
 348 660 l 1,18,-1
 572 126 l 2,0,1
163 227 m 1,19,-1
 389 227 l 1,20,-1
 279 488 l 1,21,-1
 163 227 l 1,19,-1
189 840 m 1,22,-1
 308 840 l 1,23,-1
 350 700 l 1,24,-1
 295 700 l 1,25,-1
 189 840 l 1,22,-1
EndSplineSet
EndChar

StartChar: Aacute
Encoding: 193 193 139
Width: 647
Flags: W
LayerCount: 2
Fore
SplineSet
572 126 m 2,0,1
 590 82 590 82 616 56 c 128,-1,2
 642 30 642 30 676 26 c 1,3,-1
 676 1 l 1,4,5
 668 -1 668 -1 653.5 -2.5 c 128,-1,6
 639 -4 639 -4 628 -4 c 0,7,8
 604 -4 604 -4 576.5 0.5 c 128,-1,9
 549 5 549 5 522.5 18.5 c 128,-1,10
 496 32 496 32 472.5 57.5 c 128,-1,11
 449 83 449 83 431 126 c 2,12,-1
 408 182 l 1,13,-1
 142 182 l 1,14,-1
 60 0 l 1,15,-1
 8 0 l 1,16,-1
 303 660 l 1,17,-1
 348 660 l 1,18,-1
 572 126 l 2,0,1
163 227 m 1,19,-1
 389 227 l 1,20,-1
 279 488 l 1,21,-1
 163 227 l 1,19,-1
356 700 m 1,22,-1
 301 700 l 1,23,-1
 343 840 l 1,24,-1
 462 840 l 1,25,-1
 356 700 l 1,22,-1
EndSplineSet
EndChar

StartChar: Acircumflex
Encoding: 194 194 140
Width: 647
Flags: W
LayerCount: 2
Fore
SplineSet
572 126 m 2,0,1
 590 82 590 82 616 56 c 128,-1,2
 642 30 642 30 676 26 c 1,3,-1
 676 1 l 1,4,5
 668 -1 668 -1 653.5 -2.5 c 128,-1,6
 639 -4 639 -4 628 -4 c 0,7,8
 604 -4 604 -4 576.5 0.5 c 128,-1,9
 549 5 549 5 522.5 18.5 c 128,-1,10
 496 32 496 32 472.5 57.5 c 128,-1,11
 449 83 449 83 431 126 c 2,12,-1
 408 182 l 1,13,-1
 142 182 l 1,14,-1
 60 0 l 1,15,-1
 8 0 l 1,16,-1
 303 660 l 1,17,-1
 348 660 l 1,18,-1
 572 126 l 2,0,1
163 227 m 1,19,-1
 389 227 l 1,20,-1
 279 488 l 1,21,-1
 163 227 l 1,19,-1
323 765 m 1,22,-1
 238 685 l 1,23,-1
 178 685 l 1,24,-1
 258 810 l 1,25,-1
 388 810 l 1,26,-1
 468 685 l 1,27,-1
 408 685 l 1,28,-1
 323 765 l 1,22,-1
EndSplineSet
EndChar

StartChar: Atilde
Encoding: 195 195 141
Width: 647
Flags: W
LayerCount: 2
Fore
SplineSet
210 700 m 1,0,1
 210 760 210 760 229 780 c 128,-1,2
 248 800 248 800 278 800 c 0,3,4
 295 800 295 800 307.5 793.5 c 128,-1,5
 320 787 320 787 330.5 779.5 c 128,-1,6
 341 772 341 772 350.5 766 c 128,-1,7
 360 760 360 760 370 760 c 0,8,9
 387 760 387 760 396 772.5 c 128,-1,10
 405 785 405 785 405 800 c 1,11,-1
 445 800 l 1,12,13
 445 740 445 740 426.5 720 c 128,-1,14
 408 700 408 700 378 700 c 0,15,16
 361 700 361 700 348.5 706 c 128,-1,17
 336 712 336 712 325.5 719.5 c 128,-1,18
 315 727 315 727 305 733.5 c 128,-1,19
 295 740 295 740 285 740 c 0,20,21
 268 740 268 740 259 727.5 c 128,-1,22
 250 715 250 715 250 700 c 1,23,-1
 210 700 l 1,0,1
572 126 m 2,24,25
 590 82 590 82 616 56 c 128,-1,26
 642 30 642 30 676 26 c 1,27,-1
 676 1 l 1,28,29
 668 -1 668 -1 653.5 -2.5 c 128,-1,30
 639 -4 639 -4 628 -4 c 0,31,32
 604 -4 604 -4 576.5 0.5 c 128,-1,33
 549 5 549 5 522.5 18.5 c 128,-1,34
 496 32 496 32 472.5 57.5 c 128,-1,35
 449 83 449 83 431 126 c 2,36,-1
 408 182 l 1,37,-1
 142 182 l 1,38,-1
 60 0 l 1,39,-1
 8 0 l 1,40,-1
 303 660 l 1,41,-1
 348 660 l 1,42,-1
 572 126 l 2,24,25
163 227 m 1,43,-1
 389 227 l 1,44,-1
 279 488 l 1,45,-1
 163 227 l 1,43,-1
EndSplineSet
EndChar

StartChar: Adieresis
Encoding: 196 196 142
Width: 647
Flags: W
LayerCount: 2
Fore
SplineSet
572 126 m 2,0,1
 590 82 590 82 616 56 c 128,-1,2
 642 30 642 30 676 26 c 1,3,-1
 676 1 l 1,4,5
 668 -1 668 -1 653.5 -2.5 c 128,-1,6
 639 -4 639 -4 628 -4 c 0,7,8
 604 -4 604 -4 576.5 0.5 c 128,-1,9
 549 5 549 5 522.5 18.5 c 128,-1,10
 496 32 496 32 472.5 57.5 c 128,-1,11
 449 83 449 83 431 126 c 2,12,-1
 408 182 l 1,13,-1
 142 182 l 1,14,-1
 60 0 l 1,15,-1
 8 0 l 1,16,-1
 303 660 l 1,17,-1
 348 660 l 1,18,-1
 572 126 l 2,0,1
163 227 m 1,19,-1
 389 227 l 1,20,-1
 279 488 l 1,21,-1
 163 227 l 1,19,-1
295 746 m 256,22,23
 295 723 295 723 280 706.5 c 128,-1,24
 265 690 265 690 239 690 c 256,25,26
 213 690 213 690 198 706.5 c 128,-1,27
 183 723 183 723 183 746 c 256,28,29
 183 769 183 769 198 785.5 c 128,-1,30
 213 802 213 802 239 802 c 256,31,32
 265 802 265 802 280 785.5 c 128,-1,33
 295 769 295 769 295 746 c 256,22,23
465 746 m 256,34,35
 465 723 465 723 450 706.5 c 128,-1,36
 435 690 435 690 409 690 c 256,37,38
 383 690 383 690 368 706.5 c 128,-1,39
 353 723 353 723 353 746 c 256,40,41
 353 769 353 769 368 785.5 c 128,-1,42
 383 802 383 802 409 802 c 256,43,44
 435 802 435 802 450 785.5 c 128,-1,45
 465 769 465 769 465 746 c 256,34,35
EndSplineSet
EndChar

StartChar: Aring
Encoding: 197 197 143
Width: 647
Flags: W
LayerCount: 2
Fore
SplineSet
420 705 m 0,0,1
 420 672 420 672 401.5 649.5 c 128,-1,2
 383 627 383 627 365 619 c 1,3,-1
 572 126 l 2,4,5
 590 82 590 82 616 56 c 128,-1,6
 642 30 642 30 676 26 c 1,7,-1
 676 1 l 1,8,9
 668 -1 668 -1 653.5 -2.5 c 128,-1,10
 639 -4 639 -4 628 -4 c 0,11,12
 604 -4 604 -4 576.5 0.5 c 128,-1,13
 549 5 549 5 522.5 18.5 c 128,-1,14
 496 32 496 32 472.5 57.5 c 128,-1,15
 449 83 449 83 431 126 c 2,16,-1
 408 182 l 1,17,-1
 142 182 l 1,18,-1
 60 0 l 1,19,-1
 8 0 l 1,20,-1
 284 619 l 1,21,22
 266 628 266 628 248 650 c 128,-1,23
 230 672 230 672 230 705 c 0,24,25
 230 747 230 747 256.5 773.5 c 128,-1,26
 283 800 283 800 325 800 c 256,27,28
 367 800 367 800 393.5 773.5 c 128,-1,29
 420 747 420 747 420 705 c 0,0,1
163 227 m 1,30,-1
 389 227 l 1,31,-1
 279 488 l 1,32,-1
 163 227 l 1,30,-1
348 660 m 1,33,34
 370 675 370 675 370 705 c 0,35,36
 370 728 370 728 357 741.5 c 128,-1,37
 344 755 344 755 325 755 c 256,38,39
 306 755 306 755 293 741.5 c 128,-1,40
 280 728 280 728 280 705 c 0,41,42
 280 675 280 675 303 660 c 1,43,-1
 348 660 l 1,33,34
EndSplineSet
EndChar

StartChar: AE
Encoding: 198 198 144
Width: 868
Flags: W
LayerCount: 2
Fore
SplineSet
724 660 m 2,0,1
 750 660 750 660 766.5 653 c 128,-1,2
 783 646 783 646 792.5 635 c 128,-1,3
 802 624 802 624 805.5 609.5 c 128,-1,4
 809 595 809 595 809 580 c 2,5,-1
 809 495 l 1,6,-1
 779 495 l 1,7,8
 779 559 779 559 746.5 587 c 128,-1,9
 714 615 714 615 654 615 c 2,10,-1
 493 615 l 1,11,-1
 493 365 l 1,12,-1
 753 365 l 1,13,-1
 753 320 l 1,14,-1
 493 320 l 1,15,-1
 493 45 l 1,16,-1
 664 45 l 2,17,18
 719 45 719 45 757.5 69.5 c 128,-1,19
 796 94 796 94 822 159 c 1,20,-1
 849 149 l 1,21,-1
 820 70 l 2,22,23
 809 38 809 38 791.5 19 c 128,-1,24
 774 0 774 0 733 0 c 2,25,-1
 363 0 l 1,26,-1
 363 190 l 1,27,-1
 145 190 l 1,28,-1
 38 0 l 1,29,-1
 -22 0 l 1,30,-1
 348 660 l 1,31,-1
 724 660 l 2,0,1
363 235 m 1,32,-1
 363 579 l 1,33,-1
 170 235 l 1,34,-1
 363 235 l 1,32,-1
EndSplineSet
EndChar

StartChar: Ccedilla
Encoding: 199 199 145
Width: 681
Flags: W
LayerCount: 2
Fore
SplineSet
601 447 m 1,0,1
 582 538 582 538 531.5 586.5 c 128,-1,2
 481 635 481 635 398 635 c 0,3,4
 352 635 352 635 312 620 c 128,-1,5
 272 605 272 605 242 568.5 c 128,-1,6
 212 532 212 532 195 471.5 c 128,-1,7
 178 411 178 411 178 320 c 0,8,9
 178 263 178 263 190 209.5 c 128,-1,10
 202 156 202 156 228.5 115 c 128,-1,11
 255 74 255 74 296.5 49.5 c 128,-1,12
 338 25 338 25 398 25 c 0,13,14
 467 25 467 25 526 61.5 c 128,-1,15
 585 98 585 98 621 168 c 1,16,-1
 656 141 l 1,17,18
 611 61 611 61 547.5 22.5 c 128,-1,19
 484 -16 484 -16 388 -19 c 1,20,-1
 388 -50 l 1,21,22
 430 -50 430 -50 454 -71 c 128,-1,23
 478 -92 478 -92 478 -128 c 0,24,25
 478 -163 478 -163 454 -184.5 c 128,-1,26
 430 -206 430 -206 388 -206 c 2,27,-1
 318 -206 l 1,28,-1
 318 -160 l 1,29,-1
 368 -160 l 2,30,31
 387 -160 387 -160 397.5 -150.5 c 128,-1,32
 408 -141 408 -141 408 -128 c 0,33,34
 408 -114 408 -114 397.5 -104.5 c 128,-1,35
 387 -95 387 -95 368 -95 c 2,36,-1
 323 -95 l 1,37,-1
 323 -17 l 1,38,39
 255 -10 255 -10 202 18.5 c 128,-1,40
 149 47 149 47 112.5 92 c 128,-1,41
 76 137 76 137 57 195 c 128,-1,42
 38 253 38 253 38 320 c 0,43,44
 38 396 38 396 63 461.5 c 128,-1,45
 88 527 88 527 132 575.5 c 128,-1,46
 176 624 176 624 236.5 652 c 128,-1,47
 297 680 297 680 368 680 c 0,48,49
 462 680 462 680 519.5 655.5 c 128,-1,50
 577 631 577 631 605 599 c 1,51,52
 625 573 625 573 628 532 c 128,-1,53
 631 491 631 491 631 447 c 1,54,-1
 601 447 l 1,0,1
EndSplineSet
EndChar

StartChar: Egrave
Encoding: 200 200 146
Width: 600
Flags: W
LayerCount: 2
Fore
SplineSet
456 660 m 2,0,1
 482 660 482 660 498.5 653 c 128,-1,2
 515 646 515 646 524.5 635 c 128,-1,3
 534 624 534 624 537.5 609.5 c 128,-1,4
 541 595 541 595 541 580 c 2,5,-1
 541 495 l 1,6,-1
 511 495 l 1,7,8
 511 559 511 559 478.5 587 c 128,-1,9
 446 615 446 615 386 615 c 2,10,-1
 225 615 l 1,11,-1
 225 365 l 1,12,-1
 485 365 l 1,13,-1
 485 320 l 1,14,-1
 225 320 l 1,15,-1
 225 45 l 1,16,-1
 396 45 l 2,17,18
 451 45 451 45 489.5 69.5 c 128,-1,19
 528 94 528 94 554 159 c 1,20,-1
 581 149 l 1,21,-1
 552 70 l 2,22,23
 541 38 541 38 523.5 19 c 128,-1,24
 506 0 506 0 465 0 c 2,25,-1
 95 0 l 1,26,-1
 95 530 l 2,27,28
 95 575 95 575 82.5 602.5 c 128,-1,29
 70 630 70 630 25 630 c 2,30,-1
 15 630 l 1,31,-1
 15 660 l 1,32,-1
 456 660 l 2,0,1
191 840 m 1,33,-1
 310 840 l 1,34,-1
 352 700 l 1,35,-1
 297 700 l 1,36,-1
 191 840 l 1,33,-1
EndSplineSet
EndChar

StartChar: Eacute
Encoding: 201 201 147
Width: 600
Flags: W
LayerCount: 2
Fore
SplineSet
456 660 m 2,0,1
 482 660 482 660 498.5 653 c 128,-1,2
 515 646 515 646 524.5 635 c 128,-1,3
 534 624 534 624 537.5 609.5 c 128,-1,4
 541 595 541 595 541 580 c 2,5,-1
 541 495 l 1,6,-1
 511 495 l 1,7,8
 511 559 511 559 478.5 587 c 128,-1,9
 446 615 446 615 386 615 c 2,10,-1
 225 615 l 1,11,-1
 225 365 l 1,12,-1
 485 365 l 1,13,-1
 485 320 l 1,14,-1
 225 320 l 1,15,-1
 225 45 l 1,16,-1
 396 45 l 2,17,18
 451 45 451 45 489.5 69.5 c 128,-1,19
 528 94 528 94 554 159 c 1,20,-1
 581 149 l 1,21,-1
 552 70 l 2,22,23
 541 38 541 38 523.5 19 c 128,-1,24
 506 0 506 0 465 0 c 2,25,-1
 95 0 l 1,26,-1
 95 530 l 2,27,28
 95 575 95 575 82.5 602.5 c 128,-1,29
 70 630 70 630 25 630 c 2,30,-1
 15 630 l 1,31,-1
 15 660 l 1,32,-1
 456 660 l 2,0,1
336 700 m 1,33,-1
 281 700 l 1,34,-1
 323 840 l 1,35,-1
 442 840 l 1,36,-1
 336 700 l 1,33,-1
EndSplineSet
EndChar

StartChar: Ecircumflex
Encoding: 202 202 148
Width: 600
Flags: W
LayerCount: 2
Fore
SplineSet
456 660 m 2,0,1
 482 660 482 660 498.5 653 c 128,-1,2
 515 646 515 646 524.5 635 c 128,-1,3
 534 624 534 624 537.5 609.5 c 128,-1,4
 541 595 541 595 541 580 c 2,5,-1
 541 495 l 1,6,-1
 511 495 l 1,7,8
 511 559 511 559 478.5 587 c 128,-1,9
 446 615 446 615 386 615 c 2,10,-1
 225 615 l 1,11,-1
 225 365 l 1,12,-1
 485 365 l 1,13,-1
 485 320 l 1,14,-1
 225 320 l 1,15,-1
 225 45 l 1,16,-1
 396 45 l 2,17,18
 451 45 451 45 489.5 69.5 c 128,-1,19
 528 94 528 94 554 159 c 1,20,-1
 581 149 l 1,21,-1
 552 70 l 2,22,23
 541 38 541 38 523.5 19 c 128,-1,24
 506 0 506 0 465 0 c 2,25,-1
 95 0 l 1,26,-1
 95 530 l 2,27,28
 95 575 95 575 82.5 602.5 c 128,-1,29
 70 630 70 630 25 630 c 2,30,-1
 15 630 l 1,31,-1
 15 660 l 1,32,-1
 456 660 l 2,0,1
305 802 m 1,33,-1
 220 722 l 1,34,-1
 160 722 l 1,35,-1
 240 847 l 1,36,-1
 370 847 l 1,37,-1
 450 722 l 1,38,-1
 390 722 l 1,39,-1
 305 802 l 1,33,-1
EndSplineSet
EndChar

StartChar: Edieresis
Encoding: 203 203 149
Width: 600
Flags: W
LayerCount: 2
Fore
SplineSet
456 660 m 2,0,1
 482 660 482 660 498.5 653 c 128,-1,2
 515 646 515 646 524.5 635 c 128,-1,3
 534 624 534 624 537.5 609.5 c 128,-1,4
 541 595 541 595 541 580 c 2,5,-1
 541 495 l 1,6,-1
 511 495 l 1,7,8
 511 559 511 559 478.5 587 c 128,-1,9
 446 615 446 615 386 615 c 2,10,-1
 225 615 l 1,11,-1
 225 365 l 1,12,-1
 485 365 l 1,13,-1
 485 320 l 1,14,-1
 225 320 l 1,15,-1
 225 45 l 1,16,-1
 396 45 l 2,17,18
 451 45 451 45 489.5 69.5 c 128,-1,19
 528 94 528 94 554 159 c 1,20,-1
 581 149 l 1,21,-1
 552 70 l 2,22,23
 541 38 541 38 523.5 19 c 128,-1,24
 506 0 506 0 465 0 c 2,25,-1
 95 0 l 1,26,-1
 95 530 l 2,27,28
 95 575 95 575 82.5 602.5 c 128,-1,29
 70 630 70 630 25 630 c 2,30,-1
 15 630 l 1,31,-1
 15 660 l 1,32,-1
 456 660 l 2,0,1
268 786 m 256,33,34
 268 763 268 763 253 746.5 c 128,-1,35
 238 730 238 730 212 730 c 256,36,37
 186 730 186 730 171 746.5 c 128,-1,38
 156 763 156 763 156 786 c 256,39,40
 156 809 156 809 171 825.5 c 128,-1,41
 186 842 186 842 212 842 c 256,42,43
 238 842 238 842 253 825.5 c 128,-1,44
 268 809 268 809 268 786 c 256,33,34
448 786 m 256,45,46
 448 763 448 763 433 746.5 c 128,-1,47
 418 730 418 730 392 730 c 256,48,49
 366 730 366 730 351 746.5 c 128,-1,50
 336 763 336 763 336 786 c 256,51,52
 336 809 336 809 351 825.5 c 128,-1,53
 366 842 366 842 392 842 c 256,54,55
 418 842 418 842 433 825.5 c 128,-1,56
 448 809 448 809 448 786 c 256,45,46
EndSplineSet
EndChar

StartChar: Igrave
Encoding: 204 204 150
Width: 304
Flags: W
LayerCount: 2
Fore
SplineSet
79 660 m 1,0,-1
 209 660 l 1,1,-1
 209 130 l 2,2,3
 209 85 209 85 221.5 57.5 c 128,-1,4
 234 30 234 30 279 30 c 2,5,-1
 289 30 l 1,6,-1
 289 0 l 1,7,-1
 169 0 l 2,8,9
 143 0 143 0 125.5 6 c 128,-1,10
 108 12 108 12 97.5 27 c 128,-1,11
 87 42 87 42 83 67 c 128,-1,12
 79 92 79 92 79 130 c 2,13,-1
 79 660 l 1,0,-1
21 840 m 1,14,-1
 140 840 l 1,15,-1
 182 700 l 1,16,-1
 127 700 l 1,17,-1
 21 840 l 1,14,-1
EndSplineSet
EndChar

StartChar: Iacute
Encoding: 205 205 151
Width: 304
Flags: W
LayerCount: 2
Fore
SplineSet
79 660 m 1,0,-1
 209 660 l 1,1,-1
 209 130 l 2,2,3
 209 85 209 85 221.5 57.5 c 128,-1,4
 234 30 234 30 279 30 c 2,5,-1
 289 30 l 1,6,-1
 289 0 l 1,7,-1
 169 0 l 2,8,9
 143 0 143 0 125.5 6 c 128,-1,10
 108 12 108 12 97.5 27 c 128,-1,11
 87 42 87 42 83 67 c 128,-1,12
 79 92 79 92 79 130 c 2,13,-1
 79 660 l 1,0,-1
166 700 m 1,14,-1
 111 700 l 1,15,-1
 153 840 l 1,16,-1
 272 840 l 1,17,-1
 166 700 l 1,14,-1
EndSplineSet
EndChar

StartChar: Icircumflex
Encoding: 206 206 152
Width: 304
Flags: W
LayerCount: 2
Fore
SplineSet
79 660 m 1,0,-1
 209 660 l 1,1,-1
 209 130 l 2,2,3
 209 85 209 85 221.5 57.5 c 128,-1,4
 234 30 234 30 279 30 c 2,5,-1
 289 30 l 1,6,-1
 289 0 l 1,7,-1
 169 0 l 2,8,9
 143 0 143 0 125.5 6 c 128,-1,10
 108 12 108 12 97.5 27 c 128,-1,11
 87 42 87 42 83 67 c 128,-1,12
 79 92 79 92 79 130 c 2,13,-1
 79 660 l 1,0,-1
144 775 m 1,14,-1
 59 695 l 1,15,-1
 -1 695 l 1,16,-1
 79 820 l 1,17,-1
 209 820 l 1,18,-1
 289 695 l 1,19,-1
 229 695 l 1,20,-1
 144 775 l 1,14,-1
EndSplineSet
EndChar

StartChar: Idieresis
Encoding: 207 207 153
Width: 304
Flags: W
LayerCount: 2
Fore
SplineSet
79 660 m 1,0,-1
 209 660 l 1,1,-1
 209 130 l 2,2,3
 209 85 209 85 221.5 57.5 c 128,-1,4
 234 30 234 30 279 30 c 2,5,-1
 289 30 l 1,6,-1
 289 0 l 1,7,-1
 169 0 l 2,8,9
 143 0 143 0 125.5 6 c 128,-1,10
 108 12 108 12 97.5 27 c 128,-1,11
 87 42 87 42 83 67 c 128,-1,12
 79 92 79 92 79 130 c 2,13,-1
 79 660 l 1,0,-1
117 771 m 256,14,15
 117 748 117 748 102 731.5 c 128,-1,16
 87 715 87 715 61 715 c 256,17,18
 35 715 35 715 20 731.5 c 128,-1,19
 5 748 5 748 5 771 c 256,20,21
 5 794 5 794 20 810.5 c 128,-1,22
 35 827 35 827 61 827 c 256,23,24
 87 827 87 827 102 810.5 c 128,-1,25
 117 794 117 794 117 771 c 256,14,15
283 771 m 256,26,27
 283 748 283 748 268 731.5 c 128,-1,28
 253 715 253 715 227 715 c 256,29,30
 201 715 201 715 186 731.5 c 128,-1,31
 171 748 171 748 171 771 c 256,32,33
 171 794 171 794 186 810.5 c 128,-1,34
 201 827 201 827 227 827 c 256,35,36
 253 827 253 827 268 810.5 c 128,-1,37
 283 794 283 794 283 771 c 256,26,27
EndSplineSet
EndChar

StartChar: Ntilde
Encoding: 209 209 154
Width: 692
Flags: W
LayerCount: 2
Fore
SplineSet
568 200 m 1,0,-1
 568 660 l 1,1,-1
 618 660 l 1,2,-1
 618 -3 l 1,3,-1
 572 -3 l 1,4,-1
 148 495 l 1,5,-1
 148 0 l 1,6,-1
 98 0 l 1,7,-1
 98 540 l 2,8,9
 98 559 98 559 94 575.5 c 128,-1,10
 90 592 90 592 79.5 604 c 128,-1,11
 69 616 69 616 51.5 623 c 128,-1,12
 34 630 34 630 8 630 c 2,13,-1
 3 630 l 1,14,-1
 3 660 l 1,15,-1
 73 660 l 2,16,17
 130 660 130 660 165.5 645 c 128,-1,18
 201 630 201 630 224 600 c 1,19,-1
 568 200 l 1,0,-1
235 694 m 1,20,21
 235 754 235 754 254 774 c 128,-1,22
 273 794 273 794 303 794 c 0,23,24
 320 794 320 794 332.5 787.5 c 128,-1,25
 345 781 345 781 355.5 773.5 c 128,-1,26
 366 766 366 766 375.5 760 c 128,-1,27
 385 754 385 754 395 754 c 0,28,29
 412 754 412 754 421 766.5 c 128,-1,30
 430 779 430 779 430 794 c 1,31,-1
 470 794 l 1,32,33
 470 734 470 734 451.5 714 c 128,-1,34
 433 694 433 694 403 694 c 0,35,36
 386 694 386 694 373.5 700 c 128,-1,37
 361 706 361 706 350.5 713.5 c 128,-1,38
 340 721 340 721 330 727.5 c 128,-1,39
 320 734 320 734 310 734 c 0,40,41
 293 734 293 734 284 721.5 c 128,-1,42
 275 709 275 709 275 694 c 1,43,-1
 235 694 l 1,20,21
EndSplineSet
EndChar

StartChar: Ograve
Encoding: 210 210 155
Width: 733
Flags: W
LayerCount: 2
Fore
SplineSet
558 330 m 256,0,1
 558 476 558 476 508 555.5 c 128,-1,2
 458 635 458 635 367 635 c 256,3,4
 276 635 276 635 226.5 555.5 c 128,-1,5
 177 476 177 476 177 330 c 256,6,7
 177 184 177 184 226.5 104.5 c 128,-1,8
 276 25 276 25 367 25 c 256,9,10
 458 25 458 25 508 104.5 c 128,-1,11
 558 184 558 184 558 330 c 256,0,1
37 330 m 256,12,13
 37 404 37 404 60.5 468 c 128,-1,14
 84 532 84 532 127.5 579 c 128,-1,15
 171 626 171 626 231.5 653 c 128,-1,16
 292 680 292 680 367 680 c 256,17,18
 442 680 442 680 502.5 653 c 128,-1,19
 563 626 563 626 606 579 c 128,-1,20
 649 532 649 532 672.5 468 c 128,-1,21
 696 404 696 404 696 330 c 256,22,23
 696 256 696 256 672.5 192 c 128,-1,24
 649 128 649 128 606 81 c 128,-1,25
 563 34 563 34 502.5 7 c 128,-1,26
 442 -20 442 -20 367 -20 c 256,27,28
 292 -20 292 -20 231.5 7 c 128,-1,29
 171 34 171 34 127.5 81 c 128,-1,30
 84 128 84 128 60.5 192 c 128,-1,31
 37 256 37 256 37 330 c 256,12,13
238 864 m 1,32,-1
 357 864 l 1,33,-1
 399 724 l 1,34,-1
 344 724 l 1,35,-1
 238 864 l 1,32,-1
EndSplineSet
EndChar

StartChar: Oacute
Encoding: 211 211 156
Width: 733
Flags: W
LayerCount: 2
Fore
SplineSet
558 330 m 256,0,1
 558 476 558 476 508 555.5 c 128,-1,2
 458 635 458 635 367 635 c 256,3,4
 276 635 276 635 226.5 555.5 c 128,-1,5
 177 476 177 476 177 330 c 256,6,7
 177 184 177 184 226.5 104.5 c 128,-1,8
 276 25 276 25 367 25 c 256,9,10
 458 25 458 25 508 104.5 c 128,-1,11
 558 184 558 184 558 330 c 256,0,1
37 330 m 256,12,13
 37 404 37 404 60.5 468 c 128,-1,14
 84 532 84 532 127.5 579 c 128,-1,15
 171 626 171 626 231.5 653 c 128,-1,16
 292 680 292 680 367 680 c 256,17,18
 442 680 442 680 502.5 653 c 128,-1,19
 563 626 563 626 606 579 c 128,-1,20
 649 532 649 532 672.5 468 c 128,-1,21
 696 404 696 404 696 330 c 256,22,23
 696 256 696 256 672.5 192 c 128,-1,24
 649 128 649 128 606 81 c 128,-1,25
 563 34 563 34 502.5 7 c 128,-1,26
 442 -20 442 -20 367 -20 c 256,27,28
 292 -20 292 -20 231.5 7 c 128,-1,29
 171 34 171 34 127.5 81 c 128,-1,30
 84 128 84 128 60.5 192 c 128,-1,31
 37 256 37 256 37 330 c 256,12,13
393 724 m 1,32,-1
 338 724 l 1,33,-1
 380 864 l 1,34,-1
 499 864 l 1,35,-1
 393 724 l 1,32,-1
EndSplineSet
EndChar

StartChar: Otilde
Encoding: 213 213 157
Width: 733
Flags: W
LayerCount: 2
Fore
SplineSet
558 330 m 256,0,1
 558 476 558 476 508 555.5 c 128,-1,2
 458 635 458 635 367 635 c 256,3,4
 276 635 276 635 226.5 555.5 c 128,-1,5
 177 476 177 476 177 330 c 256,6,7
 177 184 177 184 226.5 104.5 c 128,-1,8
 276 25 276 25 367 25 c 256,9,10
 458 25 458 25 508 104.5 c 128,-1,11
 558 184 558 184 558 330 c 256,0,1
37 330 m 256,12,13
 37 404 37 404 60.5 468 c 128,-1,14
 84 532 84 532 127.5 579 c 128,-1,15
 171 626 171 626 231.5 653 c 128,-1,16
 292 680 292 680 367 680 c 256,17,18
 442 680 442 680 502.5 653 c 128,-1,19
 563 626 563 626 606 579 c 128,-1,20
 649 532 649 532 672.5 468 c 128,-1,21
 696 404 696 404 696 330 c 256,22,23
 696 256 696 256 672.5 192 c 128,-1,24
 649 128 649 128 606 81 c 128,-1,25
 563 34 563 34 502.5 7 c 128,-1,26
 442 -20 442 -20 367 -20 c 256,27,28
 292 -20 292 -20 231.5 7 c 128,-1,29
 171 34 171 34 127.5 81 c 128,-1,30
 84 128 84 128 60.5 192 c 128,-1,31
 37 256 37 256 37 330 c 256,12,13
249 738 m 1,32,33
 249 798 249 798 268 818 c 128,-1,34
 287 838 287 838 317 838 c 0,35,36
 334 838 334 838 346.5 831.5 c 128,-1,37
 359 825 359 825 369.5 817.5 c 128,-1,38
 380 810 380 810 389.5 804 c 128,-1,39
 399 798 399 798 409 798 c 0,40,41
 426 798 426 798 435 810.5 c 128,-1,42
 444 823 444 823 444 838 c 1,43,-1
 484 838 l 1,44,45
 484 778 484 778 465.5 758 c 128,-1,46
 447 738 447 738 417 738 c 0,47,48
 400 738 400 738 387.5 744 c 128,-1,49
 375 750 375 750 364.5 757.5 c 128,-1,50
 354 765 354 765 344 771.5 c 128,-1,51
 334 778 334 778 324 778 c 0,52,53
 307 778 307 778 298 765.5 c 128,-1,54
 289 753 289 753 289 738 c 1,55,-1
 249 738 l 1,32,33
EndSplineSet
EndChar

StartChar: Odieresis
Encoding: 214 214 158
Width: 733
Flags: W
LayerCount: 2
Fore
SplineSet
558 330 m 256,0,1
 558 476 558 476 508 555.5 c 128,-1,2
 458 635 458 635 367 635 c 256,3,4
 276 635 276 635 226.5 555.5 c 128,-1,5
 177 476 177 476 177 330 c 256,6,7
 177 184 177 184 226.5 104.5 c 128,-1,8
 276 25 276 25 367 25 c 256,9,10
 458 25 458 25 508 104.5 c 128,-1,11
 558 184 558 184 558 330 c 256,0,1
37 330 m 256,12,13
 37 404 37 404 60.5 468 c 128,-1,14
 84 532 84 532 127.5 579 c 128,-1,15
 171 626 171 626 231.5 653 c 128,-1,16
 292 680 292 680 367 680 c 256,17,18
 442 680 442 680 502.5 653 c 128,-1,19
 563 626 563 626 606 579 c 128,-1,20
 649 532 649 532 672.5 468 c 128,-1,21
 696 404 696 404 696 330 c 256,22,23
 696 256 696 256 672.5 192 c 128,-1,24
 649 128 649 128 606 81 c 128,-1,25
 563 34 563 34 502.5 7 c 128,-1,26
 442 -20 442 -20 367 -20 c 256,27,28
 292 -20 292 -20 231.5 7 c 128,-1,29
 171 34 171 34 127.5 81 c 128,-1,30
 84 128 84 128 60.5 192 c 128,-1,31
 37 256 37 256 37 330 c 256,12,13
333 791 m 256,32,33
 333 768 333 768 318 751.5 c 128,-1,34
 303 735 303 735 277 735 c 256,35,36
 251 735 251 735 236 751.5 c 128,-1,37
 221 768 221 768 221 791 c 256,38,39
 221 814 221 814 236 830.5 c 128,-1,40
 251 847 251 847 277 847 c 256,41,42
 303 847 303 847 318 830.5 c 128,-1,43
 333 814 333 814 333 791 c 256,32,33
513 791 m 256,44,45
 513 768 513 768 498 751.5 c 128,-1,46
 483 735 483 735 457 735 c 256,47,48
 431 735 431 735 416 751.5 c 128,-1,49
 401 768 401 768 401 791 c 256,50,51
 401 814 401 814 416 830.5 c 128,-1,52
 431 847 431 847 457 847 c 256,53,54
 483 847 483 847 498 830.5 c 128,-1,55
 513 814 513 814 513 791 c 256,44,45
EndSplineSet
EndChar

StartChar: Oslash
Encoding: 216 216 159
Width: 733
Flags: W
LayerCount: 2
Fore
SplineSet
107 -20 m 1,0,-1
 152 56 l 1,1,2
 97 104 97 104 67 174.5 c 128,-1,3
 37 245 37 245 37 330 c 0,4,5
 37 404 37 404 60.5 468 c 128,-1,6
 84 532 84 532 127.5 579 c 128,-1,7
 171 626 171 626 231.5 653 c 128,-1,8
 292 680 292 680 367 680 c 0,9,10
 445 680 445 680 510 649 c 1,11,-1
 528 680 l 1,12,-1
 620 680 l 1,13,-1
 576 607 l 1,14,15
 633 559 633 559 664.5 488 c 128,-1,16
 696 417 696 417 696 330 c 0,17,18
 696 256 696 256 672.5 192 c 128,-1,19
 649 128 649 128 606 81 c 128,-1,20
 563 34 563 34 502.5 7 c 128,-1,21
 442 -20 442 -20 367 -20 c 0,22,23
 325 -20 325 -20 288 -11.5 c 128,-1,24
 251 -3 251 -3 219 13 c 1,25,-1
 199 -20 l 1,26,-1
 107 -20 l 1,0,-1
558 330 m 0,27,28
 558 389 558 389 549.5 436.5 c 128,-1,29
 541 484 541 484 525 522 c 1,30,-1
 253 70 l 1,31,32
 298 25 298 25 367 25 c 0,33,34
 458 25 458 25 508 104.5 c 128,-1,35
 558 184 558 184 558 330 c 0,27,28
177 330 m 0,36,37
 177 220 177 220 206 145 c 1,38,-1
 476 593 l 1,39,40
 429 635 429 635 367 635 c 0,41,42
 276 635 276 635 226.5 555.5 c 128,-1,43
 177 476 177 476 177 330 c 0,36,37
EndSplineSet
EndChar

StartChar: Ugrave
Encoding: 217 217 160
Width: 695
Flags: W
LayerCount: 2
Fore
SplineSet
224 258 m 2,0,1
 225 150 225 150 260 90 c 128,-1,2
 295 30 295 30 375 30 c 0,3,4
 430 30 430 30 469 45.5 c 128,-1,5
 508 61 508 61 532 92.5 c 128,-1,6
 556 124 556 124 567 172.5 c 128,-1,7
 578 221 578 221 578 288 c 2,8,-1
 578 660 l 1,9,-1
 628 660 l 1,10,-1
 628 288 l 2,11,12
 628 217 628 217 614.5 162 c 128,-1,13
 601 107 601 107 570.5 68.5 c 128,-1,14
 540 30 540 30 489 10 c 128,-1,15
 438 -10 438 -10 363 -10 c 0,16,17
 220 -10 220 -10 156.5 64.5 c 128,-1,18
 93 139 93 139 93 288 c 2,19,-1
 93 530 l 2,20,21
 93 575 93 575 80.5 602.5 c 128,-1,22
 68 630 68 630 23 630 c 1,23,-1
 23 660 l 1,24,-1
 133 660 l 2,25,26
 159 660 159 660 176.5 653.5 c 128,-1,27
 194 647 194 647 204.5 632 c 128,-1,28
 215 617 215 617 219 592 c 128,-1,29
 223 567 223 567 223 530 c 2,30,-1
 224 258 l 2,0,1
263 820 m 1,31,-1
 382 820 l 1,32,-1
 424 680 l 1,33,-1
 369 680 l 1,34,-1
 263 820 l 1,31,-1
EndSplineSet
EndChar

StartChar: Uacute
Encoding: 218 218 161
Width: 695
Flags: W
LayerCount: 2
Fore
SplineSet
224 258 m 2,0,1
 225 150 225 150 260 90 c 128,-1,2
 295 30 295 30 375 30 c 0,3,4
 430 30 430 30 469 45.5 c 128,-1,5
 508 61 508 61 532 92.5 c 128,-1,6
 556 124 556 124 567 172.5 c 128,-1,7
 578 221 578 221 578 288 c 2,8,-1
 578 660 l 1,9,-1
 628 660 l 1,10,-1
 628 288 l 2,11,12
 628 217 628 217 614.5 162 c 128,-1,13
 601 107 601 107 570.5 68.5 c 128,-1,14
 540 30 540 30 489 10 c 128,-1,15
 438 -10 438 -10 363 -10 c 0,16,17
 220 -10 220 -10 156.5 64.5 c 128,-1,18
 93 139 93 139 93 288 c 2,19,-1
 93 530 l 2,20,21
 93 575 93 575 80.5 602.5 c 128,-1,22
 68 630 68 630 23 630 c 1,23,-1
 23 660 l 1,24,-1
 133 660 l 2,25,26
 159 660 159 660 176.5 653.5 c 128,-1,27
 194 647 194 647 204.5 632 c 128,-1,28
 215 617 215 617 219 592 c 128,-1,29
 223 567 223 567 223 530 c 2,30,-1
 224 258 l 2,0,1
392 680 m 1,31,-1
 337 680 l 1,32,-1
 379 820 l 1,33,-1
 498 820 l 1,34,-1
 392 680 l 1,31,-1
EndSplineSet
EndChar

StartChar: Ucircumflex
Encoding: 219 219 162
Width: 695
Flags: W
LayerCount: 2
Fore
SplineSet
388 761 m 1,0,-1
 303 681 l 1,1,-1
 243 681 l 1,2,-1
 323 806 l 1,3,-1
 453 806 l 1,4,-1
 533 681 l 1,5,-1
 473 681 l 1,6,-1
 388 761 l 1,0,-1
224 258 m 2,7,8
 225 150 225 150 260 90 c 128,-1,9
 295 30 295 30 375 30 c 0,10,11
 430 30 430 30 469 45.5 c 128,-1,12
 508 61 508 61 532 92.5 c 128,-1,13
 556 124 556 124 567 172.5 c 128,-1,14
 578 221 578 221 578 288 c 2,15,-1
 578 660 l 1,16,-1
 628 660 l 1,17,-1
 628 288 l 2,18,19
 628 217 628 217 614.5 162 c 128,-1,20
 601 107 601 107 570.5 68.5 c 128,-1,21
 540 30 540 30 489 10 c 128,-1,22
 438 -10 438 -10 363 -10 c 0,23,24
 220 -10 220 -10 156.5 64.5 c 128,-1,25
 93 139 93 139 93 288 c 2,26,-1
 93 530 l 2,27,28
 93 575 93 575 80.5 602.5 c 128,-1,29
 68 630 68 630 23 630 c 1,30,-1
 23 660 l 1,31,-1
 133 660 l 2,32,33
 159 660 159 660 176.5 653.5 c 128,-1,34
 194 647 194 647 204.5 632 c 128,-1,35
 215 617 215 617 219 592 c 128,-1,36
 223 567 223 567 223 530 c 2,37,-1
 224 258 l 2,7,8
EndSplineSet
EndChar

StartChar: Udieresis
Encoding: 220 220 163
Width: 695
Flags: W
LayerCount: 2
Fore
SplineSet
224 258 m 2,0,1
 225 150 225 150 260 90 c 128,-1,2
 295 30 295 30 375 30 c 0,3,4
 430 30 430 30 469 45.5 c 128,-1,5
 508 61 508 61 532 92.5 c 128,-1,6
 556 124 556 124 567 172.5 c 128,-1,7
 578 221 578 221 578 288 c 2,8,-1
 578 660 l 1,9,-1
 628 660 l 1,10,-1
 628 288 l 2,11,12
 628 217 628 217 614.5 162 c 128,-1,13
 601 107 601 107 570.5 68.5 c 128,-1,14
 540 30 540 30 489 10 c 128,-1,15
 438 -10 438 -10 363 -10 c 0,16,17
 220 -10 220 -10 156.5 64.5 c 128,-1,18
 93 139 93 139 93 288 c 2,19,-1
 93 530 l 2,20,21
 93 575 93 575 80.5 602.5 c 128,-1,22
 68 630 68 630 23 630 c 1,23,-1
 23 660 l 1,24,-1
 133 660 l 2,25,26
 159 660 159 660 176.5 653.5 c 128,-1,27
 194 647 194 647 204.5 632 c 128,-1,28
 215 617 215 617 219 592 c 128,-1,29
 223 567 223 567 223 530 c 2,30,-1
 224 258 l 2,0,1
348 736 m 256,31,32
 348 713 348 713 333 696.5 c 128,-1,33
 318 680 318 680 292 680 c 256,34,35
 266 680 266 680 251 696.5 c 128,-1,36
 236 713 236 713 236 736 c 256,37,38
 236 759 236 759 251 775.5 c 128,-1,39
 266 792 266 792 292 792 c 256,40,41
 318 792 318 792 333 775.5 c 128,-1,42
 348 759 348 759 348 736 c 256,31,32
530 736 m 256,43,44
 530 713 530 713 515 696.5 c 128,-1,45
 500 680 500 680 474 680 c 256,46,47
 448 680 448 680 433 696.5 c 128,-1,48
 418 713 418 713 418 736 c 256,49,50
 418 759 418 759 433 775.5 c 128,-1,51
 448 792 448 792 474 792 c 256,52,53
 500 792 500 792 515 775.5 c 128,-1,54
 530 759 530 759 530 736 c 256,43,44
EndSplineSet
EndChar

StartChar: germandbls
Encoding: 223 223 164
Width: 572
Flags: W
LayerCount: 2
Fore
SplineSet
340 550 m 0,0,1
 340 588 340 588 320 606.5 c 128,-1,2
 300 625 300 625 270 625 c 0,3,4
 236 625 236 625 213 598 c 128,-1,5
 190 571 190 571 190 500 c 2,6,-1
 190 0 l 1,7,-1
 60 0 l 1,8,-1
 60 500 l 2,9,10
 60 552 60 552 76 585.5 c 128,-1,11
 92 619 92 619 120.5 637.5 c 128,-1,12
 149 656 149 656 188.5 663 c 128,-1,13
 228 670 228 670 275 670 c 0,14,15
 373 670 373 670 419 642.5 c 128,-1,16
 465 615 465 615 465 570 c 0,17,18
 465 529 465 529 445.5 502.5 c 128,-1,19
 426 476 426 476 402.5 455 c 128,-1,20
 379 434 379 434 359.5 415 c 128,-1,21
 340 396 340 396 340 370 c 0,22,23
 340 343 340 343 356 323 c 128,-1,24
 372 303 372 303 396 286.5 c 128,-1,25
 420 270 420 270 447.5 254.5 c 128,-1,26
 475 239 475 239 499 220.5 c 128,-1,27
 523 202 523 202 539 178 c 128,-1,28
 555 154 555 154 555 120 c 256,29,30
 555 86 555 86 539.5 61.5 c 128,-1,31
 524 37 524 37 499.5 21 c 128,-1,32
 475 5 475 5 443.5 -2.5 c 128,-1,33
 412 -10 412 -10 380 -10 c 0,34,35
 342 -10 342 -10 308 0.5 c 128,-1,36
 274 11 274 11 255 30 c 256,37,38
 236 49 236 49 233 75 c 128,-1,39
 230 101 230 101 230 120 c 1,40,-1
 260 120 l 1,41,42
 262 105 262 105 269.5 90 c 128,-1,43
 277 75 277 75 289.5 62.5 c 128,-1,44
 302 50 302 50 319.5 42.5 c 128,-1,45
 337 35 337 35 360 35 c 0,46,47
 394 35 394 35 412 54.5 c 128,-1,48
 430 74 430 74 430 100 c 0,49,50
 430 127 430 127 415.5 147 c 128,-1,51
 401 167 401 167 379.5 183.5 c 128,-1,52
 358 200 358 200 332.5 215.5 c 128,-1,53
 307 231 307 231 285.5 249.5 c 128,-1,54
 264 268 264 268 249.5 292 c 128,-1,55
 235 316 235 316 235 350 c 0,56,57
 235 391 235 391 251.5 415 c 128,-1,58
 268 439 268 439 287.5 457.5 c 128,-1,59
 307 476 307 476 323.5 496 c 128,-1,60
 340 516 340 516 340 550 c 0,0,1
EndSplineSet
EndChar

StartChar: agrave
Encoding: 224 224 165
Width: 496
Flags: W
LayerCount: 2
Fore
SplineSet
314 230 m 1,0,-1
 299 230 l 2,1,2
 227 230 227 230 195.5 204 c 128,-1,3
 164 178 164 178 164 125 c 0,4,5
 164 83 164 83 181.5 61.5 c 128,-1,6
 199 40 199 40 229 40 c 0,7,8
 252 40 252 40 267.5 50 c 128,-1,9
 283 60 283 60 294 72 c 0,10,11
 306 86 306 86 314 105 c 1,12,-1
 314 230 l 1,0,-1
239 480 m 0,13,14
 337 480 337 480 390.5 428 c 128,-1,15
 444 376 444 376 444 270 c 2,16,-1
 444 0 l 1,17,-1
 359 0 l 1,18,-1
 324 45 l 1,19,-1
 319 45 l 1,20,21
 308 29 308 29 291 17 c 0,22,23
 277 6 277 6 254 -2 c 128,-1,24
 231 -10 231 -10 199 -10 c 0,25,26
 116 -10 116 -10 72.5 27.5 c 128,-1,27
 29 65 29 65 29 125 c 0,28,29
 29 161 29 161 41 188.5 c 128,-1,30
 53 216 53 216 83.5 235.5 c 128,-1,31
 114 255 114 255 166 265 c 128,-1,32
 218 275 218 275 299 275 c 2,33,-1
 314 275 l 1,34,35
 314 365 314 365 289 400 c 128,-1,36
 264 435 264 435 219 435 c 0,37,38
 202 435 202 435 186.5 431.5 c 128,-1,39
 171 428 171 428 158 418 c 128,-1,40
 145 408 145 408 135 390.5 c 128,-1,41
 125 373 125 373 119 345 c 1,42,-1
 64 345 l 1,43,44
 64 371 64 371 67.5 398 c 128,-1,45
 71 425 71 425 89 445 c 256,46,47
 107 465 107 465 148.5 472.5 c 128,-1,48
 190 480 190 480 239 480 c 0,13,14
115 665 m 1,49,-1
 234 665 l 1,50,-1
 276 525 l 1,51,-1
 221 525 l 1,52,-1
 115 665 l 1,49,-1
EndSplineSet
EndChar

StartChar: aacute
Encoding: 225 225 166
Width: 496
Flags: W
LayerCount: 2
Fore
SplineSet
314 230 m 1,0,-1
 299 230 l 2,1,2
 227 230 227 230 195.5 204 c 128,-1,3
 164 178 164 178 164 125 c 0,4,5
 164 83 164 83 181.5 61.5 c 128,-1,6
 199 40 199 40 229 40 c 0,7,8
 252 40 252 40 267.5 50 c 128,-1,9
 283 60 283 60 294 72 c 0,10,11
 306 86 306 86 314 105 c 1,12,-1
 314 230 l 1,0,-1
239 480 m 0,13,14
 337 480 337 480 390.5 428 c 128,-1,15
 444 376 444 376 444 270 c 2,16,-1
 444 0 l 1,17,-1
 359 0 l 1,18,-1
 324 45 l 1,19,-1
 319 45 l 1,20,21
 308 29 308 29 291 17 c 0,22,23
 277 6 277 6 254 -2 c 128,-1,24
 231 -10 231 -10 199 -10 c 0,25,26
 116 -10 116 -10 72.5 27.5 c 128,-1,27
 29 65 29 65 29 125 c 0,28,29
 29 161 29 161 41 188.5 c 128,-1,30
 53 216 53 216 83.5 235.5 c 128,-1,31
 114 255 114 255 166 265 c 128,-1,32
 218 275 218 275 299 275 c 2,33,-1
 314 275 l 1,34,35
 314 365 314 365 289 400 c 128,-1,36
 264 435 264 435 219 435 c 0,37,38
 202 435 202 435 186.5 431.5 c 128,-1,39
 171 428 171 428 158 418 c 128,-1,40
 145 408 145 408 135 390.5 c 128,-1,41
 125 373 125 373 119 345 c 1,42,-1
 64 345 l 1,43,44
 64 371 64 371 67.5 398 c 128,-1,45
 71 425 71 425 89 445 c 256,46,47
 107 465 107 465 148.5 472.5 c 128,-1,48
 190 480 190 480 239 480 c 0,13,14
256 525 m 1,49,-1
 201 525 l 1,50,-1
 243 665 l 1,51,-1
 362 665 l 1,52,-1
 256 525 l 1,49,-1
EndSplineSet
EndChar

StartChar: acircumflex
Encoding: 226 226 167
Width: 496
Flags: W
LayerCount: 2
Fore
SplineSet
314 230 m 1,0,-1
 299 230 l 2,1,2
 227 230 227 230 195.5 204 c 128,-1,3
 164 178 164 178 164 125 c 0,4,5
 164 83 164 83 181.5 61.5 c 128,-1,6
 199 40 199 40 229 40 c 0,7,8
 252 40 252 40 267.5 50 c 128,-1,9
 283 60 283 60 294 72 c 0,10,11
 306 86 306 86 314 105 c 1,12,-1
 314 230 l 1,0,-1
239 480 m 0,13,14
 337 480 337 480 390.5 428 c 128,-1,15
 444 376 444 376 444 270 c 2,16,-1
 444 0 l 1,17,-1
 359 0 l 1,18,-1
 324 45 l 1,19,-1
 319 45 l 1,20,21
 308 29 308 29 291 17 c 0,22,23
 277 6 277 6 254 -2 c 128,-1,24
 231 -10 231 -10 199 -10 c 0,25,26
 116 -10 116 -10 72.5 27.5 c 128,-1,27
 29 65 29 65 29 125 c 0,28,29
 29 161 29 161 41 188.5 c 128,-1,30
 53 216 53 216 83.5 235.5 c 128,-1,31
 114 255 114 255 166 265 c 128,-1,32
 218 275 218 275 299 275 c 2,33,-1
 314 275 l 1,34,35
 314 365 314 365 289 400 c 128,-1,36
 264 435 264 435 219 435 c 0,37,38
 202 435 202 435 186.5 431.5 c 128,-1,39
 171 428 171 428 158 418 c 128,-1,40
 145 408 145 408 135 390.5 c 128,-1,41
 125 373 125 373 119 345 c 1,42,-1
 64 345 l 1,43,44
 64 371 64 371 67.5 398 c 128,-1,45
 71 425 71 425 89 445 c 256,46,47
 107 465 107 465 148.5 472.5 c 128,-1,48
 190 480 190 480 239 480 c 0,13,14
250 610 m 1,49,-1
 165 530 l 1,50,-1
 105 530 l 1,51,-1
 185 655 l 1,52,-1
 315 655 l 1,53,-1
 395 530 l 1,54,-1
 335 530 l 1,55,-1
 250 610 l 1,49,-1
EndSplineSet
EndChar

StartChar: atilde
Encoding: 227 227 168
Width: 496
Flags: W
LayerCount: 2
Fore
SplineSet
314 230 m 1,0,-1
 299 230 l 2,1,2
 227 230 227 230 195.5 204 c 128,-1,3
 164 178 164 178 164 125 c 0,4,5
 164 83 164 83 181.5 61.5 c 128,-1,6
 199 40 199 40 229 40 c 0,7,8
 252 40 252 40 267.5 50 c 128,-1,9
 283 60 283 60 294 72 c 0,10,11
 306 86 306 86 314 105 c 1,12,-1
 314 230 l 1,0,-1
239 480 m 0,13,14
 337 480 337 480 390.5 428 c 128,-1,15
 444 376 444 376 444 270 c 2,16,-1
 444 0 l 1,17,-1
 359 0 l 1,18,-1
 324 45 l 1,19,-1
 319 45 l 1,20,21
 308 29 308 29 291 17 c 0,22,23
 277 6 277 6 254 -2 c 128,-1,24
 231 -10 231 -10 199 -10 c 0,25,26
 116 -10 116 -10 72.5 27.5 c 128,-1,27
 29 65 29 65 29 125 c 0,28,29
 29 161 29 161 41 188.5 c 128,-1,30
 53 216 53 216 83.5 235.5 c 128,-1,31
 114 255 114 255 166 265 c 128,-1,32
 218 275 218 275 299 275 c 2,33,-1
 314 275 l 1,34,35
 314 365 314 365 289 400 c 128,-1,36
 264 435 264 435 219 435 c 0,37,38
 202 435 202 435 186.5 431.5 c 128,-1,39
 171 428 171 428 158 418 c 128,-1,40
 145 408 145 408 135 390.5 c 128,-1,41
 125 373 125 373 119 345 c 1,42,-1
 64 345 l 1,43,44
 64 371 64 371 67.5 398 c 128,-1,45
 71 425 71 425 89 445 c 256,46,47
 107 465 107 465 148.5 472.5 c 128,-1,48
 190 480 190 480 239 480 c 0,13,14
128 535 m 1,49,50
 128 595 128 595 147 615 c 128,-1,51
 166 635 166 635 196 635 c 0,52,53
 213 635 213 635 225.5 628.5 c 128,-1,54
 238 622 238 622 248.5 614.5 c 128,-1,55
 259 607 259 607 268.5 601 c 128,-1,56
 278 595 278 595 288 595 c 0,57,58
 305 595 305 595 314 607.5 c 128,-1,59
 323 620 323 620 323 635 c 1,60,-1
 363 635 l 1,61,62
 363 575 363 575 344.5 555 c 128,-1,63
 326 535 326 535 296 535 c 0,64,65
 279 535 279 535 266.5 541 c 128,-1,66
 254 547 254 547 243.5 554.5 c 128,-1,67
 233 562 233 562 223 568.5 c 128,-1,68
 213 575 213 575 203 575 c 0,69,70
 186 575 186 575 177 562.5 c 128,-1,71
 168 550 168 550 168 535 c 1,72,-1
 128 535 l 1,49,50
EndSplineSet
EndChar

StartChar: adieresis
Encoding: 228 228 169
Width: 496
Flags: W
LayerCount: 2
Fore
SplineSet
314 230 m 1,0,-1
 299 230 l 2,1,2
 227 230 227 230 195.5 204 c 128,-1,3
 164 178 164 178 164 125 c 0,4,5
 164 83 164 83 181.5 61.5 c 128,-1,6
 199 40 199 40 229 40 c 0,7,8
 252 40 252 40 267.5 50 c 128,-1,9
 283 60 283 60 294 72 c 0,10,11
 306 86 306 86 314 105 c 1,12,-1
 314 230 l 1,0,-1
239 480 m 0,13,14
 337 480 337 480 390.5 428 c 128,-1,15
 444 376 444 376 444 270 c 2,16,-1
 444 0 l 1,17,-1
 359 0 l 1,18,-1
 324 45 l 1,19,-1
 319 45 l 1,20,21
 308 29 308 29 291 17 c 0,22,23
 277 6 277 6 254 -2 c 128,-1,24
 231 -10 231 -10 199 -10 c 0,25,26
 116 -10 116 -10 72.5 27.5 c 128,-1,27
 29 65 29 65 29 125 c 0,28,29
 29 161 29 161 41 188.5 c 128,-1,30
 53 216 53 216 83.5 235.5 c 128,-1,31
 114 255 114 255 166 265 c 128,-1,32
 218 275 218 275 299 275 c 2,33,-1
 314 275 l 1,34,35
 314 365 314 365 289 400 c 128,-1,36
 264 435 264 435 219 435 c 0,37,38
 202 435 202 435 186.5 431.5 c 128,-1,39
 171 428 171 428 158 418 c 128,-1,40
 145 408 145 408 135 390.5 c 128,-1,41
 125 373 125 373 119 345 c 1,42,-1
 64 345 l 1,43,44
 64 371 64 371 67.5 398 c 128,-1,45
 71 425 71 425 89 445 c 256,46,47
 107 465 107 465 148.5 472.5 c 128,-1,48
 190 480 190 480 239 480 c 0,13,14
215 591 m 256,49,50
 215 568 215 568 200 551.5 c 128,-1,51
 185 535 185 535 159 535 c 256,52,53
 133 535 133 535 118 551.5 c 128,-1,54
 103 568 103 568 103 591 c 256,55,56
 103 614 103 614 118 630.5 c 128,-1,57
 133 647 133 647 159 647 c 256,58,59
 185 647 185 647 200 630.5 c 128,-1,60
 215 614 215 614 215 591 c 256,49,50
395 591 m 256,61,62
 395 568 395 568 380 551.5 c 128,-1,63
 365 535 365 535 339 535 c 256,64,65
 313 535 313 535 298 551.5 c 128,-1,66
 283 568 283 568 283 591 c 256,67,68
 283 614 283 614 298 630.5 c 128,-1,69
 313 647 313 647 339 647 c 256,70,71
 365 647 365 647 380 630.5 c 128,-1,72
 395 614 395 614 395 591 c 256,61,62
EndSplineSet
EndChar

StartChar: aring
Encoding: 229 229 170
Width: 496
Flags: W
LayerCount: 2
Fore
SplineSet
149 615 m 256,0,1
 149 657 149 657 175.5 683.5 c 128,-1,2
 202 710 202 710 244 710 c 256,3,4
 286 710 286 710 312.5 683.5 c 128,-1,5
 339 657 339 657 339 615 c 256,6,7
 339 573 339 573 312.5 546.5 c 128,-1,8
 286 520 286 520 244 520 c 256,9,10
 202 520 202 520 175.5 546.5 c 128,-1,11
 149 573 149 573 149 615 c 256,0,1
289 615 m 256,12,13
 289 638 289 638 276 651.5 c 128,-1,14
 263 665 263 665 244 665 c 256,15,16
 225 665 225 665 212 651.5 c 128,-1,17
 199 638 199 638 199 615 c 256,18,19
 199 592 199 592 212 578.5 c 128,-1,20
 225 565 225 565 244 565 c 256,21,22
 263 565 263 565 276 578.5 c 128,-1,23
 289 592 289 592 289 615 c 256,12,13
314 230 m 1,24,-1
 299 230 l 2,25,26
 227 230 227 230 195.5 204 c 128,-1,27
 164 178 164 178 164 125 c 0,28,29
 164 83 164 83 181.5 61.5 c 128,-1,30
 199 40 199 40 229 40 c 0,31,32
 252 40 252 40 267.5 50 c 128,-1,33
 283 60 283 60 294 72 c 0,34,35
 306 86 306 86 314 105 c 1,36,-1
 314 230 l 1,24,-1
239 480 m 0,37,38
 337 480 337 480 390.5 428 c 128,-1,39
 444 376 444 376 444 270 c 2,40,-1
 444 0 l 1,41,-1
 359 0 l 1,42,-1
 324 45 l 1,43,-1
 319 45 l 1,44,45
 308 29 308 29 291 17 c 0,46,47
 277 6 277 6 254 -2 c 128,-1,48
 231 -10 231 -10 199 -10 c 0,49,50
 116 -10 116 -10 72.5 27.5 c 128,-1,51
 29 65 29 65 29 125 c 0,52,53
 29 161 29 161 41 188.5 c 128,-1,54
 53 216 53 216 83.5 235.5 c 128,-1,55
 114 255 114 255 166 265 c 128,-1,56
 218 275 218 275 299 275 c 2,57,-1
 314 275 l 1,58,59
 314 365 314 365 289 400 c 128,-1,60
 264 435 264 435 219 435 c 0,61,62
 202 435 202 435 186.5 431.5 c 128,-1,63
 171 428 171 428 158 418 c 128,-1,64
 145 408 145 408 135 390.5 c 128,-1,65
 125 373 125 373 119 345 c 1,66,-1
 64 345 l 1,67,68
 64 371 64 371 67.5 398 c 128,-1,69
 71 425 71 425 89 445 c 256,70,71
 107 465 107 465 148.5 472.5 c 128,-1,72
 190 480 190 480 239 480 c 0,37,38
EndSplineSet
EndChar

StartChar: ccedilla
Encoding: 231 231 171
Width: 498
Flags: W
LayerCount: 2
Fore
SplineSet
292 435 m 0,0,1
 239 435 239 435 205.5 386 c 128,-1,2
 172 337 172 337 172 235 c 0,3,4
 172 35 172 35 297 35 c 0,5,6
 349 35 349 35 381.5 59 c 128,-1,7
 414 83 414 83 440 118 c 1,8,-1
 471 95 l 1,9,10
 460 79 460 79 446 61.5 c 128,-1,11
 432 44 432 44 411.5 29 c 128,-1,12
 391 14 391 14 362.5 3.5 c 128,-1,13
 334 -7 334 -7 296 -9 c 1,14,-1
 296 -32 l 1,15,16
 334 -32 334 -32 358 -53 c 128,-1,17
 382 -74 382 -74 382 -110 c 0,18,19
 382 -145 382 -145 358 -166.5 c 128,-1,20
 334 -188 334 -188 296 -188 c 2,21,-1
 236 -188 l 1,22,-1
 236 -142 l 1,23,-1
 276 -142 l 2,24,25
 295 -142 295 -142 305.5 -132.5 c 128,-1,26
 316 -123 316 -123 316 -110 c 0,27,28
 316 -96 316 -96 305.5 -86.5 c 128,-1,29
 295 -77 295 -77 276 -77 c 2,30,-1
 237 -77 l 1,31,-1
 237 -7 l 1,32,33
 187 -1 187 -1 149.5 20.5 c 128,-1,34
 112 42 112 42 87 74 c 128,-1,35
 62 106 62 106 49.5 147.5 c 128,-1,36
 37 189 37 189 37 235 c 0,37,38
 37 285 37 285 52 329.5 c 128,-1,39
 67 374 67 374 97 407.5 c 128,-1,40
 127 441 127 441 172 460.5 c 128,-1,41
 217 480 217 480 277 480 c 0,42,43
 334 480 334 480 373.5 472 c 128,-1,44
 413 464 413 464 432 445 c 256,45,46
 451 426 451 426 454 394 c 128,-1,47
 457 362 457 362 457 305 c 1,48,-1
 427 305 l 1,49,50
 423 369 423 369 387.5 402 c 128,-1,51
 352 435 352 435 292 435 c 0,0,1
EndSplineSet
EndChar

StartChar: egrave
Encoding: 232 232 172
Width: 509
Flags: W
LayerCount: 2
Fore
SplineSet
129 665 m 1,0,-1
 248 665 l 1,1,-1
 290 525 l 1,2,-1
 235 525 l 1,3,-1
 129 665 l 1,0,-1
282 35 m 0,4,5
 334 35 334 35 366.5 59 c 128,-1,6
 399 83 399 83 425 118 c 1,7,-1
 456 95 l 1,8,9
 445 78 445 78 429.5 59.5 c 128,-1,10
 414 41 414 41 391.5 25.5 c 128,-1,11
 369 10 369 10 338.5 0 c 128,-1,12
 308 -10 308 -10 267 -10 c 0,13,14
 214 -10 214 -10 171.5 8.5 c 128,-1,15
 129 27 129 27 99 60 c 128,-1,16
 69 93 69 93 53 137.5 c 128,-1,17
 37 182 37 182 37 235 c 0,18,19
 37 295 37 295 54 341 c 128,-1,20
 71 387 71 387 100.5 417.5 c 128,-1,21
 130 448 130 448 170 464 c 128,-1,22
 210 480 210 480 257 480 c 256,23,24
 304 480 304 480 344 465.5 c 128,-1,25
 384 451 384 451 413.5 425 c 128,-1,26
 443 399 443 399 460 362 c 128,-1,27
 477 325 477 325 477 280 c 0,28,29
 477 269 477 269 476.5 257.5 c 128,-1,30
 476 246 476 246 475 237 c 0,31,32
 474 226 474 226 473 217 c 1,33,-1
 172 217 l 1,34,35
 172 118 172 118 202.5 76.5 c 128,-1,36
 233 35 233 35 282 35 c 0,4,5
342 262 m 1,37,38
 342 312 342 312 335.5 345 c 128,-1,39
 329 378 329 378 318 398 c 128,-1,40
 307 418 307 418 291.5 426.5 c 128,-1,41
 276 435 276 435 257 435 c 0,42,43
 240 435 240 435 224.5 426.5 c 128,-1,44
 209 418 209 418 197.5 398 c 128,-1,45
 186 378 186 378 179 345 c 128,-1,46
 172 312 172 312 172 262 c 1,47,-1
 342 262 l 1,37,38
EndSplineSet
EndChar

StartChar: eacute
Encoding: 233 233 173
Width: 509
Flags: W
LayerCount: 2
Fore
SplineSet
274 525 m 1,0,-1
 219 525 l 1,1,-1
 261 665 l 1,2,-1
 380 665 l 1,3,-1
 274 525 l 1,0,-1
282 35 m 0,4,5
 334 35 334 35 366.5 59 c 128,-1,6
 399 83 399 83 425 118 c 1,7,-1
 456 95 l 1,8,9
 445 78 445 78 429.5 59.5 c 128,-1,10
 414 41 414 41 391.5 25.5 c 128,-1,11
 369 10 369 10 338.5 0 c 128,-1,12
 308 -10 308 -10 267 -10 c 0,13,14
 214 -10 214 -10 171.5 8.5 c 128,-1,15
 129 27 129 27 99 60 c 128,-1,16
 69 93 69 93 53 137.5 c 128,-1,17
 37 182 37 182 37 235 c 0,18,19
 37 295 37 295 54 341 c 128,-1,20
 71 387 71 387 100.5 417.5 c 128,-1,21
 130 448 130 448 170 464 c 128,-1,22
 210 480 210 480 257 480 c 256,23,24
 304 480 304 480 344 465.5 c 128,-1,25
 384 451 384 451 413.5 425 c 128,-1,26
 443 399 443 399 460 362 c 128,-1,27
 477 325 477 325 477 280 c 0,28,29
 477 269 477 269 476.5 257.5 c 128,-1,30
 476 246 476 246 475 237 c 0,31,32
 474 226 474 226 473 217 c 1,33,-1
 172 217 l 1,34,35
 172 118 172 118 202.5 76.5 c 128,-1,36
 233 35 233 35 282 35 c 0,4,5
342 262 m 1,37,38
 342 312 342 312 335.5 345 c 128,-1,39
 329 378 329 378 318 398 c 128,-1,40
 307 418 307 418 291.5 426.5 c 128,-1,41
 276 435 276 435 257 435 c 0,42,43
 240 435 240 435 224.5 426.5 c 128,-1,44
 209 418 209 418 197.5 398 c 128,-1,45
 186 378 186 378 179 345 c 128,-1,46
 172 312 172 312 172 262 c 1,47,-1
 342 262 l 1,37,38
EndSplineSet
EndChar

StartChar: ecircumflex
Encoding: 234 234 174
Width: 509
Flags: W
LayerCount: 2
Fore
SplineSet
282 35 m 0,0,1
 334 35 334 35 366.5 59 c 128,-1,2
 399 83 399 83 425 118 c 1,3,-1
 456 95 l 1,4,5
 445 78 445 78 429.5 59.5 c 128,-1,6
 414 41 414 41 391.5 25.5 c 128,-1,7
 369 10 369 10 338.5 0 c 128,-1,8
 308 -10 308 -10 267 -10 c 0,9,10
 214 -10 214 -10 171.5 8.5 c 128,-1,11
 129 27 129 27 99 60 c 128,-1,12
 69 93 69 93 53 137.5 c 128,-1,13
 37 182 37 182 37 235 c 0,14,15
 37 295 37 295 54 341 c 128,-1,16
 71 387 71 387 100.5 417.5 c 128,-1,17
 130 448 130 448 170 464 c 128,-1,18
 210 480 210 480 257 480 c 256,19,20
 304 480 304 480 344 465.5 c 128,-1,21
 384 451 384 451 413.5 425 c 128,-1,22
 443 399 443 399 460 362 c 128,-1,23
 477 325 477 325 477 280 c 0,24,25
 477 269 477 269 476.5 257.5 c 128,-1,26
 476 246 476 246 475 237 c 0,27,28
 474 226 474 226 473 217 c 1,29,-1
 172 217 l 1,30,31
 172 118 172 118 202.5 76.5 c 128,-1,32
 233 35 233 35 282 35 c 0,0,1
342 262 m 1,33,34
 342 312 342 312 335.5 345 c 128,-1,35
 329 378 329 378 318 398 c 128,-1,36
 307 418 307 418 291.5 426.5 c 128,-1,37
 276 435 276 435 257 435 c 0,38,39
 240 435 240 435 224.5 426.5 c 128,-1,40
 209 418 209 418 197.5 398 c 128,-1,41
 186 378 186 378 179 345 c 128,-1,42
 172 312 172 312 172 262 c 1,43,-1
 342 262 l 1,33,34
252 605 m 1,44,-1
 167 525 l 1,45,-1
 107 525 l 1,46,-1
 187 650 l 1,47,-1
 317 650 l 1,48,-1
 397 525 l 1,49,-1
 337 525 l 1,50,-1
 252 605 l 1,44,-1
EndSplineSet
EndChar

StartChar: edieresis
Encoding: 235 235 175
Width: 509
Flags: W
LayerCount: 2
Fore
SplineSet
282 35 m 0,0,1
 334 35 334 35 366.5 59 c 128,-1,2
 399 83 399 83 425 118 c 1,3,-1
 456 95 l 1,4,5
 445 78 445 78 429.5 59.5 c 128,-1,6
 414 41 414 41 391.5 25.5 c 128,-1,7
 369 10 369 10 338.5 0 c 128,-1,8
 308 -10 308 -10 267 -10 c 0,9,10
 214 -10 214 -10 171.5 8.5 c 128,-1,11
 129 27 129 27 99 60 c 128,-1,12
 69 93 69 93 53 137.5 c 128,-1,13
 37 182 37 182 37 235 c 0,14,15
 37 295 37 295 54 341 c 128,-1,16
 71 387 71 387 100.5 417.5 c 128,-1,17
 130 448 130 448 170 464 c 128,-1,18
 210 480 210 480 257 480 c 256,19,20
 304 480 304 480 344 465.5 c 128,-1,21
 384 451 384 451 413.5 425 c 128,-1,22
 443 399 443 399 460 362 c 128,-1,23
 477 325 477 325 477 280 c 0,24,25
 477 269 477 269 476.5 257.5 c 128,-1,26
 476 246 476 246 475 237 c 0,27,28
 474 226 474 226 473 217 c 1,29,-1
 172 217 l 1,30,31
 172 118 172 118 202.5 76.5 c 128,-1,32
 233 35 233 35 282 35 c 0,0,1
342 262 m 1,33,34
 342 312 342 312 335.5 345 c 128,-1,35
 329 378 329 378 318 398 c 128,-1,36
 307 418 307 418 291.5 426.5 c 128,-1,37
 276 435 276 435 257 435 c 0,38,39
 240 435 240 435 224.5 426.5 c 128,-1,40
 209 418 209 418 197.5 398 c 128,-1,41
 186 378 186 378 179 345 c 128,-1,42
 172 312 172 312 172 262 c 1,43,-1
 342 262 l 1,33,34
218 591 m 256,44,45
 218 568 218 568 203 551.5 c 128,-1,46
 188 535 188 535 162 535 c 256,47,48
 136 535 136 535 121 551.5 c 128,-1,49
 106 568 106 568 106 591 c 256,50,51
 106 614 106 614 121 630.5 c 128,-1,52
 136 647 136 647 162 647 c 256,53,54
 188 647 188 647 203 630.5 c 128,-1,55
 218 614 218 614 218 591 c 256,44,45
398 591 m 256,56,57
 398 568 398 568 383 551.5 c 128,-1,58
 368 535 368 535 342 535 c 256,59,60
 316 535 316 535 301 551.5 c 128,-1,61
 286 568 286 568 286 591 c 256,62,63
 286 614 286 614 301 630.5 c 128,-1,64
 316 647 316 647 342 647 c 256,65,66
 368 647 368 647 383 630.5 c 128,-1,67
 398 614 398 614 398 591 c 256,56,57
EndSplineSet
EndChar

StartChar: igrave
Encoding: 236 236 176
Width: 267
Flags: W
LayerCount: 2
Fore
SplineSet
79 340 m 2,0,1
 79 385 79 385 66.5 412.5 c 128,-1,2
 54 440 54 440 9 440 c 2,3,-1
 -1 440 l 1,4,-1
 -1 470 l 1,5,-1
 119 470 l 2,6,7
 145 470 145 470 162.5 463.5 c 128,-1,8
 180 457 180 457 190.5 442 c 128,-1,9
 201 427 201 427 205 402 c 128,-1,10
 209 377 209 377 209 340 c 2,11,-1
 209 0 l 1,12,-1
 79 0 l 1,13,-1
 79 340 l 2,0,1
10 665 m 1,14,-1
 129 665 l 1,15,-1
 171 525 l 1,16,-1
 116 525 l 1,17,-1
 10 665 l 1,14,-1
EndSplineSet
EndChar

StartChar: iacute
Encoding: 237 237 177
Width: 267
Flags: W
LayerCount: 2
Fore
SplineSet
79 340 m 2,0,1
 79 385 79 385 66.5 412.5 c 128,-1,2
 54 440 54 440 9 440 c 2,3,-1
 -1 440 l 1,4,-1
 -1 470 l 1,5,-1
 119 470 l 2,6,7
 145 470 145 470 162.5 463.5 c 128,-1,8
 180 457 180 457 190.5 442 c 128,-1,9
 201 427 201 427 205 402 c 128,-1,10
 209 377 209 377 209 340 c 2,11,-1
 209 0 l 1,12,-1
 79 0 l 1,13,-1
 79 340 l 2,0,1
150 525 m 1,14,-1
 95 525 l 1,15,-1
 137 665 l 1,16,-1
 256 665 l 1,17,-1
 150 525 l 1,14,-1
EndSplineSet
EndChar

StartChar: icircumflex
Encoding: 238 238 178
Width: 267
Flags: W
LayerCount: 2
Fore
SplineSet
79 340 m 2,0,1
 79 385 79 385 66.5 412.5 c 128,-1,2
 54 440 54 440 9 440 c 2,3,-1
 -1 440 l 1,4,-1
 -1 470 l 1,5,-1
 119 470 l 2,6,7
 145 470 145 470 162.5 463.5 c 128,-1,8
 180 457 180 457 190.5 442 c 128,-1,9
 201 427 201 427 205 402 c 128,-1,10
 209 377 209 377 209 340 c 2,11,-1
 209 0 l 1,12,-1
 79 0 l 1,13,-1
 79 340 l 2,0,1
134 611 m 1,14,-1
 49 531 l 1,15,-1
 -11 531 l 1,16,-1
 69 656 l 1,17,-1
 199 656 l 1,18,-1
 279 531 l 1,19,-1
 219 531 l 1,20,-1
 134 611 l 1,14,-1
EndSplineSet
EndChar

StartChar: idieresis
Encoding: 239 239 179
Width: 267
Flags: W
LayerCount: 2
Fore
SplineSet
109 590 m 0,0,1
 109 564 109 564 93 549 c 128,-1,2
 77 534 77 534 54 534 c 0,3,4
 16 534 16 534 -2.5 557 c 128,-1,5
 -21 580 -21 580 -21 610 c 0,6,7
 -21 636 -21 636 -5 651 c 128,-1,8
 11 666 11 666 34 666 c 0,9,10
 72 666 72 666 90.5 643 c 128,-1,11
 109 620 109 620 109 590 c 0,0,1
79 340 m 2,12,13
 79 385 79 385 66.5 412.5 c 128,-1,14
 54 440 54 440 9 440 c 2,15,-1
 -1 440 l 1,16,-1
 -1 470 l 1,17,-1
 119 470 l 2,18,19
 145 470 145 470 162.5 463.5 c 128,-1,20
 180 457 180 457 190.5 442 c 128,-1,21
 201 427 201 427 205 402 c 128,-1,22
 209 377 209 377 209 340 c 2,23,-1
 209 0 l 1,24,-1
 79 0 l 1,25,-1
 79 340 l 2,12,13
294 590 m 0,26,27
 294 564 294 564 278 549 c 128,-1,28
 262 534 262 534 239 534 c 0,29,30
 201 534 201 534 182.5 557 c 128,-1,31
 164 580 164 580 164 610 c 0,32,33
 164 636 164 636 180 651 c 128,-1,34
 196 666 196 666 219 666 c 0,35,36
 257 666 257 666 275.5 643 c 128,-1,37
 294 620 294 620 294 590 c 0,26,27
EndSplineSet
EndChar

StartChar: ntilde
Encoding: 241 241 180
Width: 575
Flags: W
LayerCount: 2
Fore
SplineSet
295 430 m 0,0,1
 263 430 263 430 239.5 421 c 128,-1,2
 216 412 216 412 203 399 c 1,3,4
 204 393 204 393 206 385 c 0,5,6
 208 378 208 378 209 368 c 128,-1,7
 210 358 210 358 210 346 c 2,8,-1
 210 0 l 1,9,-1
 80 0 l 1,10,-1
 80 340 l 2,11,12
 80 362 80 362 77.5 380.5 c 128,-1,13
 75 399 75 399 68 412.5 c 128,-1,14
 61 426 61 426 47 433 c 128,-1,15
 33 440 33 440 11 440 c 2,16,-1
 1 440 l 1,17,-1
 1 470 l 1,18,-1
 100 470 l 2,19,20
 134 470 134 470 153.5 461.5 c 128,-1,21
 173 453 173 453 184 433 c 1,22,23
 193 441 193 441 205.5 449.5 c 128,-1,24
 218 458 218 458 235.5 464.5 c 128,-1,25
 253 471 253 471 276 475.5 c 128,-1,26
 299 480 299 480 330 480 c 0,27,28
 424 480 424 480 472 436.5 c 128,-1,29
 520 393 520 393 520 296 c 2,30,-1
 520 0 l 1,31,-1
 390 0 l 1,32,-1
 390 297 l 2,33,34
 390 370 390 370 363 400 c 128,-1,35
 336 430 336 430 295 430 c 0,0,1
177 544 m 1,36,37
 177 604 177 604 196 624 c 128,-1,38
 215 644 215 644 245 644 c 0,39,40
 262 644 262 644 274.5 637.5 c 128,-1,41
 287 631 287 631 297.5 623.5 c 128,-1,42
 308 616 308 616 317.5 610 c 128,-1,43
 327 604 327 604 337 604 c 0,44,45
 354 604 354 604 363 616.5 c 128,-1,46
 372 629 372 629 372 644 c 1,47,-1
 412 644 l 1,48,49
 412 584 412 584 393.5 564 c 128,-1,50
 375 544 375 544 345 544 c 0,51,52
 328 544 328 544 315.5 550 c 128,-1,53
 303 556 303 556 292.5 563.5 c 128,-1,54
 282 571 282 571 272 577.5 c 128,-1,55
 262 584 262 584 252 584 c 0,56,57
 235 584 235 584 226 571.5 c 128,-1,58
 217 559 217 559 217 544 c 1,59,-1
 177 544 l 1,36,37
EndSplineSet
EndChar

StartChar: ograve
Encoding: 242 242 181
Width: 552
Flags: W
LayerCount: 2
Fore
SplineSet
381 235 m 256,0,1
 381 278 381 278 374.5 314.5 c 128,-1,2
 368 351 368 351 355 378 c 128,-1,3
 342 405 342 405 322 420 c 128,-1,4
 302 435 302 435 276 435 c 256,5,6
 250 435 250 435 230 420 c 128,-1,7
 210 405 210 405 197 378 c 128,-1,8
 184 351 184 351 177.5 314.5 c 128,-1,9
 171 278 171 278 171 235 c 256,10,11
 171 192 171 192 177.5 155.5 c 128,-1,12
 184 119 184 119 197 92 c 128,-1,13
 210 65 210 65 230 50 c 128,-1,14
 250 35 250 35 276 35 c 256,15,16
 302 35 302 35 322 50 c 128,-1,17
 342 65 342 65 355 92 c 128,-1,18
 368 119 368 119 374.5 155.5 c 128,-1,19
 381 192 381 192 381 235 c 256,0,1
36 235 m 256,20,21
 36 286 36 286 52.5 331 c 128,-1,22
 69 376 69 376 100 409 c 128,-1,23
 131 442 131 442 175.5 461 c 128,-1,24
 220 480 220 480 276 480 c 256,25,26
 332 480 332 480 376.5 461 c 128,-1,27
 421 442 421 442 452 409 c 128,-1,28
 483 376 483 376 499.5 331 c 128,-1,29
 516 286 516 286 516 235 c 256,30,31
 516 184 516 184 499.5 139 c 128,-1,32
 483 94 483 94 452 61 c 128,-1,33
 421 28 421 28 376.5 9 c 128,-1,34
 332 -10 332 -10 276 -10 c 256,35,36
 220 -10 220 -10 175.5 9 c 128,-1,37
 131 28 131 28 100 61 c 128,-1,38
 69 94 69 94 52.5 139 c 128,-1,39
 36 184 36 184 36 235 c 256,20,21
153 665 m 1,40,-1
 272 665 l 1,41,-1
 314 525 l 1,42,-1
 259 525 l 1,43,-1
 153 665 l 1,40,-1
EndSplineSet
EndChar

StartChar: oacute
Encoding: 243 243 182
Width: 552
Flags: W
LayerCount: 2
Fore
SplineSet
381 235 m 256,0,1
 381 278 381 278 374.5 314.5 c 128,-1,2
 368 351 368 351 355 378 c 128,-1,3
 342 405 342 405 322 420 c 128,-1,4
 302 435 302 435 276 435 c 256,5,6
 250 435 250 435 230 420 c 128,-1,7
 210 405 210 405 197 378 c 128,-1,8
 184 351 184 351 177.5 314.5 c 128,-1,9
 171 278 171 278 171 235 c 256,10,11
 171 192 171 192 177.5 155.5 c 128,-1,12
 184 119 184 119 197 92 c 128,-1,13
 210 65 210 65 230 50 c 128,-1,14
 250 35 250 35 276 35 c 256,15,16
 302 35 302 35 322 50 c 128,-1,17
 342 65 342 65 355 92 c 128,-1,18
 368 119 368 119 374.5 155.5 c 128,-1,19
 381 192 381 192 381 235 c 256,0,1
36 235 m 256,20,21
 36 286 36 286 52.5 331 c 128,-1,22
 69 376 69 376 100 409 c 128,-1,23
 131 442 131 442 175.5 461 c 128,-1,24
 220 480 220 480 276 480 c 256,25,26
 332 480 332 480 376.5 461 c 128,-1,27
 421 442 421 442 452 409 c 128,-1,28
 483 376 483 376 499.5 331 c 128,-1,29
 516 286 516 286 516 235 c 256,30,31
 516 184 516 184 499.5 139 c 128,-1,32
 483 94 483 94 452 61 c 128,-1,33
 421 28 421 28 376.5 9 c 128,-1,34
 332 -10 332 -10 276 -10 c 256,35,36
 220 -10 220 -10 175.5 9 c 128,-1,37
 131 28 131 28 100 61 c 128,-1,38
 69 94 69 94 52.5 139 c 128,-1,39
 36 184 36 184 36 235 c 256,20,21
288 525 m 1,40,-1
 233 525 l 1,41,-1
 275 665 l 1,42,-1
 394 665 l 1,43,-1
 288 525 l 1,40,-1
EndSplineSet
EndChar

StartChar: ocircumflex
Encoding: 244 244 183
Width: 552
Flags: W
LayerCount: 2
Fore
SplineSet
381 235 m 256,0,1
 381 278 381 278 374.5 314.5 c 128,-1,2
 368 351 368 351 355 378 c 128,-1,3
 342 405 342 405 322 420 c 128,-1,4
 302 435 302 435 276 435 c 256,5,6
 250 435 250 435 230 420 c 128,-1,7
 210 405 210 405 197 378 c 128,-1,8
 184 351 184 351 177.5 314.5 c 128,-1,9
 171 278 171 278 171 235 c 256,10,11
 171 192 171 192 177.5 155.5 c 128,-1,12
 184 119 184 119 197 92 c 128,-1,13
 210 65 210 65 230 50 c 128,-1,14
 250 35 250 35 276 35 c 256,15,16
 302 35 302 35 322 50 c 128,-1,17
 342 65 342 65 355 92 c 128,-1,18
 368 119 368 119 374.5 155.5 c 128,-1,19
 381 192 381 192 381 235 c 256,0,1
36 235 m 256,20,21
 36 286 36 286 52.5 331 c 128,-1,22
 69 376 69 376 100 409 c 128,-1,23
 131 442 131 442 175.5 461 c 128,-1,24
 220 480 220 480 276 480 c 256,25,26
 332 480 332 480 376.5 461 c 128,-1,27
 421 442 421 442 452 409 c 128,-1,28
 483 376 483 376 499.5 331 c 128,-1,29
 516 286 516 286 516 235 c 256,30,31
 516 184 516 184 499.5 139 c 128,-1,32
 483 94 483 94 452 61 c 128,-1,33
 421 28 421 28 376.5 9 c 128,-1,34
 332 -10 332 -10 276 -10 c 256,35,36
 220 -10 220 -10 175.5 9 c 128,-1,37
 131 28 131 28 100 61 c 128,-1,38
 69 94 69 94 52.5 139 c 128,-1,39
 36 184 36 184 36 235 c 256,20,21
276 605 m 1,40,-1
 191 525 l 1,41,-1
 131 525 l 1,42,-1
 211 650 l 1,43,-1
 341 650 l 1,44,-1
 421 525 l 1,45,-1
 361 525 l 1,46,-1
 276 605 l 1,40,-1
EndSplineSet
EndChar

StartChar: otilde
Encoding: 245 245 184
Width: 552
Flags: W
LayerCount: 2
Fore
SplineSet
381 235 m 256,0,1
 381 278 381 278 374.5 314.5 c 128,-1,2
 368 351 368 351 355 378 c 128,-1,3
 342 405 342 405 322 420 c 128,-1,4
 302 435 302 435 276 435 c 256,5,6
 250 435 250 435 230 420 c 128,-1,7
 210 405 210 405 197 378 c 128,-1,8
 184 351 184 351 177.5 314.5 c 128,-1,9
 171 278 171 278 171 235 c 256,10,11
 171 192 171 192 177.5 155.5 c 128,-1,12
 184 119 184 119 197 92 c 128,-1,13
 210 65 210 65 230 50 c 128,-1,14
 250 35 250 35 276 35 c 256,15,16
 302 35 302 35 322 50 c 128,-1,17
 342 65 342 65 355 92 c 128,-1,18
 368 119 368 119 374.5 155.5 c 128,-1,19
 381 192 381 192 381 235 c 256,0,1
36 235 m 256,20,21
 36 286 36 286 52.5 331 c 128,-1,22
 69 376 69 376 100 409 c 128,-1,23
 131 442 131 442 175.5 461 c 128,-1,24
 220 480 220 480 276 480 c 256,25,26
 332 480 332 480 376.5 461 c 128,-1,27
 421 442 421 442 452 409 c 128,-1,28
 483 376 483 376 499.5 331 c 128,-1,29
 516 286 516 286 516 235 c 256,30,31
 516 184 516 184 499.5 139 c 128,-1,32
 483 94 483 94 452 61 c 128,-1,33
 421 28 421 28 376.5 9 c 128,-1,34
 332 -10 332 -10 276 -10 c 256,35,36
 220 -10 220 -10 175.5 9 c 128,-1,37
 131 28 131 28 100 61 c 128,-1,38
 69 94 69 94 52.5 139 c 128,-1,39
 36 184 36 184 36 235 c 256,20,21
158 535 m 1,40,41
 158 595 158 595 177 615 c 128,-1,42
 196 635 196 635 226 635 c 0,43,44
 243 635 243 635 255.5 628.5 c 128,-1,45
 268 622 268 622 278.5 614.5 c 128,-1,46
 289 607 289 607 298.5 601 c 128,-1,47
 308 595 308 595 318 595 c 0,48,49
 335 595 335 595 344 607.5 c 128,-1,50
 353 620 353 620 353 635 c 1,51,-1
 393 635 l 1,52,53
 393 575 393 575 374.5 555 c 128,-1,54
 356 535 356 535 326 535 c 0,55,56
 309 535 309 535 296.5 541 c 128,-1,57
 284 547 284 547 273.5 554.5 c 128,-1,58
 263 562 263 562 253 568.5 c 128,-1,59
 243 575 243 575 233 575 c 0,60,61
 216 575 216 575 207 562.5 c 128,-1,62
 198 550 198 550 198 535 c 1,63,-1
 158 535 l 1,40,41
EndSplineSet
EndChar

StartChar: oslash
Encoding: 248 248 185
Width: 552
Flags: W
LayerCount: 2
Fore
SplineSet
36 235 m 0,0,1
 36 286 36 286 52.5 331 c 128,-1,2
 69 376 69 376 100 409 c 128,-1,3
 131 442 131 442 175.5 461 c 128,-1,4
 220 480 220 480 276 480 c 0,5,6
 309 480 309 480 338 473 c 128,-1,7
 367 466 367 466 392 454 c 1,8,-1
 404 470 l 1,9,-1
 496 470 l 1,10,-1
 451 410 l 1,11,12
 483 377 483 377 499.5 332 c 128,-1,13
 516 287 516 287 516 235 c 0,14,15
 516 184 516 184 499.5 139 c 128,-1,16
 483 94 483 94 452 61 c 128,-1,17
 421 28 421 28 376.5 9 c 128,-1,18
 332 -10 332 -10 276 -10 c 0,19,20
 243 -10 243 -10 214 -3 c 128,-1,21
 185 4 185 4 160 16 c 1,22,-1
 148 0 l 1,23,-1
 56 0 l 1,24,-1
 100 60 l 1,25,26
 69 93 69 93 52.5 138 c 128,-1,27
 36 183 36 183 36 235 c 0,0,1
381 235 m 0,28,29
 381 274 381 274 375 307 c 1,30,-1
 205 77 l 1,31,32
 218 57 218 57 235.5 46 c 128,-1,33
 253 35 253 35 276 35 c 0,34,35
 302 35 302 35 322 50 c 128,-1,36
 342 65 342 65 355 92 c 128,-1,37
 368 119 368 119 374.5 155.5 c 128,-1,38
 381 192 381 192 381 235 c 0,28,29
171 235 m 0,39,40
 171 215 171 215 172 197 c 128,-1,41
 173 179 173 179 176 162 c 1,42,-1
 346 392 l 1,43,44
 333 412 333 412 316 423.5 c 128,-1,45
 299 435 299 435 276 435 c 0,46,47
 250 435 250 435 230 420 c 128,-1,48
 210 405 210 405 197 378 c 128,-1,49
 184 351 184 351 177.5 314.5 c 128,-1,50
 171 278 171 278 171 235 c 0,39,40
EndSplineSet
EndChar

StartChar: ugrave
Encoding: 249 249 186
Width: 565
Flags: W
LayerCount: 2
Fore
SplineSet
70 340 m 2,0,1
 70 385 70 385 57.5 412.5 c 128,-1,2
 45 440 45 440 0 440 c 2,3,-1
 -10 440 l 1,4,-1
 -10 470 l 1,5,-1
 110 470 l 2,6,7
 136 470 136 470 153.5 463.5 c 128,-1,8
 171 457 171 457 181.5 442 c 128,-1,9
 192 427 192 427 196 402 c 128,-1,10
 200 377 200 377 200 340 c 2,11,-1
 200 173 l 2,12,13
 200 96 200 96 222 65.5 c 128,-1,14
 244 35 244 35 285 35 c 0,15,16
 308 35 308 35 324.5 45 c 128,-1,17
 341 55 341 55 352 67 c 0,18,19
 365 81 365 81 375 100 c 1,20,-1
 375 470 l 1,21,-1
 505 470 l 1,22,-1
 505 0 l 1,23,-1
 420 0 l 1,24,-1
 385 45 l 1,25,-1
 380 45 l 1,26,27
 365 29 365 29 347 17 c 0,28,29
 331 6 331 6 308 -2 c 128,-1,30
 285 -10 285 -10 255 -10 c 0,31,32
 161 -10 161 -10 115.5 33.5 c 128,-1,33
 70 77 70 77 70 174 c 2,34,-1
 70 340 l 2,0,1
155 640 m 1,35,-1
 274 640 l 1,36,-1
 316 500 l 1,37,-1
 261 500 l 1,38,-1
 155 640 l 1,35,-1
EndSplineSet
EndChar

StartChar: uacute
Encoding: 250 250 187
Width: 565
Flags: W
LayerCount: 2
Fore
SplineSet
300 500 m 1,0,-1
 245 500 l 1,1,-1
 287 640 l 1,2,-1
 406 640 l 1,3,-1
 300 500 l 1,0,-1
70 340 m 2,4,5
 70 385 70 385 57.5 412.5 c 128,-1,6
 45 440 45 440 0 440 c 2,7,-1
 -10 440 l 1,8,-1
 -10 470 l 1,9,-1
 110 470 l 2,10,11
 136 470 136 470 153.5 463.5 c 128,-1,12
 171 457 171 457 181.5 442 c 128,-1,13
 192 427 192 427 196 402 c 128,-1,14
 200 377 200 377 200 340 c 2,15,-1
 200 173 l 2,16,17
 200 96 200 96 222 65.5 c 128,-1,18
 244 35 244 35 285 35 c 0,19,20
 308 35 308 35 324.5 45 c 128,-1,21
 341 55 341 55 352 67 c 0,22,23
 365 81 365 81 375 100 c 1,24,-1
 375 470 l 1,25,-1
 505 470 l 1,26,-1
 505 0 l 1,27,-1
 420 0 l 1,28,-1
 385 45 l 1,29,-1
 380 45 l 1,30,31
 365 29 365 29 347 17 c 0,32,33
 331 6 331 6 308 -2 c 128,-1,34
 285 -10 285 -10 255 -10 c 0,35,36
 161 -10 161 -10 115.5 33.5 c 128,-1,37
 70 77 70 77 70 174 c 2,38,-1
 70 340 l 2,4,5
EndSplineSet
EndChar

StartChar: ucircumflex
Encoding: 251 251 188
Width: 565
Flags: W
LayerCount: 2
Fore
SplineSet
275 605 m 1,0,-1
 190 525 l 1,1,-1
 130 525 l 1,2,-1
 210 650 l 1,3,-1
 340 650 l 1,4,-1
 420 525 l 1,5,-1
 360 525 l 1,6,-1
 275 605 l 1,0,-1
70 340 m 2,7,8
 70 385 70 385 57.5 412.5 c 128,-1,9
 45 440 45 440 0 440 c 2,10,-1
 -10 440 l 1,11,-1
 -10 470 l 1,12,-1
 110 470 l 2,13,14
 136 470 136 470 153.5 463.5 c 128,-1,15
 171 457 171 457 181.5 442 c 128,-1,16
 192 427 192 427 196 402 c 128,-1,17
 200 377 200 377 200 340 c 2,18,-1
 200 173 l 2,19,20
 200 96 200 96 222 65.5 c 128,-1,21
 244 35 244 35 285 35 c 0,22,23
 308 35 308 35 324.5 45 c 128,-1,24
 341 55 341 55 352 67 c 0,25,26
 365 81 365 81 375 100 c 1,27,-1
 375 470 l 1,28,-1
 505 470 l 1,29,-1
 505 0 l 1,30,-1
 420 0 l 1,31,-1
 385 45 l 1,32,-1
 380 45 l 1,33,34
 365 29 365 29 347 17 c 0,35,36
 331 6 331 6 308 -2 c 128,-1,37
 285 -10 285 -10 255 -10 c 0,38,39
 161 -10 161 -10 115.5 33.5 c 128,-1,40
 70 77 70 77 70 174 c 2,41,-1
 70 340 l 2,7,8
EndSplineSet
EndChar

StartChar: udieresis
Encoding: 252 252 189
Width: 565
Flags: W
LayerCount: 2
Fore
SplineSet
70 340 m 2,0,1
 70 385 70 385 57.5 412.5 c 128,-1,2
 45 440 45 440 0 440 c 2,3,-1
 -10 440 l 1,4,-1
 -10 470 l 1,5,-1
 110 470 l 2,6,7
 136 470 136 470 153.5 463.5 c 128,-1,8
 171 457 171 457 181.5 442 c 128,-1,9
 192 427 192 427 196 402 c 128,-1,10
 200 377 200 377 200 340 c 2,11,-1
 200 173 l 2,12,13
 200 96 200 96 222 65.5 c 128,-1,14
 244 35 244 35 285 35 c 0,15,16
 308 35 308 35 324.5 45 c 128,-1,17
 341 55 341 55 352 67 c 0,18,19
 365 81 365 81 375 100 c 1,20,-1
 375 470 l 1,21,-1
 505 470 l 1,22,-1
 505 0 l 1,23,-1
 420 0 l 1,24,-1
 385 45 l 1,25,-1
 380 45 l 1,26,27
 365 29 365 29 347 17 c 0,28,29
 331 6 331 6 308 -2 c 128,-1,30
 285 -10 285 -10 255 -10 c 0,31,32
 161 -10 161 -10 115.5 33.5 c 128,-1,33
 70 77 70 77 70 174 c 2,34,-1
 70 340 l 2,0,1
242 571 m 256,35,36
 242 548 242 548 227 531.5 c 128,-1,37
 212 515 212 515 186 515 c 256,38,39
 160 515 160 515 145 531.5 c 128,-1,40
 130 548 130 548 130 571 c 256,41,42
 130 594 130 594 145 610.5 c 128,-1,43
 160 627 160 627 186 627 c 256,44,45
 212 627 212 627 227 610.5 c 128,-1,46
 242 594 242 594 242 571 c 256,35,36
422 571 m 256,47,48
 422 548 422 548 407 531.5 c 128,-1,49
 392 515 392 515 366 515 c 256,50,51
 340 515 340 515 325 531.5 c 128,-1,52
 310 548 310 548 310 571 c 256,53,54
 310 594 310 594 325 610.5 c 128,-1,55
 340 627 340 627 366 627 c 256,56,57
 392 627 392 627 407 610.5 c 128,-1,58
 422 594 422 594 422 571 c 256,47,48
EndSplineSet
EndChar

StartChar: ydieresis
Encoding: 255 255 190
Width: 508
Flags: W
LayerCount: 2
Fore
SplineSet
285 -65 m 2,0,1
 269 -106 269 -106 252.5 -132 c 128,-1,2
 236 -158 236 -158 216.5 -173 c 128,-1,3
 197 -188 197 -188 175 -194 c 128,-1,4
 153 -200 153 -200 127 -200 c 2,5,-1
 87 -200 l 1,6,-1
 87 -165 l 1,7,8
 113 -165 113 -165 134.5 -160.5 c 128,-1,9
 156 -156 156 -156 174 -145 c 128,-1,10
 192 -134 192 -134 206 -115.5 c 128,-1,11
 220 -97 220 -97 231 -68 c 2,12,-1
 252 -14 l 1,13,-1
 77 380 l 2,14,15
 60 418 60 418 37 437 c 128,-1,16
 14 456 14 456 -16 460 c 1,17,-1
 -16 480 l 1,18,-1
 72 480 l 2,19,20
 117 480 117 480 151 458.5 c 128,-1,21
 185 437 185 437 202 400 c 2,22,-1
 314 147 l 1,23,-1
 439 470 l 1,24,-1
 492 470 l 1,25,-1
 285 -65 l 2,0,1
248 576 m 256,26,27
 248 553 248 553 233 536.5 c 128,-1,28
 218 520 218 520 192 520 c 256,29,30
 166 520 166 520 151 536.5 c 128,-1,31
 136 553 136 553 136 576 c 256,32,33
 136 599 136 599 151 615.5 c 128,-1,34
 166 632 166 632 192 632 c 256,35,36
 218 632 218 632 233 615.5 c 128,-1,37
 248 599 248 599 248 576 c 256,26,27
434 576 m 256,38,39
 434 553 434 553 419 536.5 c 128,-1,40
 404 520 404 520 378 520 c 256,41,42
 352 520 352 520 337 536.5 c 128,-1,43
 322 553 322 553 322 576 c 256,44,45
 322 599 322 599 337 615.5 c 128,-1,46
 352 632 352 632 378 632 c 256,47,48
 404 632 404 632 419 615.5 c 128,-1,49
 434 599 434 599 434 576 c 256,38,39
EndSplineSet
EndChar

StartChar: Ocircumflex
Encoding: 212 212 191
Width: 733
Flags: W
LayerCount: 2
Fore
SplineSet
558 330 m 256,0,1
 558 476 558 476 508 555.5 c 128,-1,2
 458 635 458 635 367 635 c 256,3,4
 276 635 276 635 226.5 555.5 c 128,-1,5
 177 476 177 476 177 330 c 256,6,7
 177 184 177 184 226.5 104.5 c 128,-1,8
 276 25 276 25 367 25 c 256,9,10
 458 25 458 25 508 104.5 c 128,-1,11
 558 184 558 184 558 330 c 256,0,1
37 330 m 256,12,13
 37 404 37 404 60.5 468 c 128,-1,14
 84 532 84 532 127.5 579 c 128,-1,15
 171 626 171 626 231.5 653 c 128,-1,16
 292 680 292 680 367 680 c 256,17,18
 442 680 442 680 502.5 653 c 128,-1,19
 563 626 563 626 606 579 c 128,-1,20
 649 532 649 532 672.5 468 c 128,-1,21
 696 404 696 404 696 330 c 256,22,23
 696 256 696 256 672.5 192 c 128,-1,24
 649 128 649 128 606 81 c 128,-1,25
 563 34 563 34 502.5 7 c 128,-1,26
 442 -20 442 -20 367 -20 c 256,27,28
 292 -20 292 -20 231.5 7 c 128,-1,29
 171 34 171 34 127.5 81 c 128,-1,30
 84 128 84 128 60.5 192 c 128,-1,31
 37 256 37 256 37 330 c 256,12,13
362 810 m 1,32,-1
 277 730 l 1,33,-1
 217 730 l 1,34,-1
 297 855 l 1,35,-1
 427 855 l 1,36,-1
 507 730 l 1,37,-1
 447 730 l 1,38,-1
 362 810 l 1,32,-1
EndSplineSet
EndChar

StartChar: ae
Encoding: 230 230 192
Width: 795
Flags: W
LayerCount: 2
Fore
SplineSet
568 35 m 0,0,1
 620 35 620 35 652.5 59 c 128,-1,2
 685 83 685 83 711 118 c 1,3,-1
 742 95 l 1,4,5
 731 78 731 78 715.5 59.5 c 128,-1,6
 700 41 700 41 677.5 25.5 c 128,-1,7
 655 10 655 10 624.5 0 c 128,-1,8
 594 -10 594 -10 553 -10 c 0,9,10
 443 -10 443 -10 383 80 c 1,11,12
 374 63 374 63 358.5 47 c 128,-1,13
 343 31 343 31 321.5 18 c 128,-1,14
 300 5 300 5 272 -2.5 c 128,-1,15
 244 -10 244 -10 208 -10 c 0,16,17
 118 -10 118 -10 73 27 c 128,-1,18
 28 64 28 64 28 120 c 0,19,20
 28 152 28 152 40.5 178 c 128,-1,21
 53 204 53 204 84.5 223 c 128,-1,22
 116 242 116 242 169 252 c 128,-1,23
 222 262 222 262 303 262 c 2,24,-1
 318 262 l 1,25,26
 318 353 318 353 292.5 394 c 128,-1,27
 267 435 267 435 218 435 c 0,28,29
 201 435 201 435 185.5 431.5 c 128,-1,30
 170 428 170 428 157 418 c 128,-1,31
 144 408 144 408 134 390.5 c 128,-1,32
 124 373 124 373 118 345 c 1,33,-1
 63 345 l 1,34,35
 63 371 63 371 66.5 398 c 128,-1,36
 70 425 70 425 88 445 c 0,37,38
 97 455 97 455 112 461.5 c 128,-1,39
 127 468 127 468 145 472 c 128,-1,40
 163 476 163 476 182 478 c 128,-1,41
 201 480 201 480 218 480 c 0,42,43
 282 480 282 480 326 455.5 c 128,-1,44
 370 431 370 431 393 389 c 1,45,46
 422 435 422 435 463.5 457.5 c 128,-1,47
 505 480 505 480 553 480 c 0,48,49
 596 480 596 480 634.5 465.5 c 128,-1,50
 673 451 673 451 701.5 425 c 128,-1,51
 730 399 730 399 746.5 362 c 128,-1,52
 763 325 763 325 763 280 c 0,53,54
 763 269 763 269 762.5 257.5 c 128,-1,55
 762 246 762 246 761 237 c 0,56,57
 760 226 760 226 759 217 c 1,58,-1
 458 217 l 1,59,-1
 458 207 l 1,60,61
 459 114 459 114 489.5 74.5 c 128,-1,62
 520 35 520 35 568 35 c 0,0,1
628 262 m 1,63,64
 628 354 628 354 604 394.5 c 128,-1,65
 580 435 580 435 543 435 c 0,66,67
 509 435 509 435 483.5 394.5 c 128,-1,68
 458 354 458 354 458 262 c 1,69,-1
 628 262 l 1,63,64
318 217 m 1,70,-1
 303 217 l 2,71,72
 260 217 260 217 232.5 210.5 c 128,-1,73
 205 204 205 204 189.5 191 c 128,-1,74
 174 178 174 178 168.5 160 c 128,-1,75
 163 142 163 142 163 120 c 0,76,77
 163 86 163 86 180.5 63 c 128,-1,78
 198 40 198 40 228 40 c 0,79,80
 252 40 252 40 269 50 c 128,-1,81
 286 60 286 60 297 72 c 0,82,83
 309 86 309 86 318 105 c 1,84,-1
 318 217 l 1,70,-1
EndSplineSet
EndChar

StartChar: odieresis
Encoding: 246 246 193
Width: 552
Flags: W
LayerCount: 2
Fore
SplineSet
381 235 m 256,0,1
 381 278 381 278 374.5 314.5 c 128,-1,2
 368 351 368 351 355 378 c 128,-1,3
 342 405 342 405 322 420 c 128,-1,4
 302 435 302 435 276 435 c 256,5,6
 250 435 250 435 230 420 c 128,-1,7
 210 405 210 405 197 378 c 128,-1,8
 184 351 184 351 177.5 314.5 c 128,-1,9
 171 278 171 278 171 235 c 256,10,11
 171 192 171 192 177.5 155.5 c 128,-1,12
 184 119 184 119 197 92 c 128,-1,13
 210 65 210 65 230 50 c 128,-1,14
 250 35 250 35 276 35 c 256,15,16
 302 35 302 35 322 50 c 128,-1,17
 342 65 342 65 355 92 c 128,-1,18
 368 119 368 119 374.5 155.5 c 128,-1,19
 381 192 381 192 381 235 c 256,0,1
36 235 m 256,20,21
 36 286 36 286 52.5 331 c 128,-1,22
 69 376 69 376 100 409 c 128,-1,23
 131 442 131 442 175.5 461 c 128,-1,24
 220 480 220 480 276 480 c 256,25,26
 332 480 332 480 376.5 461 c 128,-1,27
 421 442 421 442 452 409 c 128,-1,28
 483 376 483 376 499.5 331 c 128,-1,29
 516 286 516 286 516 235 c 256,30,31
 516 184 516 184 499.5 139 c 128,-1,32
 483 94 483 94 452 61 c 128,-1,33
 421 28 421 28 376.5 9 c 128,-1,34
 332 -10 332 -10 276 -10 c 256,35,36
 220 -10 220 -10 175.5 9 c 128,-1,37
 131 28 131 28 100 61 c 128,-1,38
 69 94 69 94 52.5 139 c 128,-1,39
 36 184 36 184 36 235 c 256,20,21
242 591 m 256,40,41
 242 568 242 568 227 551.5 c 128,-1,42
 212 535 212 535 186 535 c 256,43,44
 160 535 160 535 145 551.5 c 128,-1,45
 130 568 130 568 130 591 c 256,46,47
 130 614 130 614 145 630.5 c 128,-1,48
 160 647 160 647 186 647 c 256,49,50
 212 647 212 647 227 630.5 c 128,-1,51
 242 614 242 614 242 591 c 256,40,41
422 591 m 256,52,53
 422 568 422 568 407 551.5 c 128,-1,54
 392 535 392 535 366 535 c 256,55,56
 340 535 340 535 325 551.5 c 128,-1,57
 310 568 310 568 310 591 c 256,58,59
 310 614 310 614 325 630.5 c 128,-1,60
 340 647 340 647 366 647 c 256,61,62
 392 647 392 647 407 630.5 c 128,-1,63
 422 614 422 614 422 591 c 256,52,53
EndSplineSet
EndChar

StartChar: divide
Encoding: 247 247 194
Width: 548
Flags: W
LayerCount: 2
Fore
SplineSet
504 297 m 1,0,-1
 44 297 l 1,1,-1
 44 362 l 1,2,-1
 504 362 l 1,3,-1
 504 297 l 1,0,-1
330 481 m 256,4,5
 330 458 330 458 315 441.5 c 128,-1,6
 300 425 300 425 274 425 c 256,7,8
 248 425 248 425 233 441.5 c 128,-1,9
 218 458 218 458 218 481 c 256,10,11
 218 504 218 504 233 520.5 c 128,-1,12
 248 537 248 537 274 537 c 256,13,14
 300 537 300 537 315 520.5 c 128,-1,15
 330 504 330 504 330 481 c 256,4,5
330 179 m 256,16,17
 330 156 330 156 315 139.5 c 128,-1,18
 300 123 300 123 274 123 c 256,19,20
 248 123 248 123 233 139.5 c 128,-1,21
 218 156 218 156 218 179 c 256,22,23
 218 202 218 202 233 218.5 c 128,-1,24
 248 235 248 235 274 235 c 256,25,26
 300 235 300 235 315 218.5 c 128,-1,27
 330 202 330 202 330 179 c 256,16,17
EndSplineSet
EndChar

StartChar: dagger
Encoding: 8224 8224 195
Width: 539
Flags: W
LayerCount: 2
Fore
SplineSet
25 475 m 1,0,-1
 204 475 l 1,1,-1
 204 680 l 1,2,-1
 334 680 l 1,3,-1
 334 475 l 1,4,-1
 514 475 l 1,5,-1
 514 405 l 1,6,-1
 334 405 l 1,7,-1
 334 -190 l 1,8,-1
 204 -190 l 1,9,-1
 204 405 l 1,10,-1
 25 405 l 1,11,-1
 25 475 l 1,0,-1
EndSplineSet
EndChar

StartChar: daggerdbl
Encoding: 8225 8225 196
Width: 561
Flags: W
LayerCount: 2
Fore
SplineSet
36 475 m 1,0,-1
 215 475 l 1,1,-1
 215 680 l 1,2,-1
 345 680 l 1,3,-1
 345 475 l 1,4,-1
 525 475 l 1,5,-1
 525 405 l 1,6,-1
 345 405 l 1,7,-1
 345 85 l 1,8,-1
 525 85 l 1,9,-1
 525 15 l 1,10,-1
 345 15 l 1,11,-1
 345 -190 l 1,12,-1
 215 -190 l 1,13,-1
 215 15 l 1,14,-1
 36 15 l 1,15,-1
 36 85 l 1,16,-1
 215 85 l 1,17,-1
 215 405 l 1,18,-1
 36 405 l 1,19,-1
 36 475 l 1,0,-1
EndSplineSet
EndChar

StartChar: cent
Encoding: 162 162 197
Width: 496
Flags: W
LayerCount: 2
Fore
SplineSet
241 -8 m 1,0,1
 188 -4 188 -4 149 17 c 128,-1,2
 110 38 110 38 83.5 70.5 c 128,-1,3
 57 103 57 103 44 145.5 c 128,-1,4
 31 188 31 188 31 235 c 256,5,6
 31 282 31 282 44 324 c 128,-1,7
 57 366 57 366 83.5 398.5 c 128,-1,8
 110 431 110 431 149 452 c 128,-1,9
 188 473 188 473 241 478 c 1,10,-1
 241 520 l 1,11,-1
 301 520 l 1,12,-1
 301 479 l 1,13,14
 346 477 346 477 377.5 469 c 128,-1,15
 409 461 409 461 426 445 c 0,16,17
 445 426 445 426 448 394 c 128,-1,18
 451 362 451 362 451 305 c 1,19,-1
 421 305 l 1,20,21
 417 365 417 365 386 397 c 128,-1,22
 355 429 355 429 301 434 c 1,23,-1
 301 35 l 1,24,25
 325 36 325 36 344 43 c 128,-1,26
 363 50 363 50 378.5 61 c 128,-1,27
 394 72 394 72 407.5 86.5 c 128,-1,28
 421 101 421 101 434 118 c 1,29,-1
 465 95 l 1,30,31
 455 80 455 80 441.5 63 c 128,-1,32
 428 46 428 46 408.5 31.5 c 128,-1,33
 389 17 389 17 362.5 6 c 128,-1,34
 336 -5 336 -5 301 -8 c 1,35,-1
 301 -50 l 1,36,-1
 241 -50 l 1,37,-1
 241 -8 l 1,0,1
166 235 m 0,38,39
 166 79 166 79 241 45 c 1,40,-1
 241 424 l 1,41,42
 206 407 206 407 186 360 c 128,-1,43
 166 313 166 313 166 235 c 0,38,39
EndSplineSet
EndChar

StartChar: dotlessi
Encoding: 305 305 198
Width: 267
Flags: W
LayerCount: 2
Fore
SplineSet
79 340 m 2,0,1
 79 385 79 385 66.5 412.5 c 128,-1,2
 54 440 54 440 9 440 c 2,3,-1
 -1 440 l 1,4,-1
 -1 470 l 1,5,-1
 119 470 l 2,6,7
 145 470 145 470 162.5 463.5 c 128,-1,8
 180 457 180 457 190.5 442 c 128,-1,9
 201 427 201 427 205 402 c 128,-1,10
 209 377 209 377 209 340 c 2,11,-1
 209 0 l 1,12,-1
 79 0 l 1,13,-1
 79 340 l 2,0,1
EndSplineSet
EndChar

StartChar: degree
Encoding: 176 176 199
Width: 416
Flags: W
LayerCount: 2
Fore
SplineSet
208 620 m 256,0,1
 170 620 170 620 144 592.5 c 128,-1,2
 118 565 118 565 118 520 c 256,3,4
 118 475 118 475 144 447 c 128,-1,5
 170 419 170 419 208 419 c 256,6,7
 246 419 246 419 272 447 c 128,-1,8
 298 475 298 475 298 520 c 256,9,10
 298 565 298 565 272 592.5 c 128,-1,11
 246 620 246 620 208 620 c 256,0,1
208 680 m 256,12,13
 249 680 249 680 281 667.5 c 128,-1,14
 313 655 313 655 334.5 633.5 c 128,-1,15
 356 612 356 612 367 583 c 128,-1,16
 378 554 378 554 378 520 c 256,17,18
 378 486 378 486 367 457 c 128,-1,19
 356 428 356 428 334.5 406.5 c 128,-1,20
 313 385 313 385 281 372.5 c 128,-1,21
 249 360 249 360 208 360 c 256,22,23
 167 360 167 360 135 372.5 c 128,-1,24
 103 385 103 385 81.5 406.5 c 128,-1,25
 60 428 60 428 49 457 c 128,-1,26
 38 486 38 486 38 520 c 256,27,28
 38 554 38 554 49 583 c 128,-1,29
 60 612 60 612 81.5 633.5 c 128,-1,30
 103 655 103 655 135 667.5 c 128,-1,31
 167 680 167 680 208 680 c 256,12,13
EndSplineSet
EndChar

StartChar: bullet
Encoding: 8226 8226 200
Width: 350
Flags: W
LayerCount: 2
Fore
SplineSet
175 453 m 256,0,1
 205 453 205 453 229.5 444 c 128,-1,2
 254 435 254 435 272 418.5 c 128,-1,3
 290 402 290 402 300 379.5 c 128,-1,4
 310 357 310 357 310 330 c 256,5,6
 310 303 310 303 300 280.5 c 128,-1,7
 290 258 290 258 272 241.5 c 128,-1,8
 254 225 254 225 229.5 216 c 128,-1,9
 205 207 205 207 175 207 c 256,10,11
 145 207 145 207 120.5 216 c 128,-1,12
 96 225 96 225 78 241.5 c 128,-1,13
 60 258 60 258 50 280.5 c 128,-1,14
 40 303 40 303 40 330 c 256,15,16
 40 357 40 357 50 379.5 c 128,-1,17
 60 402 60 402 78 418.5 c 128,-1,18
 96 435 96 435 120.5 444 c 128,-1,19
 145 453 145 453 175 453 c 256,0,1
EndSplineSet
EndChar

StartChar: paragraph
Encoding: 182 182 201
Width: 634
Flags: W
LayerCount: 2
Fore
SplineSet
256 270 m 1,0,1
 207 270 207 270 165 284.5 c 128,-1,2
 123 299 123 299 92 324.5 c 128,-1,3
 61 350 61 350 43.5 386 c 128,-1,4
 26 422 26 422 26 465 c 256,5,6
 26 508 26 508 43.5 544 c 128,-1,7
 61 580 61 580 92 605.5 c 128,-1,8
 123 631 123 631 165 645.5 c 128,-1,9
 207 660 207 660 256 660 c 2,10,-1
 596 660 l 1,11,-1
 596 615 l 1,12,-1
 541 615 l 1,13,-1
 541 -190 l 1,14,-1
 421 -190 l 1,15,-1
 421 615 l 1,16,-1
 376 615 l 1,17,-1
 376 -190 l 1,18,-1
 256 -190 l 1,19,-1
 256 270 l 1,0,1
EndSplineSet
EndChar

StartChar: currency
Encoding: 164 164 202
Width: 605
Flags: W
LayerCount: 2
Fore
SplineSet
306 330 m 2,0,1
 330 330 330 330 353.5 337.5 c 128,-1,2
 377 345 377 345 395.5 362 c 128,-1,3
 414 379 414 379 425 408 c 128,-1,4
 436 437 436 437 436 480 c 0,5,6
 436 517 436 517 424 544 c 128,-1,7
 412 571 412 571 394 587.5 c 128,-1,8
 376 604 376 604 354 612 c 128,-1,9
 332 620 332 620 311 620 c 0,10,11
 292 620 292 620 276.5 619.5 c 128,-1,12
 261 619 261 619 246 615 c 1,13,-1
 246 330 l 1,14,-1
 306 330 l 2,0,1
496 190 m 1,15,-1
 246 190 l 1,16,-1
 246 0 l 1,17,-1
 116 0 l 1,18,-1
 116 190 l 1,19,-1
 66 190 l 1,20,-1
 66 235 l 1,21,-1
 116 235 l 1,22,-1
 116 285 l 1,23,-1
 66 285 l 1,24,-1
 66 330 l 1,25,-1
 116 330 l 1,26,-1
 116 535 l 2,27,28
 116 556 116 556 113.5 573 c 128,-1,29
 111 590 111 590 103.5 603 c 128,-1,30
 96 616 96 616 82 623 c 128,-1,31
 68 630 68 630 46 630 c 2,32,-1
 36 630 l 1,33,-1
 36 660 l 1,34,-1
 311 660 l 2,35,36
 365 660 365 660 413.5 649.5 c 128,-1,37
 462 639 462 639 498 617 c 128,-1,38
 534 595 534 595 555 561 c 128,-1,39
 576 527 576 527 576 480 c 0,40,41
 576 429 576 429 555 392.5 c 128,-1,42
 534 356 534 356 497.5 332 c 128,-1,43
 461 308 461 308 411.5 296.5 c 128,-1,44
 362 285 362 285 306 285 c 2,45,-1
 246 285 l 1,46,-1
 246 235 l 1,47,-1
 496 235 l 1,48,-1
 496 190 l 1,15,-1
EndSplineSet
EndChar

StartChar: brokenbar
Encoding: 166 166 203
Width: 268
Flags: W
LayerCount: 2
Fore
SplineSet
199 680 m 1,0,-1
 199 327 l 1,1,-1
 69 327 l 1,2,-1
 69 680 l 1,3,-1
 199 680 l 1,0,-1
199 163 m 1,4,-1
 199 -190 l 1,5,-1
 69 -190 l 1,6,-1
 69 163 l 1,7,-1
 199 163 l 1,4,-1
EndSplineSet
EndChar

StartChar: uni00AD
Encoding: 173 173 204
Width: 395
Flags: W
LayerCount: 2
Fore
SplineSet
58 312 m 1,0,-1
 337 312 l 1,1,-1
 337 217 l 1,2,-1
 58 217 l 1,3,-1
 58 312 l 1,0,-1
EndSplineSet
EndChar

StartChar: Zcaron
Encoding: 381 381 205
Width: 588
Flags: W
LayerCount: 2
Fore
SplineSet
379 835 m 1,0,-1
 449 835 l 1,1,-1
 369 710 l 1,2,-1
 239 710 l 1,3,-1
 159 835 l 1,4,-1
 229 835 l 1,5,-1
 304 755 l 1,6,-1
 379 835 l 1,0,-1
570 660 m 1,7,-1
 178 45 l 1,8,-1
 565 45 l 1,9,-1
 565 0 l 1,10,-1
 20 0 l 1,11,-1
 20 32 l 1,12,-1
 392 616 l 1,13,-1
 195 616 l 2,14,15
 142 616 142 616 111 589 c 128,-1,16
 80 562 80 562 80 495 c 1,17,-1
 50 495 l 1,18,-1
 50 580 l 2,19,20
 50 595 50 595 53.5 609.5 c 128,-1,21
 57 624 57 624 66.5 635 c 128,-1,22
 76 646 76 646 92.5 653 c 128,-1,23
 109 660 109 660 135 660 c 2,24,-1
 570 660 l 1,7,-1
EndSplineSet
EndChar

